<svg xmlns="http://www.w3.org/2000/svg" xml:space="preserve" width="512" height="512">
  <circle cx="256" cy="256" r="256" fill="#1B9BAA"/>
  <path d="M512 256v-15L362 91H256v421c141 0 256-115 256-256z" opacity=".1"/>
  <path fill="#FFD0AE" d="M350 360c-75 0-58-36-63-73h-62c-5 37 12 73-63 73-47 0-63 21-63 67v31a255 255 0 0 0 315 0v-31c0-46-17-67-64-67z"/>
  <path d="m288 308-1-19h-62l-1 19c9 6 20 9 32 9 13 0 23-3 32-9z" opacity=".1"/>
  <ellipse cx="181.3" cy="223.4" fill="#FFD0AE" rx="13.8" ry="16.3"/>
  <ellipse cx="331.1" cy="223.4" fill="#FFD0AE" rx="13.8" ry="16.3"/>
  <path fill="#FFD0AE" d="M270 107h-28c-36 0-65 42-65 78 0 0 2 127 79 127s79-127 79-127c0-36-29-78-65-78z"/>
  <path fill="#231F20" d="M175 209c-12-17-25-125 41-122 57-50 162 16 122 122l-7 5c7-20-4-69-12-64-47 24-63-21-103-19-26 11-30 35-33 51s-1 32-1 32l-7-5z"/>
  <path d="M319 150c-47 24-63-21-103-19-26 11-30 35-33 51l-1 24 1-13c3-17 7-40 33-51 40-2 56 43 103 19 6-4 13 20 14 41 2-23-7-56-14-52z" opacity=".1"/>
  <path fill="#E4E5E6" d="M350 360c-10 0-18 0-25-2l-69 8-69-8c-7 2-15 2-25 2-47 0-64 21-64 67v31a255 255 0 0 0 315 0v-31c0-46-16-67-63-67z"/>
  <path fill="#242F41" d="M350 360c-10 0-18 0-25-2l-69 8-69-8c-7 2-15 2-25 2-47 0-64 21-64 67v31a255 255 0 0 0 315 0v-31c0-46-16-67-63-67z"/>
  <path fill="#242F41" d="M222 332h-5l-30 26 32 46 37-38zm69 0h4l30 26-32 46-37-38z"/>
  <path d="m219 408 37-39 37 39 35-49-3-1-32 46-37-38-37 38-32-46-3 1 35 49z" opacity=".1"/>
  <path fill="#242F41" d="M256 44 151 91l12 37c0 34 42 55 93 55 52 0 93-21 93-55l13-37-106-47z"/>
  <path fill="#EDC36A" d="M276 96c-2 0-3 1-3 2l-11-1-4-10a3 3 0 1 0-3 0l-4 10-11 1a3 3 0 0 0-6 1 3 3 0 0 0 5 2l8 8-2 11h-1a3 3 0 1 0 3 1l9-5 10 5a3 3 0 0 0 2 5 3 3 0 1 0 0-6l-2-11 8-8a3 3 0 0 0 5-2c0-2-2-3-3-3z"/>
  <circle cx="219.1" cy="389.6" r="4.8" fill="#EDC36A"/>
  <circle cx="293" cy="389.6" r="4.8" fill="#EDC36A"/>
  <path fill="#EDC36A" d="M157 446h52v12h-52z"/>
</svg>