<svg xmlns="http://www.w3.org/2000/svg" viewBox="0 0 512 512" xml:space="preserve"><style>.st16{fill:#fff}.st20{fill:#d5b3a7}.st21{fill:#c09a8f}.st71{fill:none;stroke:#c09a8f;stroke-width:10;stroke-linecap:round;stroke-miterlimit:10}.st96{fill:#d1d1d1}.st235{fill:#c2ede2}</style><g id="BULINE"><circle id="XMLID_2920_" cx="256" cy="256" r="256" fill="#5493a0"/></g><g id="Icons"><g id="XMLID_3140_"><circle id="XMLID_3149_" cx="254.3" cy="52.3" r="47.3" fill="#cacaca"/><path id="XMLID_3935_" d="m375.2 152.8-.1-1.9a120.9 120.9 0 0 0-241.4 10.2v62.2a70 70 0 0 0 42.7 64.4l.1.1 1.6 1.7 1.6 1.7 1.6 1.7a51.4 51.4 0 0 0 7 6.2l6.3 4.8 1.5 1 1.8 1.2 1.6 1 .3.2 1.9 1.1.1.1 1.5.9.9.5 1.5.8.1.1 1.8.9 1.9.9 1.3.6c5.5 2.5 11.2 4.6 17.1 6.1l1.2.3 1.5.4.7.2 1.8.4.8.1 1.5.3 1.7.3.4.1 1.7.3 1.5.2 1 .1 1.2.1 1.5.2.9.1 1.5.1 2.1.1 1.6.1h4l7.1-.2 1.6-.1 1.1-.1 2.2-.2 1.4-.2.9-.1 1.8-.3 2.6-.4 1.6-.3h-.1a103.3 103.3 0 0 0 57.6-32.8 70 70 0 0 0 43.4-64.7v-62.2l-.5-8.3z" class="st16"/><path id="XMLID_3226_" fill="#467b80" d="M506.8 307.8A255.6 255.6 0 0 1 154.2 491l-5.6-2.5a242.9 242.9 0 0 1-24.9-13.2A255.8 255.8 0 0 1 6.2 312.8c13.4-6.3 38.8-12.6 72.3 4.5 0 0 37.9 46.9 76.5 8 0 0 18.6-9.9 45.7-17.2 7.8-2.1 16.2-4 25.2-5.4l.4-.1 8.1-1.1a183 183 0 0 1 48.2 1.2 124.7 124.7 0 0 1 44 16.6s32.2 31.7 77.8 13.4c7.5-3 15.4-7.4 23.5-13.4.1 0 42.8-20.2 78.9-11.5z"/><path id="XMLID_3190_" fill="#da4545" d="M455.3 379.3v37.3A255.2 255.2 0 0 1 168 496.5a233 233 0 0 1-19.4-8 242.9 242.9 0 0 1-24.9-13.2v-84.4a45.8 45.8 0 0 1 44.3-45.8h171a45.8 45.8 0 0 1 45.8 45.8v42a8 8 0 0 0 2.3 5.6 8 8 0 0 0 13.6-5.6v-53.6h54.6z"/><path id="XMLID_2613_" fill="#b62a2a" d="M200 345.1h-1.6l-4.2.3a45.6 45.6 0 0 0-39.9 45.4V491l-5.6-2.5c-8.3-3.8-16.4-8.1-24.2-12.8v-84.8a45.9 45.9 0 0 1 43.7-45.8l2.2-.1H200z"/><ellipse id="XMLID_3151_" cx="255.1" cy="361.3" class="st16" rx="66.1" ry="31.5"/><path id="XMLID_3148_" d="M261.9 364.2h-14.7a21.4 21.4 0 0 1-21.4-21.4v-35.2c0-11.8 9.6-21.4 21.4-21.4h14.7c11.8 0 21.4 9.6 21.4 21.4v35.2c0 11.9-9.6 21.4-21.4 21.4z" class="st20"/><path id="XMLID_3147_" d="m264.6 364-3.1.2h-14.7a21.4 21.4 0 0 1-21.4-21.4v-35.2c0-11.8 9.6-21.4 21.4-21.4h14.7l3.1.2a21.4 21.4 0 0 0-18.3 21.2v35.2c0 10.8 7.9 19.7 18.3 21.2z" class="st21"/><path id="XMLID_3145_" d="M361.2 187.7h-2.4L265.6 115c-6.4-5-15.3-5-21.6 0l-93.8 72.7h-2c-8 0-14.4 6.5-14.4 14.4v13.8c0 8 6.5 14.4 14.4 14.4h2.6v.3l.2 2v.3l.3 2.2.4 2.4c.6 3.2 1.3 6.3 2.2 9.4l.7 2.3 1.5 4.5.7 2 .2.4.8 2 .8 1.8.3.7.6 1.3.5 1 .6 1.3.3.5 3.2 6 2.4 3.9 2.7 3.9 2.8 3.8 1.4 1.8a25.9 25.9 0 0 0 1.6 1.8l1.4 1.6.1.1 1.6 1.7 1.6 1.7 1.7 1.7a51.4 51.4 0 0 0 7 6.2c2 1.7 4.2 3.3 6.3 4.8l1.5 1 1.8 1.2 1.6 1 .3.2a11.8 11.8 0 0 0 2 1.2l1.5.9.9.5 1.5.8.1.1 1.8.9 1.9.9 1.3.6c5.5 2.5 11.2 4.6 17.1 6.2l1.2.3 1.5.4.7.2 1.8.4.8.1 1.5.3 1.7.3.4.1 1.7.3 1.5.2 1 .1 1.2.1 1.5.2.9.1 1.5.1 2.1.1 1.6.1h4l7.1-.2 1.6-.1 1.1-.1 2.2-.2 1.4-.2.9-.1 1.8-.3 2.6-.4a104.3 104.3 0 0 0 85.1-90.9h3.1c8 0 14.4-6.4 14.4-14.4v-13.8a14.8 14.8 0 0 0-14.7-14.2z" class="st20"/><path id="XMLID_3136_" d="m274.7 321-1.6.3-2.6.4-1.8.3-.9.1-1.4.2-2.2.2-1.1.1-1.6.1a83 83 0 0 1-7.1.2h-4l-1.6-.1-2.1-.1-1.5-.1-.9-.1-1.5-.2-1.2-.1-1-.1-1.5-.2-1.7-.3-.4-.1-1.7-.3-1.5-.3-.8-.2-1.8-.4-.7-.2-1.5-.4-1.2-.3a99.5 99.5 0 0 1-17.1-6.2l-1.3-.6-1.9-.9-1.8-.9-.1-.1-1.5-.8-.9-.5-1.5-.9-.1-.1-1.9-1.1-.3-.2-1.6-1-1.8-1.2-1.5-1a74.7 74.7 0 0 1-6.3-4.8l-1.8-1.5-1.8-1.5-3.4-3.2-1.7-1.7-1.6-1.7-1.6-1.7-.1-.1-1.4-1.7-.1-.1-1.5-1.7-1.5-1.8-2.8-3.8-2.7-3.9-2.4-3.9-3.2-6-.3-.5-.6-1.3-.5-1-.6-1.3-.3-.7-.8-1.8-.8-2.1-.2-.4-.7-2-1.5-4.5-.7-2.3c-.9-3.1-1.6-6.2-2.2-9.4l-.4-2.4-.3-2.2v-.3a15 15 0 0 1-.2-2v-.3h-2.6c-8 0-14.4-6.5-14.4-14.4v-13.8c0-8 6.5-14.4 14.4-14.4h2l19.9-15.5c2.1 72.4 46.1 132.5 104.9 148.8z" class="st21"/><g id="XMLID_3131_"><path id="XMLID_3135_" d="M170.1 167.8v4.4l-19.9 15.5h-2c-8 0-14.4 6.4-14.4 14.4v-40.9A120.5 120.5 0 0 1 221 45.1a167.5 167.5 0 0 0-50.9 122.7z" class="st96"/><path id="XMLID_3133_" d="m175 286.1-1.5-1.7-1.4-1.8-2.8-3.8-2.7-3.9-2.4-3.9-3.2-6-.3-.5-.6-1.3-.5-1-.6-1.3-.3-.7-.8-1.8-.8-2-.2-.4-.7-2-1.5-4.5-.7-2.3c-.9-3.1-1.6-6.2-2.2-9.4l-.4-2.4-.3-2.2v-.3a15 15 0 0 1-.2-2v-.3h-2.6c-8 0-14.4-6.4-14.4-14.4v7.5a70 70 0 0 0 42.7 64.4l-1.6-2z" class="st96"/></g><path id="XMLID_3127_" d="M260.8 234.9h-12.9a7.6 7.6 0 0 1-7.7-7.7c0-4.3 3.4-7.7 7.7-7.7h12.9c4.3 0 7.7 3.4 7.7 7.7 0 4.2-3.5 7.7-7.7 7.7z" class="st21"/><path id="XMLID_3124_" d="M244.7 259.2a14.2 14.2 0 0 0 20 0" class="st71"/><path id="XMLID_3123_" d="M244.7 275.3h19.9" class="st71"/><path id="XMLID_3122_" fill="#1b305c" d="M303.7 160.3a40.5 40.5 0 0 0-39.8 33h-20.8a40.5 40.5 0 1 0 0 15h20.8a40.5 40.5 0 1 0 39.8-48z"/><circle id="XMLID_3106_" cx="203.4" cy="200.8" r="30.8" class="st235"/><circle id="XMLID_3104_" cx="303.7" cy="200.8" r="30.8" class="st235"/><circle id="XMLID_3101_" cx="254.6" cy="420.7" r="9.9" class="st16"/><circle id="XMLID_3087_" cx="254.6" cy="451.2" r="9.9" class="st16"/><circle id="XMLID_3086_" cx="254.6" cy="481.7" r="9.9" class="st16"/><path id="XMLID_3084_" d="M313.7 204.2a14.2 14.2 0 0 0-20 0" class="st71"/><path id="XMLID_3081_" d="M214.3 204.2a14.2 14.2 0 0 0-20 0" class="st71"/><path id="XMLID_3177_" fill="#6f4232" d="M194.2 347.1v157.4a256 256 0 0 1-45.6-16V347.1a14 14 0 0 1 1.1-5.4l.6-1.2.7-1.1a16.3 16.3 0 0 1 3.7-3.7l1.1-.7.6-.3 1.2-.5c1.5-.5 3.1-.8 4.8-.8H181c6.7.3 12.1 5.3 13 11.8v.4c.2.4.2 1 .2 1.5z"/><path id="XMLID_2623_" fill="#4c3328" d="M181.1 333.3c-6.6.3-12 5.4-12.9 11.8l-.1 1.9v149.4a233 233 0 0 1-19.4-8V347.1a14 14 0 0 1 1.1-5.4l.6-1.2.7-1.1a16.3 16.3 0 0 1 3.7-3.7l1.1-.7.6-.3 1.2-.5c1.5-.5 3.1-.8 4.8-.8h18l.6-.1z"/><path id="XMLID_3070_" d="M455.3 379.3h-54.7v-32.7a27.3 27.3 0 1 1 54.6 0v32.7z" class="st20"/><path id="XMLID_3069_" d="M436 320.5a27.2 27.2 0 0 0-19.3 26.1v32.7h-16v-32.7a27.3 27.3 0 0 1 35.3-26.1z" class="st21"/></g></g></svg>