<svg xmlns="http://www.w3.org/2000/svg" xml:space="preserve" width="512" height="512">
  <circle cx="256" cy="256" r="256" fill="#1B9BAA"/>
  <path d="M510.9 280 330.8 100h-75v412h.2a256 256 0 0 0 254.9-232z" opacity=".1"/>
  <path fill="#FFD0AE" d="M349.5 360.2c-74.4 0-57.8-36.5-62.8-73H225c-5 36.5 11.5 73-63 73-47.5 0-63.7 20.8-63.7 66.7v30.9c43.4 34 98 54.2 157.5 54.2 59.4 0 114.1-20.2 157.5-54.2v-31c0-45.8-16.2-66.6-63.8-66.6z"/>
  <path d="M288 308.3c-.2-6.2-.5-12.7-1.3-19.2H225c-1 6.5-1.1 12.9-1.3 19.1 9 5.8 19.5 9.2 32.2 9.2 12.6 0 23.1-3.4 32-9z" opacity=".1"/>
  <path fill="#9DD6FF" d="M349.5 360.2c-9.7 0-17.8-.6-24.7-1.8l-69 7.5-69-7.5c-6.9 1.2-15 1.8-24.7 1.8-47.6 0-63.8 20.8-63.8 66.7v30.9c43.4 34 98 54.2 157.5 54.2 59.4 0 114.1-20.2 157.5-54.2v-31c0-45.8-16.2-66.6-63.8-66.6z"/>
  <path fill="#242F41" d="M288 366.4h-63.3l21.9 28.8-5.9 116.3a260.5 260.5 0 0 0 31.2 0L266 395.2l22-28.8z"/>
  <path d="M246.6 395.2H266s-4.9 1.7-9.7 1.7-9.7-1.7-9.7-1.7z" opacity=".2"/>
  <path fill="#9DD6FF" d="M221.3 332.2h-4.8l-29.9 25.9 32.1 45.5 37.1-37.7zm69.1 0h4.7l30 25.9-32.2 45.5-37.1-37.7z"/>
  <ellipse cx="181" cy="223.4" fill="#FFD0AE" rx="13.8" ry="16.3"/>
  <ellipse cx="330.8" cy="223.4" fill="#FFD0AE" rx="13.8" ry="16.3"/>
  <path fill="#FFD0AE" d="M269.6 106.7h-27.4c-36.1 0-65.4 42.3-65.4 78.4 0 0 2.1 126.8 79 126.8S335 185 335 185c0-36.1-29.2-78.4-65.3-78.4z"/>
  <path d="M330.3 188c-3.2-16.2-25.3-23.2-33.3-58.6-17.2 50.7-103.4 52.3-111 58.6-5 4.2-5.3 13.5-5 19.3.4-4.8 1.7-9.9 5-12.7 7.6-6.4 93.8-8 111-58.6 8 35.4 30.1 42.4 33.3 58.6.7 3.7 1 7 1.2 10 .3-4 .1-9.6-1.2-16.6z" opacity=".1"/>
  <path fill="#071A26" d="M337.6 209.3C349.2 191.8 362.7 84 297 86.7c-58-49.6-162.3 16.6-122.8 122.6l7.4 4.7s-3.1-17.9 4.4-24.2c7.6-6.4 93.8-8 111-58.7 8 35.5 30.1 42.5 33.3 58.7a47 47 0 0 1-.2 24.2l7.5-4.7z"/>
  <path d="m218.7 407.6 37.1-38.7 37 38.7L328 359l-3.2-.5-32 45.2-37-37.7-37 37.7-32-45.2-3.2.5 35.1 48.7z" opacity=".1"/>
  <path fill="#EDC36A" d="M98.3 419v30.8h20c0-17-9-30.8-20-30.8z"/>
  <path fill="#EFF0F0" d="M98.3 421v26.8h17.3c0-14.8-7.7-26.8-17.3-26.8z"/>
  <path fill="#242F41" d="M135.7 356.6h50.1v6.4h-50.1zm190.1 0h50.1v6.4h-50.1zM301 441h48.7v10H301z"/>
</svg>