<svg xmlns="http://www.w3.org/2000/svg" width="512" height="512" xml:space="preserve"><circle cx="256" cy="256" r="256" fill="#1B9BAA"/><path d="M512 256c0-8.2-.4-16.2-1.1-24.2L355 76h-99.5v436h.4a256 256 0 0 0 256-256z" opacity=".1"/><path fill="#FFF" d="M380 124.9c0 36.8-55.4 66.7-123.8 66.7s-123.9-29.9-123.9-66.7 55.5-90.7 123.9-90.7S380 88.1 380 124.9z"/><path fill="#FFD0AE" d="M349.8 360.2c-74.4 0-57.8-36.5-62.9-73h-61.6c-5.1 36.5 11.5 73-63 73-47.5 0-63.7 20.8-63.7 66.7v30.9c43.4 34 98 54.2 157.5 54.2 59.4 0 114.1-20.2 157.5-54.2v-31c0-45.8-16.2-66.6-63.8-66.6z"/><path d="M288.2 308.3c-.1-6.2-.4-12.7-1.3-19.2h-61.6c-1 6.5-1.2 12.9-1.3 19.1 9 5.8 19.5 9.2 32.2 9.2 12.6 0 23.1-3.4 32-9z" opacity=".1"/><path fill="#F9F9F9" d="M349.8 360.2c-9.7 0-17.8-.6-24.7-1.8l-69 7.5-69-7.5c-6.9 1.2-15 1.8-24.7 1.8-47.6 0-63.8 20.8-63.8 66.7v30.9c43.4 34 98 54.2 157.5 54.2 59.4 0 114.1-20.2 157.5-54.2v-31c0-45.8-16.2-66.6-63.8-66.6z"/><path fill="#414042" d="M287.7 366.4h-63.2l21.9 28.8-5.9 116.3a260.5 260.5 0 0 0 31.2 0l-5.9-116.3 22-28.8z"/><path d="M246.4 395.2h19.4s-5 1.7-9.7 1.7c-4.8 0-9.7-1.7-9.7-1.7z" opacity=".2"/><path fill="#FFF" d="M221.6 332.2h-4.8l-29.9 25.9 32.1 45.5 37.1-37.7z"/><path fill="#FFF" d="M290.7 332.2h4.7l29.9 25.9-32.1 45.5-37.1-37.7z"/><ellipse cx="181.3" cy="223.4" fill="#FFD0AE" rx="13.8" ry="16.3"/><ellipse cx="331.1" cy="223.4" fill="#FFD0AE" rx="13.8" ry="16.3"/><path fill="#FFD0AE" d="M269.9 106.7h-27.5c-36 0-65.3 42.3-65.3 78.4 0 0 2.1 126.8 79 126.8 77 0 79.1-126.8 79.1-126.8 0-36.1-29.2-78.4-65.3-78.4z"/><path fill="#919396" d="M337.9 209.3C349.5 191.8 363 84 297.3 86.7c-62.4-41.5-162.9-.2-122.9 122.6l7.5 4.7s-1-12.2 4.4-24.2 19.8-22.5 23.9-48 76.3 21 87.1-10.7c8 35.5 30.1 42.5 33.2 58.7a47 47 0 0 1 0 24.2l7.4-4.7z"/><path d="M330.5 189.8c-3-16.2-25.2-23.2-33.2-58.7-10.8 31.7-83-14.8-87.1 10.7s-18.5 36-23.9 48c-5.4 12-4.4 24.2-4.4 24.2.3-4.7 1.3-11.3 4.4-18.2 5.4-12 19.8-22.5 23.9-48s76.3 21 87.1-10.7c8 35.5 30.1 42.5 33.2 58.7.8 3.8 1.2 7.2 1.3 10.1.2-3.9 0-9.3-1.3-16.1zM219 407.6l37.1-38.7 37 38.7 35.2-48.7-3.2-.5-32 45.2-37-37.7-37 37.7-32-45.2-3.2.5 35.1 48.7z" opacity=".1"/><path fill="#919396" d="M256.2 259.2c-15.8 0-28.6 6.4-28.6 14.3h57.1c0-7.9-12.7-14.3-28.5-14.3z"/><path fill="#FFC940" d="M317.3 450h40.2v5.1h-40.2z"/><path fill="#242F41" d="M135.6 356.6h50.1v6.4h-50.1zm190.1 0h50.1v6.4h-50.1z"/><path fill="#FFC940" d="M141 356.6h6.3v6.3H141zm10 0h6.3v6.3H151zm203.2 0h6.3v6.3h-6.3zm10 0h6.3v6.3h-6.3z"/><path fill="#414042" d="M172 130.4v17.9c0 14.8 28.9 26.8 41.6 26.8h85.1c12.8 0 41.7-12 41.7-26.8v-18H172z"/><path fill="#EFF0F0" d="M256.2 70c-79.3 0-93.5 35.5-93.5 56.5v15.8h187v-15.8c0-21-14.3-56.5-93.5-56.5z"/><path fill="#414042" d="M256.4 110c-72.9 0-93.7 20.4-93.7 20.4v17.9h186.9v-18S329.2 110 256.4 110z"/><path fill="#FFC940" d="M256.4 120.5c-72.9 0-93.7 20.4-93.7 20.4v7.4s20.8-20.4 93.7-20.4 93.2 20.4 93.2 20.4v-7.4s-20.4-20.4-93.2-20.4z"/><ellipse cx="256.2" cy="98.2" fill="#FFC940" rx="30.2" ry="22.2"/><ellipse cx="256.2" cy="98.2" fill="#414042" rx="24.8" ry="18.2"/></svg>