<svg xmlns="http://www.w3.org/2000/svg" xmlns:xlink="http://www.w3.org/1999/xlink" viewBox="0 0 512 512" xml:space="preserve"><path fill="#704d70" d="M512 256a256 256 0 1 1-512 0 256 256 0 0 1 512 0z"/><defs><path id="a" d="M0 256a256 256 0 1 1 512 0 256 256 0 0 1-512 0z"/></defs><clipPath id="b"><use overflow="visible" xlink:href="#a"/></clipPath><g clip-path="url(#b)"><path fill="#f0b39c" d="M192.3 247.7c6.5 14.4 3 28.5-7.8 31.4-10.9 2.9-24.9-6.5-31.4-21-6.5-14.4-3-28.5 7.8-31.4 10.8-2.9 24.9 6.5 31.4 21zm131.7-.3c-6.4 14.5-2.9 28.6 8 31.4 10.8 2.9 24.8-6.5 31.3-21 6.4-14.5 2.8-28.6-8-31.4-10.8-2.9-24.8 6.6-31.3 21zm-26.3 122.2a37 37 0 0 1-37 37.2h-4.5a37 37 0 0 1-37.1-37l-.2-95.5a37 37 0 0 1 37-37.2h4.5a37 37 0 0 1 37.1 37l.2 95.5z"/><path fill="#ffdbc5" d="M346.5 253.1c0 72.5-83.4 110.2-140.1 65.1-67.8-53.7-50-208.4 51.5-208.6a89.9 89.9 0 0 1 88.5 91V253z"/><path fill="#3d2a3d" d="m175.5 87.7 2.9 22.8-23.7-.7 15.9 26.2 31.4-25.4z"/><defs><path id="c" d="M346.5 253.1c0 72.5-83.4 110.2-140.1 65.1-67.8-53.7-50-208.4 51.5-208.6a89.9 89.9 0 0 1 88.5 91V253z"/></defs><clipPath id="d"><use overflow="visible" xlink:href="#c"/></clipPath><circle cx="324.8" cy="295" r="25" fill="#f0b39c" clip-path="url(#d)"/><circle cx="187" cy="295" r="25" fill="#f0b39c" clip-path="url(#d)"/><path fill="#3d2a3d" d="M207.3 222.4c5-8.4 17.7-10.5 26.3-7.3 7.8 3 11.2-9.7 3.4-12.6-14-5.2-33.2.2-41 13.3-4.2 7.3 7 13.8 11.3 6.6zm103.5 0c-5-8.4-17.7-10.5-26.3-7.3-7.8 3-11.2-9.7-3.4-12.6 14-5.2 33.2.2 41 13.3 4.2 7.3-7 13.8-11.3 6.6z"/><path fill="#f0b39c" d="M272.3 250a15 15 0 0 1-15.2 14.2 15 15 0 0 1-14.5-10.8c-.5 1.5-.8 3-.8 4.6a16.4 16.4 0 0 0 32.7 0c0-3-.8-5.6-2.2-8z"/><g fill="#3d2a3d"><circle cx="225.3" cy="240.1" r="9.9"/><circle cx="291" cy="240.1" r="9.9"/></g><path fill="#f0b39c" d="M441.6 516v-.8c0-51.2-19.2-100.9-42.6-110.3l-99.7-40.2a132 132 0 0 0-85.2 0l-101 40.3c-23.5 9.4-42.7 59-42.7 110.2v.8h371.2z"/><path fill="#9ec853" d="M441.5 515.2c0-51.2-19.1-100.9-42.5-110.3l-79.3-32a70 70 0 0 1-127.3.4L113 405c-23.4 9.4-42.5 59-42.5 110.2l-.1.8h371.2v-.8z"/></g><g fill="#3d2a3d" clip-path="url(#b)"><path d="M339.1 238.7h11.3l.5-74.8-23.3-12.3zm-177.1-.3 11.4.1 12.7-86.9-24.1 12z"/><path d="M219.7 106h99.6v74.5H162v-16.8a57.7 57.7 0 0 1 57.7-57.7z"/><path d="M216.5 106h156.3v16.8a57.7 57.7 0 0 1-57.7 57.7h-98.6V106z"/></g><g clip-path="url(#b)"><path fill="#a91935" d="M230.7 286v.5a30.6 30.6 0 0 0 61.3 0v-.5h-61.3z"/><path fill="#fff" d="M240.5 286v2.6c0 5.3 4.3 9.6 9.6 9.6h31.5c5.3 0 9.6-4.3 9.6-9.6V286h-50.7z"/></g><g fill="#3d2a3d" clip-path="url(#b)"><path d="M326.2 216h-41c-8.7 0-15.8 7-15.8 15.8v17.7c0 8.7 7 15.8 15.7 15.8h41.1c8.7 0 15.8-7 15.8-15.8v-17.7c0-8.7-7-15.8-15.8-15.8zm8.7 33.5c0 4.8-3.9 8.7-8.7 8.7h-41a8.7 8.7 0 0 1-8.7-8.7v-17.7c0-4.8 3.9-8.7 8.6-8.7h41.1c4.8 0 8.7 3.9 8.7 8.7v17.7zm-96-33.5h-41.1c-8.7 0-15.8 7-15.8 15.8v17.7c0 8.7 7 15.8 15.8 15.8h41c8.8 0 15.8-7 15.8-15.8v-17.7c0-8.7-7-15.8-15.7-15.8zm8.6 33.5c0 4.8-3.9 8.7-8.6 8.7h-41.1a8.7 8.7 0 0 1-8.7-8.7v-17.7c0-4.8 4-8.7 8.7-8.7h41c4.8 0 8.7 3.9 8.7 8.7v17.7z"/><path d="M250.9 236.6h22.3v8.1h-22.3z"/></g></svg>