<svg xmlns="http://www.w3.org/2000/svg" xml:space="preserve" viewBox="0 0 512 512">
  <style>
    .st0{fill:#e9b12d}.st15{fill:#e39123}.st16{fill:#fff}.st23{fill:#1b305c}.st36{fill:#4c3328}.st51{fill:#6f4232}.st253{fill:#d1afa3}.st254{fill:#bc968b}.st255{fill:none;stroke:#bc968b;stroke-width:10;stroke-linecap:round;stroke-miterlimit:10}.st257{fill:#c0ebe0}
  </style>
  <g id="BULINE">
    <circle id="XMLID_3369_" cx="256" cy="256" r="256" fill="#cc6b5c"/>
  </g>
  <g id="Icons">
    <g id="XMLID_3370_">
      <path id="XMLID_3588_" fill="#993939" d="M507 308a256 256 0 0 1-134 176 247 247 0 0 1-45 18l-6 1-4 2-11 2-19 3v-31H157v13l-8-3c-12-6-23-12-34-20h-1A255 255 0 0 1 0 260l2-1h27v-63c0-6 5-10 10-10h65c6 0 10 4 10 10v63h26v-22c0-4 1-8 4-11s7-5 12-5h139c3 0 7 1 9 4 4 2 6 7 6 12v19h67c5 0 10 4 10 10v42h17V177c0-5 5-10 10-10h65c6 0 11 5 11 10v132h17z"/>
      <g id="XMLID_3371_">
        <path id="XMLID_3487_" d="M272 381h-21c-12 0-22-10-22-22v-30c0-13 10-23 22-23h21c12 0 22 10 22 22v31c0 12-10 22-22 22z" class="st253"/>
        <path id="XMLID_3486_" d="m273 380-4 1h-16c-14 0-25-10-25-21v-33c0-12 11-21 25-21h16l4 1c-12 1-21 10-21 20v33c0 11 9 19 21 20z" class="st254"/>
        <path id="XMLID_3569_" d="M408 409v53a247 247 0 0 1-80 40l-6 1-4 2-11 2-19 3h-2a192 192 0 0 1-30 2c-13 0-26-1-38-3l-15-3-8-1a216 216 0 0 1-26-8l-12-5-7-3c-13-6-24-12-35-20h-1v-60a52 52 0 0 1 52-52h191a24 24 0 0 1 4 1h5l1 1h3l1 1h1l3 1h1l2 1 1 1 2 1h1l3 2 2 1 2 2 1 1 1 1 1 1h1l1 2 2 2 1 2 2 2 1 1 1 2 1 2 1 1v2h1v2h1v1l1 2v2l1 1v5l1 1v7z" class="st16"/>
        <path id="XMLID_3519_" fill="#cfcfcf" d="M208 358a47 47 0 0 0-13 1l-2 1a52 52 0 0 0-36 49v83l-8-3-34-19v-61a51 51 0 0 1 51-51h42z"/>
        <path id="XMLID_3485_" d="M218 322z" class="st253"/>
        <path id="XMLID_3484_" d="M166 282z" class="st253"/>
        <path id="XMLID_3483_" d="m203 315-1-1 1 1z" class="st253"/>
        <path id="XMLID_3482_" d="M229 326v-1 1z" class="st253"/>
        <path id="XMLID_3481_" d="M215 321v-1 1z" class="st253"/>
        <path id="XMLID_3480_" d="m169 286-1-1 1 1z" class="st253"/>
        <path id="XMLID_3479_" d="m168 284-2-2 2 2z" class="st253"/>
        <path id="XMLID_3478_" d="m155 264-1-2 1 2z" class="st253"/>
        <path id="XMLID_3477_" d="M189 305h-1 1z" class="st253"/>
        <path id="XMLID_3476_" d="m154 262-1-2 1 2z" class="st253"/>
        <path id="XMLID_3475_" d="M226 325z" class="st253"/>
        <path id="XMLID_3474_" d="m157 267-1-2 1 2z" class="st253"/>
        <path id="XMLID_3473_" d="m158 269-1-2 1 2z" class="st253"/>
        <path id="XMLID_3472_" d="m178 296-1-1 1 1z" class="st253"/>
        <path id="XMLID_3471_" d="m176 294-1-1 1 1z" class="st253"/>
        <path id="XMLID_3470_" d="m184 301-1-1 1 1z" class="st253"/>
        <path id="XMLID_3469_" d="M208 317h-1 1z" class="st253"/>
        <path id="XMLID_3468_" d="m180 298-1-1 1 1z" class="st253"/>
        <path id="XMLID_3467_" d="m205 316-1-1 1 1z" class="st253"/>
        <path id="XMLID_3466_" d="m173 290-1-1 1 1z" class="st253"/>
        <path id="XMLID_3465_" d="m213 320-1-1 1 1z" class="st253"/>
        <path id="XMLID_3464_" d="M171 288z" class="st253"/>
        <path id="XMLID_3463_" d="M210 318h-1 1z" class="st253"/>
        <path id="XMLID_3462_" d="m186 303-1-1 1 1z" class="st253"/>
        <path id="XMLID_3461_" d="m175 292-2-1 2 1z" class="st253"/>
        <path id="XMLID_3460_" d="M241 328h-1 1z" class="st253"/>
        <path id="XMLID_3459_" d="m194 309-1-1 1 1z" class="st253"/>
        <path id="XMLID_3458_" d="m238 328-1-1 1 1z" class="st253"/>
        <path id="XMLID_3457_" d="M196 310h-1 1z" class="st253"/>
        <path id="XMLID_3456_" d="M243 329z" class="st253"/>
        <path id="XMLID_3455_" d="M201 313h-1 1z" class="st253"/>
        <path id="XMLID_3454_" d="m182 300-1-1 1 1z" class="st253"/>
        <path id="XMLID_3453_" d="m198 312-1-1 1 1z" class="st253"/>
        <path id="XMLID_3451_" d="M151 254z" class="st253"/>
        <path id="XMLID_3450_" d="M232 326h-1 1z" class="st253"/>
        <path id="XMLID_3449_" d="M191 307h-1 1z" class="st253"/>
        <path id="XMLID_3448_" d="m152 257-1-2 1 2z" class="st253"/>
        <path id="XMLID_3447_" d="M235 327h-1 1z" class="st253"/>
        <path id="XMLID_3446_" d="m153 259-1-2 1 2z" class="st253"/>
        <path id="XMLID_3445_" d="M383 178h-5v-19c0-38-18-73-47-94-8 13-29 36-80 48-6 2-11-4-8-10 4-10 10-25 9-38 0-7-10-10-13-3-5 9-12 19-24 26-2 2-4 2-6 1-15 20-24 44-24 70v53c0 58 42 106 97 116 50-9 90-51 96-102h3c9 0 16-8 16-17v-15c0-8-6-15-14-16z" class="st253"/>
        <path id="XMLID_3444_" d="m202 314-1-1 1 1z" class="st254"/>
        <path id="XMLID_3443_" d="m200 313-2-1 2 1z" class="st254"/>
        <path id="XMLID_3442_" d="M204 315h-1 1z" class="st254"/>
        <path id="XMLID_3441_" d="m234 327-2-1 2 1z" class="st254"/>
        <path id="XMLID_3440_" d="M237 327h-2 2z" class="st254"/>
        <path id="XMLID_3439_" d="M231 326h-2 2z" class="st254"/>
        <path id="XMLID_3438_" d="M240 328h-2 2z" class="st254"/>
        <path id="XMLID_3437_" d="M245 329h-2 2z" class="st254"/>
        <path id="XMLID_3436_" d="m207 317-2-1 2 1z" class="st254"/>
        <path id="XMLID_3435_" d="M229 325h-3 3z" class="st254"/>
        <path id="XMLID_3434_" d="m243 329-2-1 2 1z" class="st254"/>
        <path id="XMLID_3433_" d="m226 325-8-3 8 3z" class="st254"/>
        <path id="XMLID_3432_" d="M212 319h-2 2z" class="st254"/>
        <path id="XMLID_3431_" d="m209 318-1-1 1 1z" class="st254"/>
        <path id="XMLID_3430_" d="M215 320z" class="st254"/>
        <path id="XMLID_3429_" d="m218 322-3-1 3 1z" class="st254"/>
        <path id="XMLID_3428_" d="M153 260v-1 1z" class="st254"/>
        <path id="XMLID_3427_" d="m197 311-1-1 1 1z" class="st254"/>
        <path id="XMLID_3426_" d="M151 255v-1 1z" class="st254"/>
        <path id="XMLID_3425_" d="M157 267h-1 1z" class="st254"/>
        <path id="XMLID_3424_" d="M154 262z" class="st254"/>
        <path id="XMLID_3423_" d="m156 265-1-1 1 1z" class="st254"/>
        <path id="XMLID_3422_" d="M158 269z" class="st254"/>
        <path id="XMLID_3420_" d="M152 257z" class="st254"/>
        <path id="XMLID_3418_" d="M185 302z" class="st254"/>
        <path id="XMLID_3417_" d="m183 301-1-1 1 1z" class="st254"/>
        <path id="XMLID_3416_" d="m188 305-2-2 2 2z" class="st254"/>
        <path id="XMLID_3415_" d="M167 282h-1 1z" class="st254"/>
        <path id="XMLID_3414_" d="m181 299-1-1 1 1z" class="st254"/>
        <path id="XMLID_3413_" d="m193 308-2-1 2 1z" class="st254"/>
        <path id="XMLID_3412_" d="m191 307-2-2 2 2z" class="st254"/>
        <path id="XMLID_3411_" d="m195 310-1-1 1 1z" class="st254"/>
        <path id="XMLID_3410_" d="m170 287-1-1 1 1z" class="st254"/>
        <path id="XMLID_3409_" d="M168 285v-1 1z" class="st254"/>
        <path id="XMLID_3408_" d="m179 297-1-1 1 1z" class="st254"/>
        <path id="XMLID_3407_" d="m172 289-1-1 1 1z" class="st254"/>
        <path id="XMLID_3406_" d="m177 295-1-1 1 1z" class="st254"/>
        <path id="XMLID_3405_" d="M173 291v-1 1z" class="st254"/>
        <path id="XMLID_3404_" d="m175 293-1-1 1 1z" class="st254"/>
        <path id="XMLID_3403_" d="M206 55z" class="st254"/>
        <path id="XMLID_3402_" d="M185 212v-53c0-26 9-50 24-70-3-1-6-5-5-9 2-8 4-17 2-25-37 20-63 59-63 104v19h-6c-7 2-12 8-12 16v15c0 9 7 17 16 17h3a116 116 0 0 0 7 29l1 2 1 2v1l1 2 1 2 1 1 1 2 1 2 8 13v1l2 1v1l1 1 1 1 1 1v1l2 1v1l1 1 1 1 1 1 1 1 1 1 1 1 1 1 1 1 1 1 1 1 1 1 1 1h1l2 2h1l1 2h1l2 1v1l2 1 1 1h1l1 1 1 1h1l2 1 1 1 1 1h1l2 1h1l1 1 1 1h2l1 1h2v1l2 1h1a96 96 0 0 0 11 3l2 1h1l2 1h3l1 1h5l2 1h7l2 1h12l5-1h6l4-1h1c-55-10-97-58-97-116z" class="st254"/>
        <path id="XMLID_3399_" d="M293 12h-57a90 90 0 0 0-36 7l-4 1-3 2-2 1-3 1-3 2-4 3-5 3-1 1c-25 20-41 52-40 87l2 58h6v-29l1-2v-6l1-2v-4l1-1v-3l1-1v-3l1-1v-3l1-1v-2l1-2v-1l1-1v-2l1-1v-1h1v-2l1-1v-2h1v-1l1-1v-1h1v-2l1-1v-1h1v-1h1v-1l1-2v-1h1l1-1v-1l1-1 1-2 1-1 1-1v-1l1-1 1-1v-1h1v-1h1v-1l1-1 1-1h1v-1l1-1 1-1 1-1h1a17 17 0 0 1 1-2h1v-1h1l1-1v-1h1l1-1 1-1h1v-1l1-1h1l1-1 2-1 1-1 1-1 1-1 2-1h1v-1h2v-1h2v-1h1l1-1h1v-1 1l1 1v8-1 3l-1 2v5l-2 5v4h1v2h1v1h1v1h1l1 1h5v-1h1l1-1h1l1-1 1-1 1-1h1l1-1h1v-1h1l2-2 1-1v-1l1-1h1l1-1v-1l1-1 1-1 1-2 1-1v-1l1-1 1-1 3-5c4-7 13-4 13 3v9l-1 2v2l-1 4v1l-1 3v2l-1 2-2 5v1l-2 4-1 2v2l-1 1 1 4 1 1 1 1v1h1l1 1h4l3-1h2l2-1h3l4-2h2l2-1h1l1-1h2l4-2 2-1h1l2-1h1l2-1 1-1h2v-1l2-1h2l3-2 2-1 1-1h1l1-1 3-2 2-1 2-2h1l1-1 2-1 1-1 1-1h1v-1h1l1-1 1-1v-1h1v-1h1l1-1 3-3 1-1 2-2v-1l1-1 1-1 3-4v-1l1 1 2 1 1 1 6 5 1 1 1 1 1 1 2 2 1 2 2 2 2 2 1 1 1 2 2 2 2 2 2 4 2 3 3 5 1 3 1 1v1l1 1 1 3 1 2 1 1v2l1 1 1 2v2l1 2 1 3v1l1 4v1l1 2v3l1 2v5l1 1v32h5l2-58c4-56-37-103-90-108z" class="st51"/>
        <path id="XMLID_3397_" d="M293 12h-63a87 87 0 0 0-30 7l-4 1-3 2-2 1-3 1-3 2-4 3-5 3-1 1c-25 20-41 52-40 87l2 58h6v-18a118 118 0 0 1 63-104c2 7 0 17-2 25 0 2 0 4 2 6 11-40 46-71 87-75z" class="st36"/>
        <path id="XMLID_3396_" d="M269 231h-14c-5 0-9-4-9-9s4-9 9-9h14c5 0 9 4 9 9s-4 9-9 9z" class="st254"/>
        <path id="XMLID_3395_" d="M239 243a23 23 0 1 0 45 0" class="st255"/>
        <path id="XMLID_3394_" d="M248 284h27" class="st255"/>
        <path id="XMLID_3393_" fill="#814c3c" d="M330 33c8 4 21 14 28 25 1 1 0 2-1 2h-7l-2 2v8c0 1-2 2-3 1-5-4-16-12-27-15-2 0-2-2 0-3l10-4 1-1c0-3 0-9-2-13 0-1 2-3 3-2z"/>
        <g id="XMLID_3389_">
          <path id="XMLID_3392_" d="M315 140c-21 0-39 15-42 35h-22a43 43 0 1 0 0 16h22a43 43 0 1 0 42-51z" class="st23"/>
          <circle id="XMLID_3391_" cx="208.7" cy="183.1" r="32.5" class="st257"/>
          <circle id="XMLID_3390_" cx="314.7" cy="183.1" r="32.5" class="st257"/>
        </g>
        <path id="XMLID_3524_" d="M203 358v148l-8-1a216 216 0 0 1-26-8l-12-5-8-3c-12-6-23-12-34-20h-1v-60a52 52 0 0 1 52-52h37z" class="st0"/>
        <path id="XMLID_3530_" d="M218 362v147l-15-3-8-1-14-4V362l1-5v1c1-5 3-9 7-11a18 18 0 0 1 24 2c2 2 4 5 4 8l1 5z" class="st15"/>
        <path id="XMLID_3508_" d="M430 443a236 236 0 0 1-57 41h-1a247 247 0 0 1-44 18l-6 1V358h46a51 51 0 0 1 43 51v28c7 1 14 3 19 6z" class="st0"/>
        <path id="XMLID_3511_" d="M344 362v134l-16 6-6 1-4 2-11 2V362l1-5 5-8a18 18 0 0 1 31 13z" class="st15"/>
        <circle id="XMLID_3384_" cx="209.8" cy="182.1" r="15.2" class="st23"/>
        <circle id="XMLID_3383_" cx="213.6" cy="177.2" r="6.7" class="st16"/>
        <circle id="XMLID_3382_" cx="315.7" cy="182.1" r="15.2" class="st23"/>
        <circle id="XMLID_3381_" cx="319.6" cy="177.2" r="6.7" class="st16"/>
        <path id="XMLID_3514_" d="M195 361v144a216 216 0 0 1-26-8l-12-5-8-3V360a18 18 0 0 1 1-6l1-1 1-2 1-2 2-2 1-1 1-1h1l5-1h19c2 0 5 1 7 3 3 2 5 6 6 10v4z" class="st51"/>
        <path id="XMLID_3421_" d="M182 344c-7 0-12 6-13 14v139l-12-5-8-3V360a18 18 0 0 1 1-6l1-1 1-2 1-2 2-2 2-1v-1h1l5-1h19z" class="st36"/>
        <path id="XMLID_3528_" fill="#233e76" d="M329 381v118l-1 3-6 1-4 1-10 3-20 3h-2l-11 1h-8c-7 0-13-6-13-13V381a13 13 0 0 1 13-12h49a13 13 0 0 1 13 12z"/>
        <path id="XMLID_3398_" d="m286 510-11 1h-8c-7 0-13-5-13-12V381a13 13 0 0 1 13-12h24c-7 0-12 4-13 11v119c0 5 3 9 8 11z" class="st23"/>
        <path id="XMLID_3376_" d="M304 396h12c2 0 4-2 4-4v-12c0-2-2-4-4-4h-12c-2 0-4 2-4 4v12c0 2 2 4 4 4z" class="st23"/>
        <path id="XMLID_3375_" fill="#a5e3d4" d="M306 392h7c2 0 3-1 3-2v-7c0-2-1-3-3-3h-7c-1 0-2 1-2 3v7l2 2z"/>
        <path id="XMLID_3505_" d="M373 447v37a247 247 0 0 1-45 18l-6 1-4 2-11-4v-1a29 29 0 0 1-11-14l-1-3-1-7v-6l1-1v-2l1-1a29 29 0 0 1 11-15c5-2 10-4 15-4h51z" class="st253"/>
        <path id="XMLID_3400_" d="M373 484a247 247 0 0 1-45 18l-6 1-4 2-10-4-1-1a29 29 0 0 1-11-14l-1-3-1-7v-6l1-1v-2l1-1a29 29 0 0 0 26 18h51z" class="st254"/>
      </g>
    </g>
  </g>
</svg>