<svg xmlns="http://www.w3.org/2000/svg" xml:space="preserve" viewBox="0 0 512 512">
  <path fill="#574865" d="M512 256c0 70.7-28.7 134.7-75 181s-110.3 75-181 75-134.7-28.7-181-75S0 326.7 0 256 28.7 121.3 75 75 185.3 0 256 0s134.7 28.7 181 75 75 110.3 75 181z"/>
  <path fill="#483c56" d="M506 311.1A256.8 256.8 0 0 1 256 512a256.9 256.9 0 0 1-103.3-21.7 256.2 256.2 0 0 1-29.2-15.2A257.2 257.2 0 0 1 11.8 333a92.8 92.8 0 0 1 26.4-23 45.2 45.2 0 0 1 56.2 8.5c3 3 7.6 6.9 13 8s11.7-.7 17.9-8.7c4.4-5.6 10.6-18.9 18.8-28.6s18.5-16.1 31-8a108.8 108.8 0 0 0 16.5 26.9 32.1 32.1 0 0 0 20.8 19.2c2.6.7 5 1 7.1.5s3.8-1.6 4.8-3.9l1-1.9c.3-.6.5-1.3.9-1.9a202.3 202.3 0 0 1 24.4-33.5 100.3 100.3 0 0 1 13.1-11.5 45.9 45.9 0 0 1 9.3-4.7 20 20 0 0 1 12.3-.8c4 1 8 3.6 11.7 7.9l2 2.8 1.8 2.9 2 3.2 2.2 3.2 8.3 12.6 8.2 12.6a36.4 36.4 0 0 0 9 9.3c2.7 2 6 3.6 9.5 3.9s7.2-1 10.6-4.8a18.2 18.2 0 0 0 4.2-8.2c1.3-5.3 4.6-16.6 10-26.5s13.1-18.7 23.3-18.8c0 0 5.8 1.3 12.2 6.8s13.4 15.3 16 32.4a60 60 0 0 0 10.6 26.1c2.4 3 5 5.8 7.7 7.2s5.3 1.6 8-.3c.8-.7 1.6-1.6 2.1-2.5s1-2 1.3-3.2c1.3-6 5.4-23.4 12.3-37.5s16.8-24.8 29.5-17.5a93.6 93.6 0 0 1 18.3 30z"/>
  <path fill="#da896e" d="M384.5 477.5a254.4 254.4 0 0 1-182.1 28.9 256.2 256.2 0 0 1-78.9-31.3l2.5-17 2.4-17a134.8 134.8 0 0 1 2.4-12l.3-1.2.3-1.2a90.3 90.3 0 0 1 4.4-13 119 119 0 0 1 19.3-32.2l.6-.8.7-.7a73.5 73.5 0 0 1 4.7-5v-.2h.1l.5-.5.4-.4.2-.3.3-.2.6-.6.6-.6.3-.3.3-.3.7-.6.7-.6v-.1l.8-.7.7-.6.2-.2.2-.1a52.2 52.2 0 0 1 3.3-2.8l.3-.2.3-.3.7-.5.7-.6.2-.1.1-.1.2-.2.4-.2c.2 0 .2-.2.3-.3l.5-.4.5-.4a10.8 10.8 0 0 1 .9-.6 33 33 0 0 1 2.7-1.9l.8-.5c.2 0 .3-.2.5-.3l.5-.4a28 28 0 0 1 1.2-.7l.4-.3a81 81 0 0 1 2-1.1l1-.7 1.2-.7a9 9 0 0 0 .4-.2 74 74 0 0 1 7.4-3.8l2.5-1.1a107.3 107.3 0 0 1 8.3-3.3l1-.4 1.1-.3 1.4-.5 1.4-.5 2-.7 2.2-.7 3.2-1.2 3.3-1 3.9-1.4 4-1.4a4.2 4.2 0 0 0 2.8-3.9v-39.6h50.5v40.3a4.1 4.1 0 0 0 2.4 3.7l6 2.7 6 2.8 2.5.8 2.5.9.6.2.5.1.7.3.7.2a106.9 106.9 0 0 1 12 5l.4.2.5.3a69 69 0 0 1 2 1l.6.3.6.3a100.8 100.8 0 0 1 15.4 10l1 .7.9.8.3.3.3.2A114.7 114.7 0 0 1 367 402a119.2 119.2 0 0 1 13.2 41.3l2.2 17 2.2 17.2z"/>
  <path fill="#c17a61" d="M262.6 295.4V335a4.3 4.3 0 0 1 0 .5 4.1 4.1 0 0 1-2.8 3.4l-4 1.4-3.9 1.3-3.2 1.1-3.2 1.2-2.2.7-2 .7h-.1l-2.4.9-2.4.8a114 114 0 0 0-18.7 8.4l-.6.4-.7.4a77.4 77.4 0 0 0-7 4.4l-.5.4-.4.3a16 16 0 0 0-1.6 1.1 44.7 44.7 0 0 0-3.3 2.5l-.8.7a147 147 0 0 0-9.4 8.3 113.1 113.1 0 0 0-6.3 6.8l-.7.8a62.1 62.1 0 0 0-1.5 1.8 41.6 41.6 0 0 0-2.8 3.7 101.8 101.8 0 0 0-9.5 14.9 119 119 0 0 0-10.2 26l-.3 1.2-.1.6-.1.6-.1.3v.2a40.5 40.5 0 0 0-.6 2.5v.2l-.1.2-.2.7-.1.7a138 138 0 0 0-1 6l-3.6 24.6-3.6 24.6a256.2 256.2 0 0 1-29-15.2h-.1l2.5-17 2.4-17a134.8 134.8 0 0 1 2.4-12l.3-1.2.3-1.2a90.3 90.3 0 0 1 4.4-13 119 119 0 0 1 19.3-32.2l.6-.8.7-.7a73.5 73.5 0 0 1 4.7-5v-.2h.1l.5-.5.4-.4.2-.3.3-.2.6-.6.6-.6.3-.3.4-.3.6-.6.7-.6v-.1l.8-.7.7-.6.2-.2.2-.1a52.2 52.2 0 0 1 3.3-2.8l.3-.2.3-.3.7-.5.7-.6.2-.1.1-.1.2-.2.4-.2c.2 0 .2-.2.3-.3l.5-.4.5-.4a10.8 10.8 0 0 1 .9-.6 33 33 0 0 1 2.7-1.9l.8-.5c.2 0 .3-.2.5-.3l.5-.4a28 28 0 0 1 1.2-.7l.4-.3a81 81 0 0 1 2-1.1l1-.7 1.2-.7a9 9 0 0 0 .4-.2 74 74 0 0 1 7.4-3.8l2.5-1.1a107.3 107.3 0 0 1 8.3-3.3l1-.4 1.1-.3 1.4-.5 1.4-.5 2-.7 2.2-.7 3.2-1.2 3.3-1 3.9-1.4 4-1.4a4.2 4.2 0 0 0 2.8-3.9v-39.6h31.3z"/>
  <path fill="#b2705a" d="M281.6 305.1h-50.3v21.3a74.3 74.3 0 0 0 50.3 0v-21.3z"/>
  <path fill="#da896e" d="M266.4 85.4h-22.2a74.2 74.2 0 0 0-54.2 23.8 83.6 83.6 0 0 0-22.4 57.5v59.6c0 22.3 8.8 37 21 49 12 11.9 27.3 21.1 40.2 32.4a40 40 0 0 0 53 0c12.9-11.3 28.2-20.5 40.3-32.5a65 65 0 0 0 20.9-48.9v-59.6c0-22.5-8.6-42.8-22.4-57.5a74.2 74.2 0 0 0-54.2-23.8z"/>
  <path fill="#c17a61" d="M265 307.7a42.2 42.2 0 0 0 8.4 5.7 39.4 39.4 0 0 1-44.6-5.7c-12.9-11.3-28.2-20.5-40.3-32.5-12-12-21-26.6-21-48.9v-59.6c0-22.5 8.7-42.8 22.5-57.5a74.2 74.2 0 0 1 54.2-23.8h22.2a71.3 71.3 0 0 1 7 .3 74.9 74.9 0 0 0-49.5 26 83.8 83.8 0 0 0-20.2 55v59.6a65 65 0 0 0 21 49c12 11.9 27.3 21.1 40.2 32.4z"/>
  <path fill="#c17a61" d="M150 213.8a17.5 17.5 0 0 0 30 12.4 17.5 17.5 0 0 0-12.4-30 17.5 17.5 0 0 0-17.6 17.6z"/>
  <path fill="#da896e" d="M325.4 213.8a17.5 17.5 0 0 0 30 12.4 17.5 17.5 0 0 0-12.4-30 17.5 17.5 0 0 0-17.6 17.6z"/>
  <path fill="#4c3328" d="M232.4 193.2c-.6 0-1.3-.2-1.9-.6-7.1-4.6-15.6-6-25.2-4.1-7.2 1.4-12.4 4.2-12.4 4.2a3.5 3.5 0 0 1-3.4-6.1c.2-.1 6-3.4 14.5-5a40.6 40.6 0 0 1 30.3 5.1 3.5 3.5 0 0 1-1.9 6.5zm-13.6 17.1c0 2.5-.8 4.8-2.1 6.5a6.5 6.5 0 0 1-10.4 0c-1.3-1.6-2.1-4-2.1-6.5 0-2.6.8-4.9 2.1-6.5s3.2-2.7 5.2-2.7 3.9 1 5.2 2.7 2.1 4 2.1 6.5zm98.9-17.1c-.7 0-1.4-.2-2-.6a33 33 0 0 0-25.2-4.1c-7.2 1.4-12.3 4.2-12.4 4.2a3.5 3.5 0 0 1-3.4-6.1c.3-.1 6.1-3.4 14.5-5a40.6 40.6 0 0 1 30.3 5.1 3.5 3.5 0 0 1-1.8 6.5zM304 210.3c0 2.5-.7 4.8-2 6.5a6.7 6.7 0 0 1-5.3 2.6c-2 0-3.8-1-5.1-2.6-1.4-1.7-2.2-4-2.2-6.5 0-2.6.8-4.9 2.2-6.5a6.7 6.7 0 0 1 5.1-2.7c2 0 3.9 1 5.2 2.7a10 10 0 0 1 2.2 6.5z"/>
  <path fill="#fff" d="M235.9 258.2a1.6 1.6 0 0 0-1.7 1.8c.5 5.5 3 10.8 6.8 14.7a20 20 0 0 0 14.3 6.5 20 20 0 0 0 14.3-6.5c3.8-3.9 6.3-9.2 6.8-14.7a1.6 1.6 0 0 0-1.7-1.8H236z"/>
  <path fill="#402b23" d="M224.8 207.4c-.6 0-1.2-.2-1.7-.5-5-2.9-10.5-3.8-16.1-2.6a23 23 0 0 0-7 2.5 3.5 3.5 0 1 1-3.7-5.9c.2 0 3.8-2.3 9.3-3.5 7.2-1.4 14.5-.3 21 3.4a3.5 3.5 0 0 1-1.8 6.6zm85.2 0a4 4 0 0 1-1.7-.5c-5-2.9-10.4-3.8-16.1-2.6-4.2.8-6.9 2.5-7 2.5a3.5 3.5 0 0 1-3.7-5.9c.2 0 3.8-2.3 9.3-3.5 7.3-1.4 14.5-.3 21 3.4a3.5 3.5 0 0 1-1.7 6.6z"/>
  <path fill="#4c3328" d="M281.7 243a18.2 18.2 0 0 0-27 1.4 21.6 21.6 0 0 0-1.2-1.3 18.2 18.2 0 0 0-25.9 0 95.2 95.2 0 0 0-14.2 21.7c-4.3 9-7 18.2-3.4 21.7 3.6 3.6 12.7 1 21.7-3.4a97.2 97.2 0 0 0 23-15.4l.5.6.6.7c3.6 3.5 12.6 9.7 21.7 14.1s18.2 7 21.7 3.4c3.6-3.5 1-12.6-3.4-21.7a95.3 95.3 0 0 0-14.1-21.7z"/>
  <path fill="#402b23" d="M240.3 243a95.2 95.2 0 0 0-14.2 21.8c-4.4 9-7 18.2-3.4 21.7a3.8 3.8 0 0 0 .2.2 27 27 0 0 1-7.7 1.5c-2.2 0-4-.5-5.2-1.7-3.6-3.5-1-12.6 3.4-21.7a95 95 0 0 1 14.2-21.7 18.2 18.2 0 0 1 19.3-4.2 18.3 18.3 0 0 0-6.6 4.2z"/>
  <path fill="#c17a61" d="M260.2 245.7H249a7.2 7.2 0 0 1-7.2-7.2 7.2 7.2 0 0 1 7.2-7.2h11.1a7.2 7.2 0 0 1 7.2 7.2 7.2 7.2 0 0 1-7.2 7.2z"/>
  <path fill="#c79a5b" d="M324.5 101H188.4c0-5.3 1-11.8 3-19a144.6 144.6 0 0 1 28.3-53.9c5.3-6 11-11.2 17.2-14.9a38.3 38.3 0 0 1 19.5-5.7c6.8 0 13.3 2.1 19.5 5.7 6.2 3.7 12 8.8 17.3 14.9a140 140 0 0 1 20 31.3c3.5 7.8 6.3 15.5 8.3 22.7s3 13.6 3 18.9z"/>
  <path fill="#6f4232" d="M324.5 101H188.4c0-5.3 1-11.8 3-19s4.8-14.8 8.4-22.6H313c3.6 7.8 6.4 15.5 8.4 22.7a72 72 0 0 1 3 18.9z"/>
  <path fill="#c79a5b" d="m425.8 104.3-1.1 7.8-1.2 7.7-.3 2-.3 2.2a48.1 48.1 0 0 1-47.7 41.3h-236a48.1 48.1 0 0 1-47.1-38l-.8-3.7-.9-3.8-1.6-7.5-1.6-7.5a6.6 6.6 0 0 1 6.4-8h325.6a6.6 6.6 0 0 1 6.6 7.5z"/>
  <path fill="#d74545" d="M313 59.4H199.9a146.4 146.4 0 0 1 19.9-31.3h73.5a140 140 0 0 1 20 31.3z"/>
  <path fill="#ae8350" d="M273.5 11.5c-3.7 1.8-7.3 4.2-10.7 7s-6.7 6-9.8 9.6a140 140 0 0 0-20 31.3 162 162 0 0 0-8.3 22.7 72 72 0 0 0-3 18.9h-32.6c0-5.3 1-11.8 3-19a144.6 144.6 0 0 1 28.3-53.9c5.3-6 11-11.2 17.2-14.9s12.8-5.7 19.5-5.7a33.9 33.9 0 0 1 16.4 4z"/>
  <path fill="#613a2e" d="M233.1 59.4c-3.6 7.8-6.4 15.5-8.4 22.7a72 72 0 0 0-3 18.9h-32.6c0-5.3 1-11.8 3-19 2-7 4.8-14.8 8.4-22.6H233z"/>
  <path fill="#a83c3c" d="M253 28.1a140 140 0 0 0-20 31.3h-32.5a146.4 146.4 0 0 1 19.9-31.3H253z"/>
  <path fill="#d74545" d="m425.8 104.3-1.1 7.8-1.2 7.7H90.4l-1.6-7.5-1.6-7.5a6.6 6.6 0 0 1 6.4-8h325.6a6.6 6.6 0 0 1 6.6 7.5z"/>
  <path fill="#ae8350" d="M209.2 165.3h-70a48.1 48.1 0 0 1-47.1-38l-.8-3.7-.9-3.8-1.6-7.5-1.6-7.5a6.6 6.6 0 0 1 6.4-8h70a6.6 6.6 0 0 0-6.4 8l1.6 7.5 1.6 7.5.9 3.8.8 3.8a48.2 48.2 0 0 0 47.1 37.9z"/>
  <path fill="#a83c3c" d="m157.2 104.8 1.6 7.5 1.6 7.5h-70l-1.6-7.5-1.7-7.5a6.6 6.6 0 0 1 6.5-8h70a6.6 6.6 0 0 0-6.4 8z"/>
  <path fill="#6f4232" d="m205.6 148.4-8.3 8.3-8.3 8.3-8.3-8.3-8.3-8.3a6.2 6.2 0 0 0-8.8 0l-8.4 8.4-8.5 8.5h84.5l-8.4-8.5-8.4-8.4a6.2 6.2 0 0 0-8.8 0zm42.6 0-8.5 8.4-8.4 8.5h42.5l-8.4-8.5-8.5-8.4a6.2 6.2 0 0 0-8.7 0zm42.5 0-8.5 8.4-8.4 8.5h42.5l-8.4-8.5-8.5-8.4a6.2 6.2 0 0 0-8.7 0zm51.3 0a6.2 6.2 0 0 0-8.8 0l-8.4 8.4-8.5 8.5h42.5l-8.4-8.5-8.4-8.4z"/>
  <path fill="#4c3328" d="M194.4 165.3s-3 5.3-8 11.8-12 14.3-19.8 19.1v-30.9h27.8zm121.9 0s3 5.3 8 11.8c5 6.5 12 14.3 19.8 19.1v-30.9h-27.8z"/>
  <path fill="#d74545" d="M384.5 477.5a254.4 254.4 0 0 1-182.1 28.9 256.2 256.2 0 0 1-78.9-31.3l2.5-17 2.4-17a134.8 134.8 0 0 1 2.4-12l.3-1.2.3-1.2a90.3 90.3 0 0 1 4.4-13 119 119 0 0 1 19.3-32.2l.6-.8.7-.7a73.5 73.5 0 0 1 4.7-5v-.2h.1l.5-.5.4-.4.2-.3.3-.2.6-.6.6-.6.3-.3.3-.3.7-.6.7-.6v-.1l.8-.7.7-.6.2-.2.2-.1a25.7 25.7 0 0 0 1.9-1.6 50 50 0 0 1 .9-.8l.5-.4.3-.2.3-.3.7-.5.7-.6.2-.1.1-.1.2-.2.3-.2.4-.3.5-.4.5-.4a10.8 10.8 0 0 1 .9-.6 33 33 0 0 1 2.7-1.9l.8-.5c.2 0 .3-.2.5-.3l.5-.4a28 28 0 0 1 1.2-.7l.4-.3 1-.6 1-.5 1-.7 1.2-.7a9 9 0 0 0 .4-.2 74 74 0 0 1 7.4-3.8l2.5-1.1a107.3 107.3 0 0 1 8.3-3.3l1-.4 1.1-.3 4.7 5 4.6 4.9 20 21.3 20 21.3 22.4-26.1 22.4-26.1.6.2.5.1.7.3.7.2a106.9 106.9 0 0 1 12 5l.4.2.5.3a69 69 0 0 1 2 1l.6.3.6.3a100.8 100.8 0 0 1 15.4 10l1 .7.9.8.3.3.3.2A114.7 114.7 0 0 1 367 402a119.2 119.2 0 0 1 13.2 41.3l2.2 17 2.2 17.2z"/>
  <path fill="#e39123" d="M337.2 366 301 406.5l-36.2 40.3a11.8 11.8 0 0 1-17.2.4l-39.2-39.9-39.2-39.8a112.9 112.9 0 0 1 17.2-12h.2l.2-.2A130.9 130.9 0 0 1 205 347l1-.3 1.1-.4 24.7 26.2 24.6 26.3 22.4-26.1 22.4-26.1.6.2.5.1a59.5 59.5 0 0 1 7.7 3 97.7 97.7 0 0 1 7.7 3.5l1 .5.6.3.5.3a100.8 100.8 0 0 1 17.4 11.6z"/>
  <path fill="#a83c3c" d="m185 383.3-.8 1-.7.8-.7 1-.7.9a105.8 105.8 0 0 0-9.5 14.9 118.7 118.7 0 0 0-7.6 17.5l-.3 1-.3.9a115.8 115.8 0 0 0-2 6.6l-.3 1.2-.1.6-.2.6v.6a55.4 55.4 0 0 0-.6 2.4v.2l-.1.2-.2.7v.7l-.6 3-.5 3-3.6 24.6-3.6 24.6a256.2 256.2 0 0 1-29-15.2l2.4-17 2.4-17a147 147 0 0 1 2.4-12 79.3 79.3 0 0 1 2.3-7.8c0-.4.2-.7.3-1a44 44 0 0 1 1.3-3.8 141 141 0 0 1 6.6-14.6 117 117 0 0 1 22-29.1l.5-.6.3-.3.3-.3.7-.6.7-.6v-.1c0-.1 0 0 0 0l.7-.6.7-.6.5-.4.5-.5.5-.4.5-.4.4-.3.3-.3.4-.3.3-.3a92 92 0 0 1 2.4-1.9s.1 0 .2-.1l.4-.3.4-.3.1-.1h.1v-.1c0-.1 0 0 0 0h.1l.1-.1a63.8 63.8 0 0 1 7.4-5.1l.4-.3a81 81 0 0 1 2-1.1l1-.7 1.2-.7a9 9 0 0 0 .4-.2 74 74 0 0 1 3.8-2l1.2-.6a118 118 0 0 1 4.9-2.3 108.7 108.7 0 0 1 8.3-3.3l1-.3 1.1-.4 4.7 5 4.6 4.9a102 102 0 0 0-7 4.4l-.5.4-.4.3a16 16 0 0 0-1.6 1.1l-.9.6a111.2 111.2 0 0 0-2.4 2l-.8.6a147 147 0 0 0-9.4 8.3 113.6 113.6 0 0 0-6.3 6.8l-.7.8-.3.4-.4.5-.4.4-.4.5z"/>
  <path fill="#cc7f20" d="M216.4 356.2a108.9 108.9 0 0 0-29.3 24.5l-.7.8-.7.9-.8 1-7.8-8-7.9-8a92 92 0 0 1 3-2.5h.2a52.5 52.5 0 0 1 1.6-1.3l.2-.2.2-.1a54.3 54.3 0 0 1 6.2-4.4 51 51 0 0 1 5.8-3.5h.2l.2-.2A130.9 130.9 0 0 1 205 347l1-.3 1.1-.4 4.7 5 4.6 4.9z"/>
  <path fill="#fff" d="M241.9 422.8a13.4 13.4 0 0 0 22.9 9.5 13.4 13.4 0 0 0-9.5-23 13.4 13.4 0 0 0-13.4 13.5zm28.1-24.3a13.4 13.4 0 0 0 22.9 9.5 13.4 13.4 0 0 0-9.5-23 13.4 13.4 0 0 0-13.4 13.5zm26.7-28.6a13.4 13.4 0 0 0 22.9 9.5 13.4 13.4 0 0 0-9.5-23 13.4 13.4 0 0 0-13.4 13.5zm-58.4 28.6a13.4 13.4 0 0 1-23 9.5 13.4 13.4 0 0 1 9.5-23 13.4 13.4 0 0 1 13.5 13.5zm-26.7-28.6a13.4 13.4 0 0 1-23 9.5 13.4 13.4 0 0 1 9.6-23 13.4 13.4 0 0 1 13.4 13.5z"/>
  <path fill="#b2705a" d="M166.6 205.5a8.2 8.2 0 0 0-5.8 14 8.2 8.2 0 0 0 5.8 2.5v-16.5zM344.1 222a8.2 8.2 0 0 0 5.8-14 8.2 8.2 0 0 0-5.8-2.5V222z"/>
</svg>