<svg xmlns="http://www.w3.org/2000/svg" xmlns:xlink="http://www.w3.org/1999/xlink" xml:space="preserve" viewBox="0 0 512 512">
  <path fill="#9ec853" d="M0 256C0 114.6 114.61 0 256 0s256 114.6 256 256-114.61 256-256 256S0 397.39 0 256z"/>
  <defs>
    <path id="a" d="M0 256C0 114.6 114.61 0 256 0s256 114.6 256 256c0 141.39-114.61 256-256 256S0 397.39 0 256z"/>
  </defs>
  <clipPath id="b">
    <use xlink:href="#a" overflow="visible"/>
  </clipPath>
  <path fill="#3d2a3d" d="M406 496H116l21.48-290h236.3z" clip-path="url(#b)"/>
  <g fill="#3d2a3d" clip-path="url(#b)">
    <path d="m424.17 378.15-31.61.07-15.55 118.57 78.99-17.1z"/>
    <ellipse cx="326.61" cy="130.09" rx="24.95" ry="29.11" transform="rotate(-27 326.6 130.13)"/>
    <ellipse cx="307.77" cy="154.2" rx="24.95" ry="29.11" transform="rotate(-27 307.76 154.23)"/>
    <ellipse cx="357.52" cy="161.03" rx="24.07" ry="28.08" transform="rotate(-27 357.5 161.07)"/>
    <ellipse cx="339.36" cy="184.29" rx="24.07" ry="28.08" transform="rotate(-27 339.34 184.32)"/>
    <ellipse cx="379.62" cy="201.48" rx="23.18" ry="27.04" transform="rotate(-27 379.6 201.52)"/>
    <ellipse cx="362.12" cy="223.88" rx="23.18" ry="27.04" transform="rotate(-27 362.1 223.92)"/>
    <ellipse cx="394.35" cy="246.26" rx="22.3" ry="26.01" transform="rotate(-27 394.32 246.3)"/>
    <ellipse cx="377.52" cy="267.8" rx="22.3" ry="26.01" transform="rotate(-27 377.49 267.84)"/>
    <ellipse cx="403.18" cy="290.19" rx="21.41" ry="24.98" transform="rotate(-27 403.15 290.23)"/>
    <ellipse cx="387.02" cy="310.88" rx="21.41" ry="24.98" transform="rotate(-27 386.99 310.92)"/>
    <ellipse cx="407.58" cy="328.1" rx="20.53" ry="23.95" transform="rotate(-27 407.55 328.14)"/>
    <ellipse cx="392.09" cy="347.93" rx="20.53" ry="23.95" transform="rotate(-27 392.05 347.97)"/>
    <ellipse cx="409.02" cy="354.81" rx="19.64" ry="22.92" transform="rotate(-27 408.98 354.85)"/>
    <ellipse cx="394.19" cy="373.79" rx="19.64" ry="22.92" transform="rotate(-27 394.15 373.83)"/>
    <ellipse cx="408.95" cy="365.14" rx="18.76" ry="21.89" transform="rotate(-27 408.9 365.19)"/>
    <ellipse cx="394.79" cy="383.27" rx="18.76" ry="21.89" transform="rotate(-27 394.75 383.31)"/>
  </g>
  <g fill="#3d2a3d" clip-path="url(#b)">
    <path d="m98.87 380.32 31.58-1.31 20.7 117.78-79.66-13.65z"/>
    <ellipse cx="185.53" cy="128.25" rx="29.11" ry="24.95" transform="rotate(-66 185.54 128.24)"/>
    <ellipse cx="205.4" cy="151.51" rx="29.11" ry="24.95" transform="rotate(-66 205.4 151.5)"/>
    <ellipse cx="155.99" cy="160.5" rx="28.08" ry="24.07" transform="rotate(-66 156 160.5)"/>
    <ellipse cx="175.16" cy="182.94" rx="28.08" ry="24.07" transform="rotate(-66 175.16 182.93)"/>
    <ellipse cx="135.68" cy="201.88" rx="27.04" ry="23.18" transform="rotate(-66 135.69 201.87)"/>
    <ellipse cx="154.14" cy="223.49" rx="27.04" ry="23.18" transform="rotate(-66 154.15 223.48)"/>
    <ellipse cx="122.92" cy="247.25" rx="26.01" ry="22.3" transform="rotate(-66 122.92 247.24)"/>
    <ellipse cx="140.67" cy="268.04" rx="26.01" ry="22.3" transform="rotate(-66 140.68 268.03)"/>
    <ellipse cx="116" cy="291.52" rx="24.98" ry="21.41" transform="rotate(-66 116.01 291.51)"/>
    <ellipse cx="133.05" cy="311.49" rx="24.98" ry="21.41" transform="rotate(-66 133.06 311.48)"/>
    <ellipse cx="113.25" cy="329.59" rx="23.95" ry="20.53" transform="rotate(-66 113.27 329.58)"/>
    <ellipse cx="129.6" cy="348.73" rx="23.95" ry="20.53" transform="rotate(-66 129.61 348.71)"/>
    <ellipse cx="112.99" cy="356.33" rx="22.92" ry="19.64" transform="rotate(-66 113 356.32)"/>
    <ellipse cx="128.63" cy="374.65" rx="22.92" ry="19.64" transform="rotate(-66 128.64 374.64)"/>
    <ellipse cx="113.51" cy="366.66" rx="21.89" ry="18.76" transform="rotate(-66 113.52 366.65)"/>
    <ellipse cx="128.44" cy="384.15" rx="21.89" ry="18.76" transform="rotate(-66 128.46 384.14)"/>
  </g>
  <g fill="#e38a5b" clip-path="url(#b)">
    <path d="M186.41 238.7c7.2 17.04 3.28 33.62-8.75 37-12.04 3.4-27.63-7.67-34.83-24.72-7.2-17.05-3.28-33.62 8.75-37.02s27.63 7.68 34.83 24.73zm146.56 0c-7.2 17.04-3.27 33.62 8.76 37 12.04 3.4 27.63-7.67 34.83-24.72 7.2-17.05 3.28-33.62-8.76-37.02-12.03-3.4-27.63 7.68-34.83 24.73z"/>
  </g>
  <path fill="#e38a5b" d="m463.39 545.88-.06-.92c0-56.2-21.04-110.64-46.72-121.01l-109.4-44.07c-25.69-10.36-67.75-10.4-93.45-.13L102.8 424.1c-25.7 10.29-46.74 64.68-46.74 120.87l-.06.92h407.39z" clip-path="url(#b)"/>
  <path fill="#e38a5b" d="M306.02 382.58a43.68 43.68 0 0 1-43.68 43.68h-5.3a43.68 43.68 0 0 1-43.67-43.68v-112.5a43.68 43.68 0 0 1 43.67-43.68h5.3a43.68 43.68 0 0 1 43.68 43.67v112.51z" clip-path="url(#b)"/>
  <g clip-path="url(#b)">
    <path fill="#f5b68c" d="M353.7 246.16a94 94 0 1 1-188 0v-78.19a94 94 0 1 1 188 0v78.2z"/>
  </g>
  <g fill="#3d2a3d" clip-path="url(#b)">
    <circle cx="223.65" cy="238.7" r="10.87"/>
    <circle cx="295.74" cy="238.7" r="10.87"/>
  </g>
  <g clip-path="url(#b)">
    <path fill="#3d2a3d" d="M259.7 69.8c-60.95 0-110.36 53.54-110.36 119.6 0 21.94 5.45 42.49 14.97 60.17l3.61-30.69a70.56 70.56 0 0 1 70.08-62.3h43.38a70.56 70.56 0 0 1 70.07 62.29l3.63 30.7a126.78 126.78 0 0 0 14.96-60.17c0-66.06-49.4-119.6-110.35-119.6z"/>
  </g>
  <path fill="#e38a5b" d="M275.25 253.58a16.58 16.58 0 0 1-16.69 15.54 16.68 16.68 0 0 1-16-11.76c-.46 1.6-.8 3.25-.8 4.99a17.93 17.93 0 1 0 35.86 0c0-3.21-.9-6.17-2.37-8.77z" clip-path="url(#b)"/>
  <path fill="#966796" d="M463.33 544.96c0-56.2-21.04-110.64-46.72-121.01l-86.98-35.04a76.82 76.82 0 0 1-139.7.37l-87.13 34.8c-25.7 10.3-46.74 64.68-46.74 120.88l-.06.92h407.39l-.06-.92z" clip-path="url(#b)"/>
  <g fill="#eb987f" clip-path="url(#b)">
    <ellipse cx="320.05" cy="266.03" rx="21.95" ry="16.46"/>
    <ellipse cx="199.33" cy="266.03" rx="21.95" ry="16.46"/>
  </g>
  <g clip-path="url(#b)">
    <path fill="#fff" d="M284.07 289.59c-12.26 11.54-33.3 11.54-45.56 0-8.65-8.14-21.71 4.87-13.04 13.04 19.69 18.53 51.95 18.53 71.64 0 8.67-8.17-4.4-21.18-13.04-13.04z"/>
  </g>
  <g clip-path="url(#b)">
    <path fill="#735a73" d="M208.28 221.29c5.7-6.26 13.7-9.05 22.04-9.19 4.14-.06 4.15-6.5 0-6.43-9.95.16-19.79 3.59-26.59 11.07-2.78 3.06 1.76 7.62 4.55 4.55zm103.46-4.55c-6.8-7.48-16.64-10.91-26.59-11.07-4.15-.07-4.14 6.37 0 6.43 8.34.14 16.35 2.93 22.04 9.19 2.8 3.07 7.33-1.5 4.55-4.55z"/>
  </g>
  <g fill="#3d2a3d" clip-path="url(#b)">
    <ellipse cx="227.62" cy="108.28" rx="18.94" ry="22.1" transform="rotate(-66 227.62 108.28)"/>
    <ellipse cx="245.15" cy="93.04" rx="18.94" ry="22.1" transform="rotate(-66 245.15 93.04)"/>
    <ellipse cx="236.03" cy="136.84" rx="18.27" ry="21.32" transform="rotate(-66 236.03 136.84)"/>
    <ellipse cx="252.94" cy="122.14" rx="18.27" ry="21.32" transform="rotate(-66 252.94 122.14)"/>
    <ellipse cx="256.63" cy="160.6" rx="17.6" ry="20.53" transform="rotate(-66 256.63 160.6)"/>
    <ellipse cx="272.92" cy="146.44" rx="17.6" ry="20.53" transform="rotate(-66 272.92 146.45)"/>
    <ellipse cx="285.6" cy="178.25" rx="16.93" ry="19.75" transform="rotate(-66 285.6 178.25)"/>
    <ellipse cx="301.27" cy="164.64" rx="16.93" ry="19.75" transform="rotate(-66 301.27 164.64)"/>
    <ellipse cx="319.14" cy="188.47" rx="16.26" ry="18.97" transform="rotate(-66 319.15 188.48)"/>
    <ellipse cx="334.19" cy="175.4" rx="16.26" ry="18.97" transform="rotate(-66 334.2 175.4)"/>
    <ellipse cx="353.45" cy="189.95" rx="15.59" ry="18.18" transform="rotate(-66 353.45 189.95)"/>
    <ellipse cx="367.87" cy="177.42" rx="15.59" ry="18.18" transform="rotate(-66 367.87 177.42)"/>
    <ellipse cx="384.7" cy="181.37" rx="14.91" ry="17.4" transform="rotate(-66 384.7 181.37)"/>
  </g>
</svg>