<svg xmlns="http://www.w3.org/2000/svg" xmlns:xlink="http://www.w3.org/1999/xlink" viewBox="0 0 512 512" xml:space="preserve"><path fill="#e1902b" d="M512 256a256 256 0 1 1-512 0 256 256 0 0 1 512 0z"/><defs><path id="a" d="M0 256a256 256 0 1 1 512 0 256 256 0 0 1-512 0z"/></defs><clipPath id="b"><use overflow="visible" xlink:href="#a"/></clipPath><g clip-path="url(#b)"><path fill="#f0b39c" d="M192 252.5c6.6 15.5 3 30.7-8 33.7-11 3.1-25.1-7-31.7-22.5-6.6-15.5-3-30.6 8-33.7 11-3.1 25.2 7 31.7 22.5zm133.6 0c-6.6 15.5-3 30.7 8 33.7s25.1-7 31.7-22.5c6.5-15.5 3-30.6-8-33.7-11-3.1-25.2 7-31.7 22.5z"/><ellipse cx="258.8" cy="184.9" fill="#3d2a3d" rx="107.6" ry="98.5"/><path fill="#f0b39c" d="M444.4 532.4v-.8c0-51.2-19.2-100.8-42.6-110.3L302 381.2a132 132 0 0 0-85.2-.2l-101 40.4c-23.5 9.4-42.7 59-42.7 110.2v.8h371.2z"/><path fill="#f0b39c" d="M301 383.6c0 22-17.8 39.8-39.8 39.8h-4.8c-22 0-39.8-17.8-39.8-39.8V281.1c0-22 17.8-39.8 39.8-39.8h4.8c22 0 39.8 17.8 39.8 39.8v102.5z"/><path fill="#ffdbc5" d="M353.6 258.7c0 54-42.4 97.8-94.8 97.8S164 312.7 164 258.7v-56.4c0-54 42.4-97.9 94.8-97.9s94.8 43.9 94.8 97.9v56.4z"/><g fill="#3d2a3d"><circle cx="225.9" cy="262" r="9.9"/><circle cx="291.6" cy="262" r="9.9"/></g><path fill="#3d2a3d" d="M258.8 102.2c-55.5 0-100.6 48.8-100.6 109 0 20 5 38.7 13.7 54.9l10-84.8h153.8l10 84.8a115.5 115.5 0 0 0 13.6-54.9c0-60.2-45-109-100.5-109z"/><path fill="#3d2a3d" d="M205 240.7c8-8.8 19.1-12.7 30.8-12.9 5.8 0 5.8-9 0-9-14 .2-27.7 5-37.2 15.5-3.9 4.3 2.5 10.7 6.4 6.4zm114-6.4a50.6 50.6 0 0 0-37.2-15.5c-5.8 0-5.8 9 0 9 11.6.2 22.8 4.1 30.8 12.9 4 4.3 10.3-2.1 6.4-6.4z"/><path fill="#fff" d="M279.5 297.9a31.3 31.3 0 0 1-41.5 0c-7.9-7.4-19.8 4.4-11.9 11.9a48.4 48.4 0 0 0 65.3 0c8-7.5-4-19.3-11.9-12z"/><path fill="#f0b39c" d="M273 266a15 15 0 0 1-15.2 14.2c-7 0-12.7-4.5-14.6-10.7-.4 1.5-.8 3-.8 4.6a16.4 16.4 0 0 0 32.7 0c0-3-.8-5.6-2.1-8z"/><path fill="#2961a5" d="M444.3 531.6c0-51.2-19.1-100.8-42.5-110.3l-79.3-32a70 70 0 0 1-127.3.4l-79.4 31.7c-23.4 9.4-42.6 59-42.6 110.2v.8h371.2v-.8z"/><path fill="#3d2a3d" d="M360.2 54c-20-2-43.6 7.3-62 14.1-10 3.7-30.3 14.7-34 25.6-5.2 15.8 26.4 1.1 31-.4 20-6.5 41.5 1.6 57.4 15 17.2 14.3 24 32.2 24.5 54.6a56.7 56.7 0 0 0 40-46.4c3.3-30.9-22.2-58.9-56.9-62.5z"/><path fill="#db4646" d="M305.4 87.6c2.5 3 1.9 8-1.5 11l-8.8 8c-3.3 3-8.1 3-10.7-.1l-18.1-22c-2.6-3-2-8 1.4-11l8.8-8c3.4-3 8.2-3 10.8.2l18 21.9z"/><path fill="#704d70" d="M318.3 146h-119c-18.3 0-33 15.6-33 34.8v6.5a33.9 33.9 0 0 0 33 34.8h4l17-29.6 6.2 29.6h78.1l7.8-36.8 19.3 33.8a34.8 34.8 0 0 0 19.6-31.7v-6.6a34 34 0 0 0-33-34.7z"/></g></svg>