<svg xmlns="http://www.w3.org/2000/svg" xml:space="preserve" viewBox="0 0 512 512">
  <style>
    .st6{fill:#da4545}.st26{fill:#b62a2a}.st265{fill:#5da186}.st267{fill:#e5c6be}.st268{fill:#d3b6b1}.st269{fill:none;stroke:#baa09c;stroke-width:10;stroke-linecap:round;stroke-miterlimit:10}.st270{fill:#f4d78f}
  </style>
  <g id="BULINE">
    <circle id="XMLID_997_" cx="256" cy="256" r="256" fill="#76cfb1"/>
  </g>
  <g id="Icons">
    <g id="XMLID_3796_">
      <g id="XMLID_877_">
        <path id="XMLID_1007_" d="M439 92v343c-15 15-31 28-49 39h-31c-6 0-11-5-11-11V92c0-6 5-12 11-12h68c7 0 12 6 12 12z" class="st265"/>
        <path id="XMLID_1020_" d="M108 194v271a257 257 0 0 1-97-283h85c7 0 12 6 12 12z" class="st265"/>
        <path id="XMLID_1115_" fill="#68b596" d="M512 256a256 256 0 0 1-122 218l-3 2a255 255 0 0 1-266-2v-1a276 276 0 0 1-65-58V143c0-6 5-12 11-12h68c7 0 12 6 12 12v105c2-2 4-4 7-4h223c5 0 9 4 9 10v-47c0-4 4-8 8-8h112c4 19 6 38 6 57z"/>
        <g id="XMLID_895_">
          <path id="XMLID_969_" fill="#1b305c" d="M380 88c-6-6-17-14-32-19-4-23-23-41-46-42-61-5-96 11-116 31-29 6-46 18-56 26-8 6-11 24-8 33l16 61 9-5v-19c0-19 5-37 14-52l-1 6c-1 5 4 9 9 7 7-4 15-7 22-9 45-13 98-2 121 4a29 29 0 0 0 32-12l2 3c9 16 14 34 14 53v16h2c5 0 9 2 12 6l12-56c2-8 0-26-6-32z"/>
          <path id="XMLID_1060_" d="M387 375v101a254 254 0 0 1-266-2v-99c0-26 20-46 46-46h181c22 4 39 23 39 46z" class="st6"/>
          <path id="XMLID_998_" d="M198 329h-8c-22 4-38 23-38 46v115l-31-16v-99c0-26 21-47 47-47h30z" class="st26"/>
          <path id="XMLID_965_" d="M261 348h-15c-12 0-21-10-21-22v-36c0-12 9-22 21-22h15c12 0 22 10 22 22v36c0 12-10 22-22 22z" class="st267"/>
          <path id="XMLID_964_" d="M264 348h-18c-12 0-22-10-22-22v-36c0-12 10-22 22-22h15l3 1c-10 1-19 10-19 21v36c0 11 9 20 19 22z" class="st268"/>
          <path id="XMLID_963_" d="M374 176c-3-4-7-6-11-6h-3v-16c0-19-5-37-14-53l-2-3c-4 6-10 10-17 12h-15c-23-6-76-17-120-4-8 2-16 5-23 9-4 2-10-2-9-7l1-6c-8 15-13 33-13 52v48a97 97 0 0 0 0 12l1 2v5l1 3 2 7v2l1 2 1 2v2l1 1v2h1v2l1 1v1l1 1v1l1 1 1 2 1 2a93 93 0 0 0 13 18l1 2 2 2 1 1 2 2 1 1 2 1 3 4 4 3 2 1 3 2 2 1 2 2 2 1 2 1 3 2 2 1a112 112 0 0 0 14 5l3 1 2 1h3l3 1h2l3 1h5l3 1h16l5-1h2l2-1h2a106 106 0 0 0 87-93h3c8 0 14-6 14-14v-14c0-4-1-7-3-9z" class="st267"/>
          <path id="XMLID_962_" d="M272 307c-49-9-87-53-87-105v-48c0-18 5-35 12-50l-6 2c-8 2-15 5-22 9-5 2-10-2-9-7l1-6a122 122 0 0 0-14 52v16h-2c-8 0-15 7-15 15v14c0 8 7 15 15 15h3v5l1 2v3l2 7 1 2v2l1 2v1l1 1v1l1 2 1 2v1l1 1v2h1v1l1 2 1 2a93 93 0 0 0 13 18l2 2 1 2 1 1 1 1 1 1 1 1 2 2a119 119 0 0 0 12 9l2 1 2 2 2 1 3 1 2 2 2 1a87 87 0 0 0 15 5l2 1 3 1h2l3 1 2 1h6l2 1h19l5-1h4l1-1 1 1z" class="st268"/>
          <path id="XMLID_961_" d="M260 219h-13c-4 0-8-4-8-8 0-5 4-8 8-8h13c4 0 8 3 8 8 0 4-3 8-8 8z" class="st268"/>
          <path id="XMLID_960_" fill="#4c3328" d="M282 236c2 0 3 2 3 3l-1 9a32 32 0 0 1-30 23c-8 0-16-3-21-8a32 32 0 0 1-11-24c0-1 1-3 3-3h57z"/>
          <path id="XMLID_958_" d="M274 263a32 32 0 0 1-41 0 32 32 0 0 1 41 0z" class="st26"/>
          <path id="XMLID_957_" fill="#fff" d="M282 236c2 0 3 2 3 3l-1 9h-61l-1-9c0-1 1-3 3-3h57z"/>
          <path id="XMLID_956_" d="M216 188a12 12 0 1 0-25 0" class="st269"/>
          <path id="XMLID_955_" d="M319 188a12 12 0 1 0-24 0" class="st269"/>
          <path id="XMLID_952_" d="m311 324-23-2c-3 0-6 2-7 5-7 22-25 21-27 21h-1c-2 0-20 1-28-21-1-3-3-5-6-5l-23 2c-5 0-8 5-6 9 6 14 19 40 44 50 8 3 18-2 19-11 2 9 11 14 20 11 24-10 38-36 44-50 1-4-1-9-6-9z" class="st26"/>
          <path id="XMLID_951_" d="M351 435h-51c-3 0-5-2-5-5v-13c0-3 2-6 5-6h51c3 0 5 3 5 6v13c0 3-2 5-5 5z" class="st26"/>
          <path id="XMLID_947_" d="M214 455c-4 0-7-3-7-6V320c0-4 3-7 7-7s7 3 7 7v129c0 3-3 6-7 6z" class="st270"/>
          <path id="XMLID_946_" d="M295 455c-4 0-7-3-7-6V320c0-4 3-7 6-7h1c3 0 6 3 6 7v129c0 3-3 6-6 6z" class="st270"/>
          <g id="XMLID_934_">
            <path id="XMLID_945_" fill="#e9b12d" d="M297 441h-15l-3-8c-1-3-4-5-7-5h-36c-4 0-7 2-8 5l-3 8h-14c-5 0-9 5-9 10v44c0 5 4 10 9 10h85c5 0 10-5 10-10v-44c0-5-4-10-9-10z"/>
            <path id="XMLID_944_" fill="#e39123" d="M259 428c-3 0-6 2-7 5l-3 8h-14c-5 0-10 5-10 10v44c0 6 5 10 10 10h-24c-5 0-9-4-9-10v-44c0-5 4-10 9-10h14l3-8c1-3 4-5 8-5h23z"/>
            <path id="XMLID_943_" fill="#b06f1e" d="M220 434h-6c-2 0-3 1-3 3v4h12v-5c0-1-1-2-3-2z"/>
            <circle id="XMLID_942_" cx="253.8" cy="475.7" r="21.9" fill="#233e76"/>
            <circle id="XMLID_941_" cx="253.8" cy="475.7" r="15.9" fill="#5ba0f5"/>
            <path id="XMLID_940_" fill="#4e88c0" d="m258 491-4 1a16 16 0 1 1 0-32h4a16 16 0 0 0 0 31z"/>
            <circle id="XMLID_939_" cx="261.6" cy="473.5" r="5" fill="#83c3f1"/>
          </g>
          <path id="XMLID_924_" d="M114 254c-5-1-9 2-11 6l-10 42-10-42c-1-4-6-7-10-6s-8 6-7 11l10 39H60c-6 0-11 5-11 10v26c0 13 10 23 23 23h16c13 0 23-10 23-23v-36l10-39c1-5-2-10-7-11z" class="st267"/>
          <path id="XMLID_923_" d="M58 350c-3-3-3-9 0-12l12-12c3-3 9-3 12 0 4 4 4 9 0 13l-11 11c-4 4-9 4-13 0z" class="st268"/>
          <path id="XMLID_1001_" d="M108 363v102a257 257 0 0 1-59-58v-46l1-1v-1l2-1 1-1h51c2 1 4 3 4 6z" class="st6"/>
          <path id="XMLID_1004_" d="M73 356c-4 0-7 3-7 7v65a212 212 0 0 1-17-21v-46l1-1v-1l2-1 1-1h20z" class="st26"/>
        </g>
      </g>
      <path id="XMLID_3367_" fill="#29477c" d="M301 39c8 4 20 12 27 28 2 4-2 8-5 6-3-1-5 1-4 3l5 12c2 5-4 8-7 4-8-9-20-20-33-22-1 0-2-1-1-2 2-3 5-8 11-9 5-2 8-7 7-12l-3-6c-1-1 1-3 3-2z"/>
    </g>
  </g>
</svg>