<svg xmlns="http://www.w3.org/2000/svg" viewBox="0 0 512 512" xml:space="preserve"><style>.st6{fill:#da4545}.st8{fill:#cd462a}.st16{fill:#fff}.st20{fill:#d5b3a7}.st21{fill:#c09a8f}.st23{fill:#1b305c}.st42{fill:#233e76}.st71{fill:none;stroke:#c09a8f;stroke-width:10;stroke-linecap:round;stroke-miterlimit:10}.st212{fill:#c57b20}.st213{fill:#c7f1e6}.st214{fill:#dc6363}</style><g id="BULINE"><circle id="XMLID_2129_" cx="256" cy="256" r="256" fill="#a9e7d8"/></g><g id="Icons"><g id="XMLID_2255_"><path id="XMLID_2742_" d="M512 256a255 255 0 0 1-112 212l-4 3a250 250 0 0 1-53 26l-2 1a256 256 0 0 1-266-61v-1a254 254 0 0 1-64-253c32 2 60 22 73 51l6-1a26 26 0 0 1 25 32 83 83 0 0 1 58 39l3 5h110a84 84 0 0 1 52-19h1a83 83 0 0 1 53 19h7l3-6a73 73 0 0 1 54-36h1a82 82 0 0 1 14 0c2-22 18-40 39-44l2 33z" class="st16"/><g id="XMLID_2257_"><path id="XMLID_2395_" d="M285 331H129c-18 0-32-14-32-31v-10c0-18 14-32 32-32h156c17 1 31 15 31 32v10c0 17-14 31-31 31z" class="st42"/><path id="XMLID_2394_" d="M257 319h-96c-13 0-24-11-24-24s11-24 24-24h96c13 0 24 11 24 24s-11 24-24 24z" class="st23"/><path id="XMLID_2393_" d="M216 342h-15c-12 0-22-10-22-22v-37c0-12 10-21 22-21h15c13 0 22 9 22 22v36c0 12-9 22-22 22z" class="st20"/><path id="XMLID_2391_" d="M219 342h-18c-12 0-22-10-22-22v-37c0-12 10-21 22-21h18c-10 1-19 10-19 21v37c0 11 9 20 19 22z" class="st21"/><path id="XMLID_2389_" d="M319 154h-3v-17a107 107 0 0 0-215 0v49a107 107 0 0 0 214 12h3c9 0 15-7 15-15v-14c0-8-6-15-14-15z" class="st20"/><path id="XMLID_2388_" d="M140 186v-49c0-53 38-96 88-105-6-2-13-2-19-2-60 0-108 48-108 107v17h-2c-8 0-14 6-14 15v14c0 8 6 15 14 15h3a107 107 0 0 0 126 93c-50-9-88-53-88-105z" class="st21"/><path id="XMLID_2387_" d="M215 208h-13c-5 0-8-4-8-8 0-5 3-8 8-8h13c4 0 8 3 8 8 0 4-4 8-8 8z" class="st21"/><path id="XMLID_2386_" d="M196 219a12 12 0 1 0 25 0" class="st71"/><path id="XMLID_2385_" d="M197 245h23" class="st71"/><path id="XMLID_2639_" d="M343 369v128l-2 1a256 256 0 0 1-266-61l-1-1v-67a47 47 0 0 1 48-47h43v-9a10 10 0 0 1 11-10h67a10 10 0 0 1 10 10v9h43l10 1a47 47 0 0 1 37 46z" class="st42"/><path id="XMLID_2418_" d="M153 322a45 45 0 0 0-28 9c-12 8-19 22-19 38v94c-11-8-21-16-31-26v-68a47 47 0 0 1 47-47h31z" class="st23"/><path id="XMLID_2596_" d="M221 303v207l-22-4V303h22z" class="st23"/><path id="XMLID_2380_" d="M210 339c-3 0-6-3-6-6l3-21v-1h6l1 1 2 21c0 3-2 6-6 6z" class="st8"/><path id="XMLID_2379_" d="M164 391h-37c-5 0-9-4-9-9v-5c0-5 4-9 9-9h37c5 0 9 4 9 9v5c0 5-4 9-9 9z" class="st8"/><path id="XMLID_2378_" fill="#e9b12d" d="M320 116a113 113 0 0 0-226 0h226z"/><path id="XMLID_2376_" fill="#cf9a2a" d="M240 8c-46 14-80 57-80 108H94A113 113 0 0 1 240 8z"/><path id="XMLID_2375_" fill="#e39123" d="M322 135H96c-6 0-11-5-11-11v-8c0-6 5-11 11-11h226c6 0 11 5 11 11v8c0 6-5 11-11 11z"/><path id="XMLID_2374_" d="M124 135h-9v-19c0-2 2-4 4-4 3 0 5 2 5 4v19z" class="st212"/><path id="XMLID_2373_" d="M143 135h-8v-19c0-2 2-4 4-4 3 0 5 2 5 4v19z" class="st212"/><path id="XMLID_2372_" d="M163 135h-9v-19c1-2 3-4 5-4s4 2 4 4v19z" class="st212"/><path id="XMLID_2370_" d="M183 135h-9v-19c0-2 2-4 5-4 2 0 4 2 4 4v19z" class="st212"/><path id="XMLID_2368_" d="M203 135h-9v-19c0-2 2-4 5-4 2 0 4 2 4 4v19z" class="st212"/><path id="XMLID_2360_" d="M223 135h-9v-19c0-2 2-4 4-4 3 0 5 2 5 4v19z" class="st212"/><path id="XMLID_2358_" d="M242 135h-8v-19c0-2 2-4 4-4 3 0 5 2 5 4v19z" class="st212"/><path id="XMLID_2356_" d="M262 135h-9v-19c1-2 3-4 5-4s4 2 4 4v19z" class="st212"/><path id="XMLID_2355_" d="M282 135h-9v-19c0-2 2-4 5-4 2 0 4 2 4 4v19z" class="st212"/><path id="XMLID_2352_" d="M302 135h-9v-19c0-2 2-4 5-4 2 0 4 2 4 4v19z" class="st212"/><g id="XMLID_2340_"><g id="XMLID_2347_"><path id="XMLID_2348_" d="m198 134-1 1-4 4h67l3-4 1-1h-66zm127 1c-1-5-5-9-10-10l-4-1H107a14 14 0 0 0-15 15v22a52 52 0 0 0 51 52h1c12 0 23-4 32-10 7-6 15-10 24-11h1l6-1h4c11 0 22 4 31 12 9 7 20 10 32 10 28 0 51-23 51-52v-26zm-14 26v2c-1 20-17 36-37 36h-1a37 37 0 0 1-22-8l-6-4a65 65 0 0 0-34-10h-4c-14 0-28 5-40 14a37 37 0 0 1-32 6 38 38 0 0 1-26-23l-2-10v-25h204v22zm-113-27-1 1-4 4h67l3-4 1-1h-66z" class="st23"/></g><path id="XMLID_2346_" fill="#335aa8" d="M311 141v21a41 41 0 0 1-41 42h-1a41 41 0 0 1-25-9l-4-3c-7-5-16-8-25-9h-8c-12 0-24 5-33 12a41 41 0 0 1-21 8l-5 1a41 41 0 0 1-26-10 41 41 0 0 1-15-32v-21c0-4 3-7 7-7h190c3 0 5 1 6 4l1 3z"/><path id="XMLID_2345_" d="m182 134-60 60c-6-5-11-12-13-20l40-40h33z" class="st213"/><path id="XMLID_2343_" d="m222 134-69 69h-5c-5 0-11-1-16-3l66-66h24z" class="st213"/><path id="XMLID_2342_" d="m298 134-58 58c-8-5-16-8-25-9l49-49h34z" class="st213"/><path id="XMLID_2341_" d="M311 141v20l-42 42c-7 0-14-2-20-5l61-61 1 4z" class="st213"/></g><g id="XMLID_2332_"><path id="XMLID_2600_" d="m403 173-1 59v58l-1 13v69l-1 13v22l-1 61-4 3a250 250 0 0 1-52 26l-2 1-2-123v-24l-1-61v-55l-1-63c-1-18 7-35 20-48a18 18 0 0 1 5-4l2-1a18 18 0 0 1 11 0h1l1 1h1l1 1h1l1 1 2 2a67 67 0 0 1 20 49z" class="st214"/><path id="XMLID_2414_" d="m381 122-2 2a67 67 0 0 0-20 48l1 60v61l1 57v23l2 116-20 8-2 1-2-123v-24l-1-61v-55l-1-63c-1-18 7-35 20-48a18 18 0 0 1 5-4l2-1a18 18 0 0 1 11 0h1l1 1h1l1 1h1l1 1z" class="st6"/><path id="XMLID_2335_" d="M402 268v22c-14-2-26-11-32-25-4-10-14-14-24-11l-6 3h-2v-22l1-1c20-8 43 2 51 23 2 6 7 9 12 11z" class="st16"/><path id="XMLID_2334_" d="m401 385-1 22c-13-2-25-11-30-24-3-10-14-15-24-11l-6 2-1 1v-23c20-8 43 3 51 23 2 5 6 9 11 10z" class="st16"/></g><g id="XMLID_2326_"><path id="XMLID_2622_" d="m458 173-1 94v27l-1 43v20l-1 28v32a256 256 0 0 1-56 51l-3 3-1-65-1-25v1-73l-1-21v-53l-1-63a67 67 0 0 1 20-48 18 18 0 0 1 5-4l2-1a18 18 0 0 1 11 0h1l1 1h1l1 1h1l1 1 2 2c13 13 20 30 20 49z" class="st214"/><path id="XMLID_2601_" d="m436 122-2 2a67 67 0 0 0-20 48l1 60v54l1 29v58l2 82-18 13-4 2-1-64v-31l-1-23v-64l-1-26v-27l-1-63a67 67 0 0 1 20-48 18 18 0 0 1 5-4h1l1-1a18 18 0 0 1 11 0h2v1h2l1 1 1 1z" class="st6"/><path id="XMLID_2328_" d="M457 268v22c-14-2-26-11-32-25-3-10-14-14-24-11l-6 3h-2v-22l1-1c20-8 43 2 51 23 3 6 7 9 12 11z" class="st16"/><path id="XMLID_2327_" d="m456 385-1 22c-13-2-24-11-30-24-3-10-14-15-24-11l-6 2-1 1v-23c21-8 43 2 51 23 2 5 6 9 11 10z" class="st16"/></g><path id="XMLID_2325_" d="M257 313h8v138h-8z" class="st23"/><path id="XMLID_2301_" d="M261 469c-2 0-4-2-4-4v-15h7v15c0 2-1 4-3 4z" class="st8"/><path id="XMLID_2258_" d="M153 313h8v138h-8z" class="st23"/><path id="XMLID_2295_" d="M156 469c-2 0-4-2-4-4v-15h8v15c0 2-2 4-4 4z" class="st8"/><path id="XMLID_2299_" d="M468 356h-23c-17 0-31-14-31-31s14-31 31-31h23c7 0 13 5 13 12v38c0 7-6 12-13 12z" class="st20"/><path id="XMLID_2300_" d="M481 324v20c0 7-6 13-13 13h-23a31 31 0 0 1-29-42c4 13 15 22 29 22h23c7 0 13-6 13-13z" class="st21"/></g></g></g></svg>