<svg xmlns="http://www.w3.org/2000/svg" xml:space="preserve" width="512" height="512">
  <circle cx="256" cy="256" r="256" fill="#F8B913"/>
  <path d="M512 256c0-22-3-43-8-63L351 40h-95v472c141 0 256-115 256-256z" opacity=".1"/>
  <path fill="#BC1E2D" d="M201 317h109v34H201z"/>
  <path d="M201 317h109v34H201z" opacity=".1"/>
  <path fill="#FFD0AE" d="M350 360c-75 0-58-36-63-73h-62c-5 37 12 73-63 73-47 0-63 21-63 67v31a255 255 0 0 0 315 0v-31c0-46-17-67-64-67z"/>
  <path fill="#EFF0F0" d="m341 355-85 20-85-20c-51 0-74 22-74 71v31a255 255 0 0 0 318 0v-31c0-49-23-71-74-71z"/>
  <path d="m288 308-1-19h-62l-1 19c9 6 19 9 32 9s23-3 32-9z" opacity=".1"/>
  <ellipse cx="181.2" cy="223.4" fill="#FFD0AE" rx="13.8" ry="16.3"/>
  <ellipse cx="331" cy="223.4" fill="#FFD0AE" rx="13.8" ry="16.3"/>
  <path fill="#FFD0AE" d="M270 107h-28c-36 0-65 42-65 78 0 0 2 127 79 127s79-127 79-127c0-36-29-78-65-78z"/>
  <path fill="#726658" d="M181 185c0-36 25-68 61-68h28c36 0 62 32 62 68 0 0 0 19-2 33l8-9c4-23 5-41 5-41 0-39-32-86-72-86h-30c-39 0-71 47-71 86 0 0 0 18 4 41l9 9c-2-14-2-33-2-33z"/>
  <path fill="#EFF0F0" d="M366 71a39 39 0 0 0-59-34 58 58 0 0 0-102 0c-5-3-12-5-20-5a39 39 0 0 0-15 75v72c0 10 38 18 86 18s87-8 87-18v-72c14-6 23-20 23-36z"/>
  <path fill="#726658" d="M256 255c-16 0-28 6-28 14h57c0-8-13-14-29-14zm-45-53c-7 0-13 4-13 9h36c0-5-16-9-23-9zm90 0c-7 0-23 4-23 9h36c0-5-6-9-13-9z"/>
  <path fill="#BC1E2D" d="m311 317-55 40-55-40-30 37 85 29 85-29z"/>
  <path fill="#BC1E2D" d="M242 357h28v28h-28zm3 28-14 43 23 9v-52z"/>
  <path d="m245 385-14 43 23 9v-52z" opacity=".1"/>
  <path fill="#BC1E2D" d="m265 385 21 58-11 15-21-15v-58z"/>
  <circle cx="191" cy="403.5" r="7.7" opacity=".7"/>
  <circle cx="191" cy="463.5" r="7.7" opacity=".7"/>
  <circle cx="321" cy="403.5" r="7.7" opacity=".7"/>
  <circle cx="321" cy="463.5" r="7.7" opacity=".7"/>
</svg>