<svg xmlns="http://www.w3.org/2000/svg" xml:space="preserve" viewBox="0 0 512 512">
  <path fill="#a9e7d8" d="M512 256A255 255 0 0 1 75 437 255 255 0 0 1 256 0a255 255 0 0 1 256 256z"/>
  <path fill="#93d8c6" d="M477 385a257 257 0 0 1-359 87 257 257 0 0 1-77-76v-16s6-52 19-94 31-73 57-32c0 0 6 31 15 54s22 36 34 3c0 0 3-16 11-26 9-9 24-13 49 11l2 3 5 6a170 170 0 0 0 36 31 98 98 0 0 0 27 11 66 66 0 0 0 16 1 71 71 0 0 0 43-19c4-3 8-7 11-12 0 0 20-12 40-17s40-2 41 31l8 24c5 12 12 26 22 30z"/>
  <path fill="#92441d" d="M395 471a253 253 0 0 1-250 16 253 253 0 0 1-27-15l4-29 4-28a132 132 0 0 1 2-12l1-2v-1a124 124 0 0 1 30-52v-1l1-1a122 122 0 0 1 26-20s1 0 1 0a106 106 0 0 1 19-9h2l1-1h2l2-1 2-1 3-1 3-1h1l4-2 4-1a4 4 0 0 0 2-1 4 4 0 0 0 1-3v-41h52v41a4 4 0 0 0 3 4l5 3 4 2h2l2 1 1 1h1l2 1h3v1a101 101 0 0 1 13 5h1l1 1h1a106 106 0 0 0 6 4 125 125 0 0 1 14 10 118 118 0 0 1 38 55l3 12 3 12 3 27 4 27z"/>
  <path fill="#80442a" d="m273 309-4 1-5 2-3 1-3 1-2 1-3 1h-1l-2 1h-2l-1 1h-1l-2 1h-1a100 100 0 0 0-14 7 131 131 0 0 0-22 16 111 111 0 0 0-5 5l-1 1a134 134 0 0 0-4 4l-1 1a119 119 0 0 0-20 34v1a105 105 0 0 0-2 6l-1 1a116 116 0 0 0-2 6v2a133 133 0 0 0-2 12l-1 5-1 4-1 8-1 9-2 16-3 16a16 16 0 0 0 5 14 219 219 0 0 0 18 15 258 258 0 0 1-65-30l4-29 4-28a132 132 0 0 1 3-12v-2a55 55 0 0 1 1-4 111 111 0 0 1 4-9v-1a123 123 0 0 1 20-34l1-1h1a153 153 0 0 1 3-4l1-1 1-1 12-11 14-9a111 111 0 0 1 19-9h2l2-1h1l2-1 3-1 2-1 3-1h1l4-2 4-1a4 4 0 0 0 3-2 4 4 0 0 0 0-2v-41h43v41a4 4 0 0 1-3 4z"/>
  <path fill="#e9b12d" d="M372 485a244 244 0 0 1-116 27 258 258 0 0 1-111-25l10-23 10-23 22-50 21-50 6-14 7-15 1-2v-2a3 3 0 0 1 6-1l1 1 1 1 7 5 6 5 5 4 5 4a9 9 0 0 0 12 0l11-9 11-9 1-1 2-1a3 3 0 0 1 5 1l1 3 1 3 8 17 7 17 30 68 30 69z"/>
  <path fill="#574865" d="M358 491a254 254 0 0 1-199 2l2-5 1-4 32-73 32-73a3 3 0 0 1 5-1l11 9 12 9a8 8 0 0 0 10 0l8-6 9-7 3-3 3-2a3 3 0 0 1 5 1l2 4 2 5 31 72 31 72z"/>
  <path fill="#6d4242" d="M285 275h-52v23a94 94 0 0 0 52 0v-23z"/>
  <path fill="#92441d" d="M348 130v62c0 23-9 38-22 50-12 13-28 22-42 34a42 42 0 0 1-55 0c-13-12-29-21-42-34a67 67 0 0 1-21-50v-62c0-24 9-45 23-60s34-25 56-25h23c22 0 42 10 57 25s23 36 23 60z"/>
  <path fill="#80442a" d="M202 192v-62c0-23 8-43 21-58s32-25 52-27a67 67 0 0 0-7 0h-23c-22 0-42 10-56 25a87 87 0 0 0-23 60v30a18 18 0 0 0-13 31c3 4 8 6 13 6 1 21 11 35 23 47s27 21 40 32c7 6 15 9 23 10s16 0 23-4a42 42 0 0 1-9-6c-14-12-30-21-42-34s-22-27-22-50z"/>
  <path fill="#92441d" d="M330 179a18 18 0 0 0 31 12 18 18 0 0 0-13-31 18 18 0 0 0-18 19z"/>
  <path fill="#3d2107" d="m233 157-2-1c-7-4-16-6-26-4-8 2-13 5-13 5a4 4 0 0 1-3-7l15-5c11-2 22 0 31 6a3 3 0 0 1-2 6z"/>
  <path fill="#1b305c" d="m219 176-2 8c-1 2-4 3-6 3s-4-1-5-3l-2-8 2-7c1-2 3-4 5-4s4 2 6 4l2 7z"/>
  <path fill="#3d2107" d="M279 157a3 3 0 0 1-2-7l15-5c12-2 23 0 32 6a3 3 0 1 1-4 5c-8-4-16-6-26-4-8 2-13 5-13 5h-2z"/>
  <path fill="#1b305c" d="M308 176c0 3-1 6-3 8s-3 3-5 3-4-1-5-3l-3-8c0-3 1-5 3-7 1-2 3-4 5-4s4 2 5 4c2 2 3 4 3 7z"/>
  <path fill="#6d4242" d="M265 207h-17a5 5 0 0 1-5-5v-1a5 5 0 0 1 5-4h17a5 5 0 0 1 4 4v1a5 5 0 0 1-4 5z"/>
  <path fill="#192b49" d="m225 172-2-1c-5-3-10-4-16-2-5 0-8 2-8 2a4 4 0 0 1-3-6l9-3c8-2 15-1 22 3a3 3 0 0 1-2 7zm89 0-2-1c-5-3-11-4-17-2-4 0-7 2-7 2a4 4 0 0 1-4-6l10-3c7-2 15-1 22 3a3 3 0 0 1-2 7z"/>
  <path fill="#6d4242" d="M166 171a7 7 0 0 0-5 13l5 2v-15zm182 15a7 7 0 0 0 5-13l-5-2v15z"/>
  <path fill="#e9b12d" d="M166 189a28 28 0 0 0-29 10 28 28 0 0 0 2 36 28 28 0 0 0 41-1 28 28 0 0 0-14-45zm-7 45a18 18 0 0 1-13-31 18 18 0 0 1 28 23 18 18 0 0 1-15 8zm204-45a27 27 0 0 0-20 2 27 27 0 0 0-12 13 27 27 0 0 0 12 37 27 27 0 0 0 32-6 28 28 0 0 0-12-46zm-8 45a18 18 0 0 1-17-13 18 18 0 0 1 13-23 18 18 0 0 1 23 18 18 18 0 0 1-19 18z"/>
  <path fill="#d74545" d="M166 160s8-16 24-32 42-33 78-34a56 56 0 0 1 27 6c7 4 17 10 26 19 10 10 19 23 27 41l9-19 9-18s3-10 1-25c-1-15-5-34-19-53 0 0-7-10-22-19-16-9-39-16-73-10 0 0-18-2-39 4s-42 18-48 48c0 0-12 5-18 20-6 14-6 37 18 72z"/>
  <path fill="#d56060" d="M265 74s8-10 21-21c14-10 34-20 57-19a14 14 0 0 1 9 4c3 3 8 7 12 13s8 12 8 19a14 14 0 0 1-9 15c-7 3-17 6-30 7-12 2-26 2-39-2l-14-8-15-8z"/>
  <path fill="#963a3a" d="M207 15c7 1 23 5 39 11s35 13 46 23l-9 14-9 15H157s0-12 4-25c5-14 16-30 39-38l4-1 3 1z"/>
  <path fill="#aa3e3e" d="M166 68s28-4 60-2c32 3 67 13 82 42 0 0-19-13-45-13s-63 13-97 65c0 0-12-15-18-34s-6-42 18-58z"/>
  <path fill="#fff" d="M236 230c0 5 3 10 6 13 4 4 9 6 14 6 6 0 10-2 14-6s6-8 6-13h-40z"/>
  <path fill="#d74545" d="m276 230-2 8-4 6-6 5-8 2c-5 0-10-3-14-7s-6-9-6-14h2c1 4 3 7 7 10s7 4 11 4c3 0 5 0 8-2a21 21 0 0 0 9-8l2-4h1zm-20-6-14 2c-4 1-6 4-6 4h40l-6-4c-3-2-9-2-14-2z"/>
</svg>