<svg xmlns="http://www.w3.org/2000/svg" xmlns:xlink="http://www.w3.org/1999/xlink" viewBox="0 0 512 512" xml:space="preserve"><path fill="#2961a5" d="M512 256a256 256 0 1 1-512 0 256 256 0 0 1 512 0z"/><defs><path id="a" d="M0 256a256 256 0 1 1 512 0 256 256 0 0 1-512 0z"/></defs><clipPath id="b"><use overflow="visible" xlink:href="#a"/></clipPath><path fill="#f0b39c" d="M295 370c0 20-16 37-37 37h-4c-21 0-37-17-37-37v-96c0-20 16-37 37-37h4c21 0 37 17 37 37v96z" clip-path="url(#b)"/><g clip-path="url(#b)"><path fill="#f0b39c" d="M442 516v-1c0-51-20-101-43-110l-100-40c-23-10-61-10-85 0l-101 40c-23 9-43 59-43 110v1h372z"/><path fill="#db4646" d="M442 515c0-51-20-101-43-110l-79-32a70 70 0 0 1-128 0l-79 32c-23 9-43 59-43 110v1h372v-1z"/></g><g clip-path="url(#b)"><path fill="#f0b39c" d="M182 245c8 16 4 32-8 35-13 4-28-7-36-23-7-16-3-32 9-35s28 7 35 23zm148 0c-7 16-3 32 9 35s27-7 35-23c7-17 3-32-9-36-12-3-28 8-35 24z"/><path fill="#ffdbc5" d="M355 251c0 81-93 124-157 73-76-60-56-233 58-233 54 0 99 45 99 102v58z"/><path fill="#bf642c" d="m179 64 3 26-26-1 18 29 35-28zm171 173h13l1-84-26-13zm-197-1h13l14-96-27 13z"/><path fill="#c96a46" d="M287 291c-13 20-49 20-61 0-4-5-12-1-8 4 16 27 60 27 77 0 3-5-5-10-8-4z"/><path fill="#f0b39c" d="M272 248c-1 9-8 16-17 16-8 0-14-5-16-12l-1 5a18 18 0 0 0 36 0l-2-9z"/><g fill="#704d70"><circle cx="219.2" cy="236.7" r="11.1"/><circle cx="292.8" cy="236.7" r="11.1"/></g><path fill="#bf642c" d="M254 75c-64 0-116 48-116 106 0 20 6 38 16 53l11-82h177l11 82c10-15 16-33 16-53 0-58-52-106-115-106z"/><ellipse cx="253.6" cy="153.8" fill="#bf642c" rx="100.7" ry="33.6"/><g fill="#f0b39c"><ellipse cx="304" cy="265.7" rx="22.4" ry="11.2"/><ellipse cx="203.2" cy="265.7" rx="22.4" ry="11.2"/></g></g></svg>