<svg xmlns="http://www.w3.org/2000/svg" xmlns:xlink="http://www.w3.org/1999/xlink" width="360" height="540" xmlns:v="https://vecta.io/nano"><rect width="359" height="539" rx="29.944" x=".5" y=".5" fill="#fff" stroke="#000"/><g fill="#f55"><path d="M15 30l-5 7v7l5-7v43h5V30h-5zm20 0a9.98 9.98 0 0 0-10 10v30a9.98 9.98 0 0 0 10 10 9.98 9.98 0 0 0 10-10V40a9.98 9.98 0 0 0-10-10zm0 5a4.99 4.99 0 0 1 5 5v30a5 5 0 1 1-10 0V40a4.99 4.99 0 0 1 5-5z"/><path d="M10 520l-5 7v7l5-7v43h5v-50h-5zm20 0a9.98 9.98 0 0 0-10 10v30a9.98 9.98 0 0 0 10 10 9.98 9.98 0 0 0 10-10v-30a9.98 9.98 0 0 0-10-10zm0 5a4.99 4.99 0 0 1 5 5v30a5 5 0 1 1-10 0v-30a4.99 4.99 0 0 1 5-5z" transform="matrix(-1 0 0 -1 355 1030.0002)"/><use xlink:href="#B"/><use xlink:href="#B" x="180"/><use xlink:href="#B" x="90" y="60"/><use xlink:href="#B" y="120"/><use xlink:href="#B" x="180" y="120"/><use xlink:href="#B" y="240"/><use xlink:href="#B" x="180" y="240"/><use xlink:href="#B" x="90" y="300"/><use xlink:href="#B" y="360"/><use xlink:href="#B" x="180" y="360"/><path d="M30 90s3 7.5 6.5 12.5 8.5 10 8.5 10-5 5-8.5 10S30 135 30 135s-3-7.5-6.5-12.5-8.5-10-8.5-10 5-5 8.5-10S30 90 30 90m300 315s3 7.5 6.5 12.5 8.5 10 8.5 10-5 5-8.5 10S330 450 330 450s-3-7.5-6.5-12.5-8.5-10-8.5-10 5-5 8.5-10S330 405 330 405"/></g><defs ><path id="B" d="M90 45s6 15 13 25 17 20 17 20-10 10-17 20-13 25-13 25-6-15-13-25-17-20-17-20 10-10 17-20 13-25 13-25"/></defs></svg>