<svg xmlns="http://www.w3.org/2000/svg" xmlns:v="https://vecta.io/nano" xmlns:xlink="http://www.w3.org/1999/xlink" width="360" height="540"><rect width="359" height="539" x=".5" y=".5" fill="#fff" stroke="#000" rx="29.944"/><g fill="#f55"><path d="M20 30v5 5h5v-5h10L25 80h5l10-45v-5H20zm320 480v-5-5h-5v5h-10l10-45h-5l-10 45v5h20zM30 90s3 7.5 6.5 12.5 8.5 10 8.5 10-5 5-8.5 10S30 135 30 135s-3-7.5-6.5-12.5-8.5-10-8.5-10 5-5 8.5-10S30 90 30 90m300 315s3 7.5 6.5 12.5 8.5 10 8.5 10-5 5-8.5 10S330 450 330 450s-3-7.5-6.5-12.5-8.5-10-8.5-10 5-5 8.5-10S330 405 330 405"/><use xlink:href="#B"/><use x="180" xlink:href="#B"/><use x="90" y="90" xlink:href="#B"/><use y="180" xlink:href="#B"/><use x="180" y="180" xlink:href="#B"/><use y="360" xlink:href="#B"/><use x="180" y="360" xlink:href="#B"/></g><defs><path id="B" d="M90 45s6 15 13 25 17 20 17 20-10 10-17 20-13 25-13 25-6-15-13-25-17-20-17-20 10-10 17-20 13-25 13-25"/></defs></svg>