<svg xmlns="http://www.w3.org/2000/svg" width="360" height="540" xmlns:v="https://vecta.io/nano"><rect width="359" height="539" rx="29.944" x=".5" y=".5" fill="#fff" stroke="#000"/><path d="M30 30a9.98 9.98 0 0 0-10 10v5c0 3.004 1.323 5.67 3.406 7.5C21.323 54.33 20 56.996 20 60v10a9.98 9.98 0 0 0 10 10 9.98 9.98 0 0 0 10-10V60c0-3.004-1.323-5.67-3.406-7.5C38.677 50.67 40 48.004 40 45v-5a9.98 9.98 0 0 0-10-10zm0 5a4.99 4.99 0 0 1 5 5v5a5 5 0 1 1-10 0v-5a4.99 4.99 0 0 1 5-5zm0 20a4.99 4.99 0 0 1 5 5v10a5 5 0 1 1-10 0V60a4.99 4.99 0 0 1 5-5zm300 455a9.98 9.98 0 0 1-10-10v-5c0-3.004 1.323-5.67 3.406-7.5-2.083-1.83-3.406-4.496-3.406-7.5v-10a10 10 0 1 1 20 0v10c0 3.004-1.323 5.67-3.406 7.5 2.083 1.83 3.406 4.496 3.406 7.5v5a9.98 9.98 0 0 1-10 10zm0-5a4.99 4.99 0 0 0 5-5v-5a5 5 0 1 0-10 0v5a4.99 4.99 0 0 0 5 5zm0-20a4.99 4.99 0 0 0 5-5v-10a5 5 0 1 0-10 0v10a4.99 4.99 0 0 0 5 5zm-.5-44c0 5.523-2.858 9-7 9s-7.5-4.477-7.5-10c.017-.478.009-.946 0-1.406 0-3.649 1.338-7.188 2.5-10.5 1.195-3.405 2.917-6.39 4.531-9.437C324.532 413.937 330 405 330 405s5.468 8.937 7.969 13.656c1.614 3.047 3.337 6.032 4.531 9.438 1.162 3.312 2.5 6.851 2.5 10.5-.014.487-.009.957 0 1.406 0 5.523-3.358 10-7.5 10s-7-3.477-7-9c0-1-1-1-1 0zM89 63c0-11.046-5.716-18-14-18s-15 8.954-15 20c.035.956.018 1.891 0 2.813 0 7.298 2.677 14.377 5 21 2.389 6.811 5.834 12.781 9.063 18.875C79.064 117.127 90 135 90 135s10.936-17.873 15.938-27.312c3.229-6.094 6.673-12.064 9.063-18.875 2.323-6.623 5-13.702 5-21-.028-.974-.019-1.915 0-2.812 0-11.046-6.716-20-15-20s-14 6.954-14 18c0 2-2 2-2 0zm180 0c0-11.046-5.716-18-14-18s-15 8.954-15 20c.035.956.018 1.891 0 2.813 0 7.298 2.677 14.377 5 21 2.389 6.811 5.834 12.781 9.063 18.875C259.064 117.127 270 135 270 135s10.936-17.873 15.938-27.312c3.229-6.094 6.673-12.064 9.063-18.875 2.323-6.623 5-13.702 5-21-.028-.974-.019-1.915 0-2.812 0-11.046-6.716-20-15-20s-14 6.954-14 18c0 2-2 2-2 0zm-90 90c0-11.046-5.716-18-14-18s-15 8.954-15 20c.035.956.018 1.891 0 2.813 0 7.298 2.677 14.377 5 21 2.389 6.811 5.834 12.781 9.063 18.875C169.064 207.127 180 225 180 225s10.936-17.873 15.938-27.312c3.229-6.094 6.673-12.064 9.063-18.875 2.323-6.623 5-13.702 5-21-.028-.974-.019-1.915 0-2.812 0-11.046-6.716-20-15-20s-14 6.954-14 18c0 2-2 2-2 0zm-90 90c0-11.046-5.716-18-14-18s-15 8.954-15 20c.035.956.018 1.891 0 2.813 0 7.298 2.677 14.377 5 21 2.389 6.811 5.834 12.781 9.063 18.875C79.064 297.127 90 315 90 315s10.936-17.873 15.938-27.312c3.229-6.094 6.673-12.064 9.063-18.875 2.323-6.623 5-13.702 5-21-.028-.974-.019-1.915 0-2.812 0-11.046-6.716-20-15-20s-14 6.954-14 18c0 2-2 2-2 0zm180 0c0-11.046-5.716-18-14-18s-15 8.954-15 20c.035.956.018 1.891 0 2.813 0 7.298 2.677 14.377 5 21 2.389 6.811 5.834 12.781 9.063 18.875C259.064 297.127 270 315 270 315s10.936-17.873 15.938-27.312c3.229-6.094 6.673-12.064 9.063-18.875 2.323-6.623 5-13.702 5-21-.028-.974-.019-1.915 0-2.812 0-11.046-6.716-20-15-20s-14 6.954-14 18c0 2-2 2-2 0zm-90 144c0 11.046-5.716 18-14 18s-15-8.954-15-20c.035-.956.018-1.891 0-2.812 0-7.298 2.677-14.377 5-21 2.389-6.811 5.834-12.781 9.063-18.875C169.064 332.873 180 315 180 315s10.936 17.873 15.938 27.313c3.229 6.094 6.673 12.064 9.063 18.875 2.323 6.623 5 13.702 5 21-.028.974-.019 1.915 0 2.813 0 11.046-6.716 20-15 20s-14-6.954-14-18c0-2-2-2-2 0zm-90 90c0 11.046-5.716 18-14 18s-15-8.954-15-20c.035-.956.018-1.891 0-2.812 0-7.298 2.677-14.377 5-21 2.389-6.811 5.834-12.781 9.063-18.875C79.064 422.873 90 405 90 405s10.936 17.873 15.938 27.313c3.229 6.094 6.673 12.064 9.063 18.875 2.323 6.623 5 13.702 5 21-.028.974-.019 1.915 0 2.813 0 11.046-6.716 20-15 20s-14-6.954-14-18c0-2-2-2-2 0zm180 0c0 11.046-5.716 18-14 18s-15-8.954-15-20c.035-.956.018-1.891 0-2.812 0-7.298 2.677-14.377 5-21 2.389-6.811 5.834-12.781 9.063-18.875C259.064 422.873 270 405 270 405s10.936 17.873 15.938 27.313c3.229 6.094 6.673 12.064 9.063 18.875 2.323 6.623 5 13.702 5 21-.028.974-.019 1.915 0 2.813 0 11.046-6.716 20-15 20s-14-6.954-14-18c0-2-2-2-2 0zM29.5 99c0-5.523-2.858-9-7-9S15 94.477 15 100a24.83 24.83 0 0 1 0 1.406c0 3.649 1.338 7.188 2.5 10.5 1.195 3.405 2.917 6.39 4.531 9.438C24.532 126.064 30 135 30 135s5.468-8.937 7.969-13.656c1.614-3.047 3.337-6.032 4.531-9.437 1.162-3.312 2.5-6.851 2.5-10.5-.014-.487-.009-.957 0-1.406 0-5.523-3.358-10-7.5-10s-7 3.477-7 9c0 1-1 1-1 0z" fill="#f55"/></svg>