<svg xmlns="http://www.w3.org/2000/svg" width="360" height="540" xmlns:v="https://vecta.io/nano"><rect width="359" height="539" rx="29.944" x=".5" y=".5" fill="#fff" stroke="#000"/><path d="M180 225s6 15 13 25 17 20 17 20-10 10-17 20-13 25-13 25-6-15-13-25-17-20-17-20 10-10 17-20 13-25 13-25M27.5 30l-9 50h5l2.344-13h8.313L36.5 80h5l-9-50h-5zM30 43.906L33.25 62h-6.5L30 43.906zM327.5 510l-9-50h5l2.344 13h8.313l2.344-13h5l-9 50h-5zm2.5-13.906L333.25 478h-6.5l3.25 18.094zM30 90s3 7.5 6.5 12.5 8.5 10 8.5 10-5 5-8.5 10S30 135 30 135s-3-7.5-6.5-12.5-8.5-10-8.5-10 5-5 8.5-10S30 90 30 90m300 315s3 7.5 6.5 12.5 8.5 10 8.5 10-5 5-8.5 10S330 450 330 450s-3-7.5-6.5-12.5-8.5-10-8.5-10 5-5 8.5-10S330 405 330 405" fill="#f55"/></svg>