<svg xmlns="http://www.w3.org/2000/svg" width="360" height="540" xmlns:v="https://vecta.io/nano"><rect width="359" height="539" rx="29.944" x=".5" y=".5" fill="#fff" stroke="#000"/><path d="M27.5 30l-9 50h5l2.344-13h8.313L36.5 80h5l-9-50h-5zM30 43.906L33.25 62h-6.5L30 43.906zM327.5 510l-9-50h5l2.344 13h8.313l2.344-13h5l-9 50h-5zm2.5-13.906L333.25 478h-6.5l3.25 18.094zM179 243c0-11.046-5.716-18-14-18s-15 8.954-15 20c.035.956.018 1.891 0 2.813 0 7.298 2.677 14.377 5 21 2.389 6.811 5.834 12.781 9.063 18.875C169.064 297.127 180 315 180 315s10.936-17.873 15.938-27.312c3.229-6.094 6.673-12.064 9.063-18.875 2.323-6.623 5-13.702 5-21-.028-.974-.019-1.915 0-2.812 0-11.046-6.716-20-15-20s-14 6.954-14 18c0 2-2 2-2 0zM29.5 99c0-5.523-2.858-9-7-9S15 94.477 15 100a24.83 24.83 0 0 1 0 1.406c0 3.649 1.338 7.188 2.5 10.5 1.195 3.405 2.917 6.39 4.531 9.438C24.532 126.064 30 135 30 135s5.468-8.937 7.969-13.656c1.614-3.047 3.337-6.032 4.531-9.437 1.162-3.312 2.5-6.851 2.5-10.5-.014-.487-.009-.957 0-1.406 0-5.523-3.358-10-7.5-10s-7 3.477-7 9c0 1-1 1-1 0zm300 342c0 5.523-2.858 9-7 9s-7.5-4.477-7.5-10c.017-.478.009-.946 0-1.406 0-3.649 1.338-7.188 2.5-10.5 1.195-3.405 2.917-6.39 4.531-9.437C324.532 413.937 330 405 330 405s5.468 8.937 7.969 13.656c1.614 3.047 3.337 6.032 4.531 9.438 1.162 3.312 2.5 6.851 2.5 10.5-.014.487-.009.957 0 1.406 0 5.523-3.358 10-7.5 10s-7-3.477-7-9c0-1-1-1-1 0z" fill="#f55"/></svg>