<svg xmlns="http://www.w3.org/2000/svg" xmlns:v="https://vecta.io/nano" xmlns:xlink="http://www.w3.org/1999/xlink" width="360" height="540"><style>.B{fill:#ff5}.C{stroke-linecap:round}.D{stroke-linejoin:round}.E{fill:none}.F{fill:#55a}.G{stroke-width:1.984}.H{fill:#f55}.I{stroke:#55a}.J{stroke:#000}.K{stroke-width:2.055}</style><path fill="#fff" stroke-width=".992" d="M30.437.496h299.126c16.583 0 29.941 13.358 29.941 29.941v479.126c0 16.583-13.358 29.941-29.941 29.941H30.437c-16.583 0-29.941-13.358-29.941-29.941V30.437C.496 13.854 13.854.496 30.437.496z" class="J"/><path d="M260.22 302.315l-9.531.673-12.224-2.374-13.465-5.28-11.728-6.626-9.035-7.512-16.654-20.764-8.858-12.402-8.327-7.335-16.193-11.906-13.961-7.476-17.185-5.102-13.429-1.382-9.709-.177-11.055 3.26 11.197 19.665 9.531-.673 12.26 2.409 13.429 5.244 11.764 6.661 9 7.476 16.689 20.764 8.858 12.437 8.327 7.299 16.157 11.906 13.961 7.512 17.185 5.102 13.429 1.346 9.709.177 11.055-3.224z" class="B"/><path d="M59.988 30.012h270v360" class="E G I"/><path d="M30.012 30.012v4.996h4.996v35.008c0 2.728-2.232 4.996-4.996 4.996s-4.996-2.268-4.996-4.996v-5.031h-5.031v5.031c0 5.492 4.5 9.992 10.028 9.992s9.992-4.5 9.992-9.992V30.012zm299.976 479.976v-4.996h-4.996v-35.008c0-2.728 2.232-4.996 4.996-4.996s4.996 2.268 4.996 4.996v5.031h5.031v-5.031c0-5.492-4.5-9.992-10.028-9.992s-9.992 4.5-9.992 9.992v40.004z"/><g class="B"><path d="M170.079 184.429l37.878 30.756-.283 62.717-3.862 2.657-6.803-6.803-10.346-13.89-8.575-12.118-3.862-4.146-4.713-3.862zm52.086 108.851l24.839-18.035 2.374 4.748-21.295 16.866z"/><path d="M203.811 279.992l36.106-23.669 2.055 4.713-33.732 22.217z"/></g><path d="M217.134 208.382l-.319 63.035 23.988-15.697-3.862-17.752-2.657-17.15-.602-15.98.319-8.575z" class="H"/><path d="M207.673 283.252l34.299-22.783 3.543 9.177 2.091 5.598-25.441 18.354s-6.484-2.126-9.177-4.146c-2.197-1.63-5.315-6.201-5.315-6.201zM148.004 167.74l59.244 47.268L234 198l-.248-13.996.744-13.252.496-10.488-27.248 18.496-35.008-28.772-4.5-2.232-2.48-2.268-4.004-.496-2.268-3.26-2.976.78-3.012-3.756h-3.012l-2.48-2.268z"/><path d="M138.012 131.492l-.248 89.008 5.988 2.232 4.996 2.764-.248-89.256-3.26-.496-3.224-3.26-2.02.78z"/><path d="M260.008 208.24l20.232-9.992 6.024 16.512c2.126 5.457 4.039 11.02 6.732 16.228 1.807 3.508 3.827 6.909 6.236 10.028 2.374 3.012 8.008 8.22 8.008 8.22l-.248 78.52s-9.886-11.976-13.996-18.496c-3.579-5.705-6.307-11.941-9.248-18-3.827-7.937-7.902-15.768-10.984-24.024-2.091-5.528-3.543-11.268-5.031-16.972-1.524-5.953-2.87-11.976-3.969-18-.815-4.394-1.311-8.858-2.02-13.252l-1.736-10.772z" class="D G H I"/><path d="M263.764 149.492l27.248 14.74-2.764 10.276.992 9.992 3.012 6.732-8.008 6.024-13.748 5.988-10.24 4.252-.992-9.992v-12.012l.744-13.996 2.232-15.732z" class="B"/><path d="M226.488 296.752l22.748-17.008 6.024 13.004 4.996 10.24s-11.091.709-16.512-.248c-5.988-1.063-17.256-5.988-17.256-5.988z" class="F"/><path d="M329.988 382.748l-16.866-14.634.248-279.744 16.618-.106z"/><path d="M95.988 148.606l.177 66.827-6.909 2.126-16.937-23.35c-4.181-5.563-8.681-10.913-12.756-16.618-.992-1.382-2.835-4.217-2.835-4.217s11.091-8.079 16.795-11.87c4.075-2.657 8.185-5.173 12.402-7.583 3.295-1.878 10.063-5.315 10.063-5.315z" class="F"/><path d="M112.252 140.492l-.354 74.232-8.291-.177c-2.87.142-8.504.886-8.504.886l.177-66.827s6.307-3.402 9.531-4.925l7.441-3.189z"/><path d="M205.228 64.134c-7.051.106-14.138-.106-21.189.354-5.882.354-11.728 1.028-17.504 1.913-3.827.602-7.547 1.559-11.339 2.303l-1.772 12.366-1.736 13.996c-.496 3.472-.78 6.98-1.594 10.417-.496 2.055-1.311 4.004-1.949 6.024l-2.657.354c-.886-.886-1.453-2.303-2.657-2.657-1.594-.496-3.472.071-4.961.886-2.126 1.134-3.65 3.224-4.925 5.28-1.24 1.984-2.232 4.217-2.48 6.555-.142 1.488.106 3.047.709 4.429.461 1.028 1.098 2.161 2.126 2.657.992.461 2.232 0 3.366 0 .567.815.957 1.807 1.736 2.445 1.205.992 2.835 1.311 4.252 1.949.78.886 1.24 2.161 2.303 2.657.921.425 2.02 0 3.012 0 .886.815 1.524 2.02 2.657 2.48.921.354 1.984 0 2.976 0 1.028 1.169 1.594 2.906 3.012 3.543 1.028.425 2.232-.142 3.366-.177.886 1.063 1.417 2.587 2.657 3.189 1.028.461 2.232 0 3.366 0 1.098.921 2.091 2.055 3.331 2.799 1.453.886 3.012 1.559 4.606 1.949 1.665.39 3.437.673 5.138.354 1.843-.319 3.614-1.205 5.138-2.303 1.665-1.205 3.083-2.835 4.217-4.571 1.594-2.374 2.657-5.067 3.543-7.795 1.594-4.925 2.091-10.098 3.012-15.201 1.169-6.626 2.02-13.323 3.189-19.984l3.685-19.772 3.366-16.441z" class="B"/><g class="D G I"><path d="M131.988 30.012l20.02 40.004s10.169-2.693 15.378-3.543c8.15-1.311 16.37-2.197 24.626-2.48 9.992-.319 20.02.142 29.976.992 11.764 1.063 35.008 5.031 35.008 5.031l22.996-40.004z" class="H"/><path d="M146.835 31.465L162 61.016c6.484-2.268 11.409-2.339 19.701-3.26l-3.898-26.291h-5.74l5.102 22.748c-4.748.319-8.504.283-12.614 1.913l-11.126-24.661zm39.862 0l3.047 25.299c10.063-.921 18.142-1.488 28.205-.461l5.492-24.839h-6.449l-3.047 19.807c-7.902-.461-12.579.035-19.205.496l-2.232-20.303zm46.559 0l-7.335 25.051c7.37.638 18.071 1.594 26.079 3.472l13.713-28.524h-6.343l-10.382 23.528c-4.465-1.205-12.012-1.736-16.476-2.374l6.236-21.154z" class="F"/><g class="E"><g class="C"><path d="M205.016 64.984L199.984 90c-1.807 9.957-2.906 20.091-4.996 30.012-1.382 6.732-1.594 13.996-4.996 19.984-2.303 4.11-5.421 8.787-9.992 9.992-4.429 1.169-10.205-.177-13.252-3.579-2.551-2.87-3.083-7.795-1.736-11.409 1.417-3.933 5.28-8.327 9.461-8.185 4.358.142 9.177 4.89 9.248 9.213.035 3.898-4.181 8.256-8.079 8.504-2.409.177-5.315-2.126-5.634-4.535-.39-2.799 2.161-6.839 4.996-6.803 1.701 0 4.004 1.984 2.941 4.146m21.224-73.171c-2.941 8.965-3.685 18.071-5.244 27.177-1.594 9.035-2.02 18.248-4.146 27.177-1.701 7.087-3.614 14.634-6.803 20.764m9.496-75.118c-2.232 7.795-2.906 16.051-4.146 24.094-1.205 7.866-1.63 15.874-3.154 23.669-1.098 5.669-1.913 11.339-4.323 16.689m5.671-64.062c-1.984 7.441-2.587 15.343-3.685 23.031-1.063 7.512-1.453 15.201-2.799 22.642-.992 5.386-1.701 10.843-3.862 15.945m4.535-60.98c-1.807 7.087-2.339 14.563-3.331 21.898-.957 7.122-1.311 14.386-2.516 21.472-.886 5.138-1.524 10.311-3.472 15.13m3.614-57.969c-1.772 6.732-2.339 13.854-3.295 20.799-.992 6.803-1.311 13.713-2.551 20.445-.886 4.89-1.524 9.78-3.472 14.386m2.94-54.744c-1.736 6.307-2.126 12.579-3.047 18.85-.921 6.343-1.276 12.756-2.48 19.028-.85 4.535-1.453 9.106-3.366 13.394m2.728-50.351c-1.665 5.74-2.161 11.799-3.047 17.717-.886 5.776-1.205 11.657-2.303 17.398-.815 4.146-1.417 8.327-3.189 12.26"/><path d="M155.48 69.484c-1.417 5.138-1.843 10.205-2.587 15.343-.78 5.173-1.028 10.453-1.984 15.591-.673 3.72-1.169 7.476-2.693 10.984m27.213 15.803c-1.63-1.098-3.083-3.083-5.031-3.154-3.224-.106-6.413 2.055-8.504 4.465-2.232 2.587-3.579 6.272-3.331 9.673.142 2.445 1.346 5.067 3.295 6.555.957.709 2.02.531 3.579.673"/><path d="M168.945 123.98c-1.346-1.488-2.374-2.657-3.969-2.764-3.224-.177-6.413 2.055-8.504 4.5-2.232 2.551-3.579 6.236-3.331 9.638.142 2.445 1.205 5.28 3.295 6.555.992.602 1.878.709 3.472-.071m4.147-20.834c-1.63-1.098-3.083-3.083-5.031-3.154-3.224-.106-6.413 2.055-8.504 4.5-2.232 2.551-3.579 6.236-3.331 9.638.142 2.445 1.205 5.244 3.295 6.555.886.567 1.63.602 3.189.071m3.65-20.976c-1.24-1.772-2.48-2.657-4.146-2.764-3.189-.142-6.413 2.055-8.504 4.5-2.197 2.551-3.543 6.236-3.331 9.638.177 2.445 1.311 5.138 3.295 6.555.921.638 1.63.85 3.366.461m3.615-21.756c-.602-1.488-2.232-2.516-3.756-2.622-3.189-.213-6.413 2.055-8.469 4.465-2.232 2.587-3.579 6.272-3.366 9.673.177 2.445 1.311 5.102 3.331 6.52.744.567 1.169.248 2.728.39m3.579-21.013c-.602-1.772-1.772-2.374-3.083-2.48-3.189-.319-6.413 2.02-8.504 4.465-2.232 2.587-3.437 6.236-3.331 9.638.035 1.807.638 3.827 1.984 4.996 1.063.957 2.551.992 4.11 1.098m119.942-58.926l-2.516 30.437c-.567 5.528-1.063 11.091-2.02 16.583-1.311 7.264-1.63 14.988-4.996 21.543-2.055 3.969-5.35 7.299-8.858 9.992-3.224 2.48-6.945 4.5-10.913 5.457-4.11 1.028-8.539 1.098-12.72.248-4.146-.886-7.831-3.224-11.551-5.244-4.677-2.516-8.929-5.74-13.394-8.61"/></g><path d="M202.961 83.87c3.933-1.134 7.76-2.764 11.799-3.402 2.622-.39 5.421-.921 7.972-.213 1.276.354 3.579 1.382 3.402 2.161-.106.39-.744.319-1.134.319-1.488.035-2.835-.921-4.323-1.134-2.161-.283-4.394-.213-6.591 0-3.756.39-7.406 1.524-11.126 2.268z"/><path d="M225 92.161c.461-.496 1.736-.921 1.346-1.453-.461-.744-3.295-2.551-5.209-3.295-1.807-.709-3.791-.992-5.776-1.028-2.055-.071-4.146.248-6.165.78-1.382.39-2.48.992-4.039 1.665" class="C"/><path d="M200.799 93.437c3.331-.85 6.591-2.126 9.992-2.516 2.409-.283 4.89-.354 7.264.106 1.949.39 3.862 1.134 5.492 2.197 1.063.744 1.878 1.772 2.693 2.799-1.63.709-3.154 1.736-4.89 2.161-2.728.709-5.598.992-8.398.673-2.374-.248-4.642-1.169-6.803-2.161-1.913-.85-3.543-2.197-5.35-3.26z"/><path d="M209.197 91.949c.106 1.169-.319 2.48.248 3.508.673 1.24 2.055 2.055 3.402 2.516 1.028.319 2.268.354 3.295 0 .992-.39 1.843-1.169 2.374-2.055.744-1.24.602-2.799.921-4.217" class="C"/></g><g class="F"><path d="M212.988 92.764c-.319.354-.177 1.028.071 1.417.283.461.815.815 1.311.815.531.035 1.063-.319 1.311-.744.319-.461.496-1.24.106-1.63-.673-.638-2.197-.496-2.799.142z"/><path d="M208.878 103.854c2.374-.461 5.705-.992 8.398-2.02 2.374-.921 4.642-2.693 6.697-3.65" class="C"/></g><path d="M237.154 86.492c-.602 1.488-1.524 2.87-1.843 4.429-.567 3.189-.142 6.52.248 9.78.461 3.969 1.913 7.831 2.587 11.799.425 2.268 1.453 4.642.921 6.909-.248 1.134-1.098 2.055-1.913 2.835-1.028.957-2.445 1.453-3.65 2.161m-9.638-13.145c-1.559 1.701-3.827 2.941-4.677 5.102-.39 1.028-.461 2.268 0 3.295.567 1.169 1.701 2.197 2.976 2.48 1.028.248 2.126-.319 3.047-.78 1.205-.638 1.878-2.055 3.083-2.622.85-.425 1.913-.921 2.835-.567.283.106.638.496.567.78-.319 1.028-1.984.78-2.941 1.134l-3.862 1.382" class="E C"/><path d="M216.319 132.449c1.594-.815 3.862-.638 5.776-.602 1.984.035 3.898.957 5.846.886 2.232-.106 4.287-1.594 6.555-1.594 1.63-.035 3.508.709 4.783 1.063-.071.567-.248 1.311 0 1.736-1.63-.602-3.969-1.488-5.988-1.24-1.913.248-3.295 2.445-5.244 2.48-2.232.071-3.969-2.48-6.236-2.587-2.161-.071-4.429 1.63-6.13 2.02a4.02 4.02 0 0 0 .638-2.161z" class="F"/><path d="M220.252 139.394c1.594.673 3.083 1.701 4.783 2.02 1.24.248 2.587.213 3.862-.035.85-.142 1.63-.567 2.445-.886l2.197-1.028m-1.771 4.925c-1.169-.496-2.268-.921-3.437-.921-.992 0-1.913.39-2.835.815" class="C E"/><path d="M238.287 83.551c1.559-1.843 4.996-2.303 7.689-2.516 1.984-.142 3.933.39 5.846.957 1.346.39 2.657 1.134 3.933 1.736-2.161-.425-4.394-1.205-6.626-1.276-1.949-.035-3.898.354-5.811.78-1.346.319-2.587.957-3.791 1.594-.496.283-1.63-.815-1.24-1.276z" class="F"/><g class="E"><path d="M237.72 90.354c1.559-.78 2.976-1.843 4.642-2.268 2.339-.673 4.89-.992 7.264-.567 1.594.283 2.941 1.346 4.429 1.984" class="C"/><path d="M236.693 93.65c1.701-.673 3.791-1.205 5.705-1.453 2.232-.283 4.535-.354 6.768-.071 1.311.177 2.693.425 3.862 1.098.709.425 1.169 1.205 1.772 1.807l-.354 2.728c-1.169.425-2.339 1.028-3.579 1.24-1.665.319-3.437.319-5.138.213-1.843-.106-3.72-.213-5.457-.886-1.311-.531-2.48-1.417-3.579-2.339-.354-.319-.638-.673-.957-1.028.319-.425.461-1.098.957-1.311z"/><path d="M241.087 92.906c.071 1.169-.319 2.48.248 3.508.673 1.24 2.055 2.091 3.402 2.516 1.028.354 2.268.39 3.295 0 .957-.354 1.843-1.134 2.374-2.055.744-1.205.602-2.799.921-4.181" class="C"/></g><path d="M244.559 93.756c-.319.354-.177.992.071 1.417.283.425.815.78 1.311.815.531 0 1.063-.319 1.311-.744.319-.461.496-1.276.106-1.665-.673-.602-2.161-.496-2.799.177z" class="F"/><path d="M237.508 99.071c1.276 1.382 2.303 3.012 3.791 4.181 1.205.921 2.657 1.417 4.004 2.126" class="C E"/><g class="B"><path d="M253.559 108.602c.673 2.906 1.382 4.854 2.622 7.016 1.276 2.126 2.728 4.252 4.783 5.634 1.63 1.063 3.614 1.913 5.563 1.736 1.772-.142 3.65-.992 4.748-2.409s1.276-3.472 1.169-5.28c-.106-1.63-.567-3.402-1.665-4.642-.957-1.134-2.409-1.913-3.862-2.055-1.028-.106-2.197.071-2.941.78-.567.531-.78 1.453-.78 2.232.035.85-.071 1.736.992 2.339-.78-.319-1.311-1.311-1.878-2.055-.744-1.063-1.382-2.268-1.913-3.508-.638-1.382-1.063-2.87-1.488-4.358l-1.346-6.13-2.055-9.638-1.949 20.339zm-2.728 19.985c.638 2.906 2.587 8.575 4.854 12.366 1.276 2.126 2.799 4.181 4.783 5.634 1.594 1.169 3.472 2.48 5.457 2.339 1.878-.142 3.756-1.453 4.854-3.012 1.028-1.453 1.276-3.472 1.169-5.244-.106-1.665-.567-3.437-1.665-4.677a6.29 6.29 0 0 0-3.898-2.055c-.992-.106-2.161.106-2.906.78-.567.531-.815 1.453-.78 2.232.071.815.035 1.559 1.063 2.161-.78-.319-1.382-1.134-1.949-1.843-.815-1.063-1.382-2.303-1.949-3.508-.602-1.417-.992-2.941-1.453-4.394l-1.559-5.244c-1.169-4.11-2.976-9.709-3.508-12.26-.567 5.528-1.949 11.161-2.516 16.724z"/><path d="M248.598 136.417l1.559 4.217c.744 1.524 2.622 4.358 2.622 4.358l4.89 2.055c1.559.567 4.748 1.453 4.748 1.453s-3.685-2.87-5.138-4.677c-1.276-1.559-2.161-3.402-3.047-5.244-.815-1.772-1.382-3.685-2.02-5.563l-1.559-5.067-.992 4.996c-.283 1.169-1.063 3.472-1.063 3.472z"/><path d="M252.78 144.992l-6.803-3.898 2.622-4.748zm-70.371 4.217l24.909 20.693 28.063-18.461-.673 8.965-27.035 18.602-35.114-28.984c2.835.957 6.591.815 9.85-.815z"/></g><g class="C E"><path d="M112.252 158.528l9.354 10.594-9.177 9.709"/><path d="M112.606 164.941l3.366 3.898-3.366 3.508"/></g><path d="M125.504 146.516l-9.354 9.709 9 9.886 9.106-9.886zm-.177 4.181l5.35 4.996-5.35 5.882-5.173-5.173z" class="F"/><path d="M329.988 52.016l-37.984 36h37.984z" class="B"/><path d="M329.988 59.988l-22.996 22.004h22.996z" class="H"/><g class="C E"><path d="M111.685 184.11l9.354 10.63-9.177 9.709"/><path d="M112.039 190.559l3.366 3.862-3.366 3.543m25.122-38.338l-9.177 9.85 9.177 9.709m-.177-13.89l-3.366 3.898 3.366 3.508m-.531 30.968l-8.61-9.283 9.177-9.709m-.177 13.89l-3.331-3.862 3.331-3.543"/></g><path d="M124.512 172.276l-9.354 9.709 9 9.886 9.496-10.063zm-.177 4.181l5.35 4.996-5.35 5.882-5.173-5.173zm.567 21.189l-9.319 9.709 9 9.425 9.673-9.213zm-.142 4.181l5.35 4.996-5.35 5.882-5.209-5.138z" class="F"/><g class="C E"><path d="M137.374 152.291l-8.398-9.071 7.831-8.398"/><path d="M137.232 147.012l-3.366-3.508 2.764-3.331m-23.988 14.032l9.957-10.417-5.74-6.059"/><path d="M112.996 147.791l3.366-3.898-3.366-3.543"/></g><path d="M111.756 210.295l3.862 4.606m21.862-4.818l-7.087 7.299m-18.247-76.606l-.567 73.878m26.114-82.914l-.213 88.406" class="H C"/><path d="M121.181 136.169l4.394 4.394 8.469-8.433-1.346-2.303z" class="F"/><path d="M306.992 88.016v70.972l6.024 2.02V88.016zm6.024 279.992V166.004h-6.024v203.988l22.996 20.02v-7.016z" class="B"/></g><use class="B" xlink:href="#B"/><use y="13.996" class="B" xlink:href="#B"/><path d="M324.496 97.016c-1.169 0-2.48 1.311-2.48 2.48s1.311 2.516 2.48 2.516 2.516-1.346 2.516-2.516-1.346-2.48-2.516-2.48z" class="B"/><use class="B" xlink:href="#C"/><path d="M321.661 138.756c-1.205 0-2.516 1.311-2.516 2.516 0 1.169 1.311 2.48 2.516 2.48 1.169 0 2.48-1.311 2.48-2.48 0-1.205-1.311-2.516-2.48-2.516z" class="B"/><use class="B" xlink:href="#D"/><path d="M324.638 145.772c-1.169 0-2.48 1.311-2.48 2.48 0 1.205 1.311 2.516 2.48 2.516 1.205 0 2.516-1.311 2.516-2.516 0-1.169-1.311-2.48-2.516-2.48zm-5.988 0c-1.169 0-2.516 1.311-2.516 2.48 0 1.205 1.346 2.516 2.516 2.516s2.516-1.311 2.516-2.516c0-1.169-1.346-2.48-2.516-2.48z" class="B"/><use class="B" xlink:href="#E"/><use y="13.996" class="B" xlink:href="#E"/><use class="B" xlink:href="#F"/><use x="-3.189" y="41.776" class="B" xlink:href="#D"/><use class="B" xlink:href="#G"/><path d="M321.272 251.079c-1.169 0-2.516 1.311-2.516 2.516 0 1.169 1.346 2.48 2.516 2.48s2.48-1.311 2.48-2.48c0-1.205-1.311-2.516-2.48-2.516zm2.976-7.016c-1.169 0-2.48 1.346-2.48 2.516s1.311 2.516 2.48 2.516c1.205 0 2.516-1.346 2.516-2.516s-1.311-2.516-2.516-2.516zm-5.988 0c-1.169 0-2.48 1.346-2.48 2.516s1.311 2.516 2.48 2.516 2.516-1.346 2.516-2.516-1.346-2.516-2.516-2.516z" class="B"/><use x="2.764" y="188.468" class="B" xlink:href="#C"/><use y="62.397" class="B" xlink:href="#G"/><use x="2.764" y="202.465" class="B" xlink:href="#B"/><path d="M318.26 292.465c-1.169 0-2.48 1.311-2.48 2.516 0 1.169 1.311 2.48 2.48 2.48s2.516-1.311 2.516-2.48c0-1.205-1.346-2.516-2.516-2.516z" class="B"/><use class="B" xlink:href="#H"/><use y="13.996" class="B" xlink:href="#H"/><path d="M323.681 341.043c-1.169 0-2.48 1.346-2.48 2.516s1.311 2.48 2.48 2.48 2.516-1.311 2.516-2.48-1.346-2.516-2.516-2.516z" class="B"/><use x="-6.768" y="146.515" class="B" xlink:href="#F"/><path d="M315 126.992v-4.996l13.004-12.012v5.031zm0 8.008v-4.996l13.004-12.012v4.996zm0 41.988v-4.996l13.004-11.976v4.996zm0 8.008V180l13.004-12.012v4.996zm0 41.988v-4.996l13.004-11.976v4.996zm0 8.008v-4.996l13.004-12.012v5.031zm0 40.004V270l13.004-12.012v4.996zm0 8.008v-4.996l13.004-12.012v4.996zm0 39.012v-5.031l13.004-11.976v4.996zm0 7.972v-4.996l13.004-11.976v4.996zm.142 38.268l-.142-1.24 13.004-12.012V360l-9.992 9.886zm6.59 5.244l-2.374-1.984 8.646-8.504v4.996z" class="B"/><g class="I D"><g class="G"><path d="M247.5 170.965l-9.354 9.744 9 9.886 9.673-9.709zm-.177 4.217l5.35 4.996-5.35 5.846-5.173-5.138zm3.897-31.713l-10.524 8.469 7.689 10.949 10.807-8.398zm-.673 4.146l4.642 5.634-6.059 5.138-4.465-5.776zm-3.401 49.216l-8.256 9.921 10.028 8.22 8.362-9.921zm.283 3.898l5.846 4.075-4.677 5.953-5.705-4.252zm2.162 19.488l-7.831 10.984 10.346 8.504 8.185-11.02zm.461 4.181l6.024 4.146-4.429 6.591-5.882-4.323zm3.72 21.614l-6.024 12.047 11.516 6.803 6.378-12.154zm1.098 4.039l6.591 3.189-3.366 7.193-6.484-3.366zm6.165 21.366l-4.89 12.579 12.118 5.669 5.209-12.685zm1.488 3.933l6.839 2.551-2.657 7.476-6.768-2.728zm9.249 21.721l-2.409 13.252 12.969 3.295 2.693-13.429zm2.197 3.579l7.228 1.205-1.24 7.831-7.157-1.417zm11.267 20.126l-1.276 13.429 13.217 2.161 1.524-13.642zm2.48 3.402l7.299.567-.531 7.937-7.264-.815z" class="F"/><path d="M261.248 158.776l-10.205 8.185 8.079 9.992m1.347-12.969l-3.756 3.295 2.941 3.614m2.834-21.401l-1.984 18.496c-.744 8.575-1.843 17.15-1.772 25.76.106 7.547 1.063 15.024 2.02 22.5 1.028 7.972 2.197 15.909 4.004 23.74 1.984 8.717 4.5 17.327 7.476 25.76 2.728 7.583 5.953 15.024 9.531 22.252 3.827 7.795 8.079 15.413 12.72 22.748 3.543 5.598 11.516 16.264 11.516 16.264m-70.971-150.874l10.63-11.339-9.496-11.409m-.709 16.228l4.535-4.748-4.181-5.173m22.713 24.874l-8.539 8.22 7.902 8.681m.318-12.047l-3.154 3.26 2.906 3.154m-23.882 10.204l10.24-11.693-9.85-11.091m-.178 16.265l4.358-4.925-4.358-4.996m2.552 41.74l8.965-12.685-10.913-10.028m1.487 16.193l3.827-5.315-4.854-4.571m6.236 41.74l7.441-13.642-12.047-8.681m3.401 15.91l3.189-5.74-5.35-3.969M252 282.756l5.315-14.634-13.181-6.768m5.705 15.237l2.303-6.165-5.882-3.118m18.283 41.916l3.543-15.165-13.925-5.138m7.512 14.422l1.524-6.378-6.201-2.374" class="C E"/></g><path d="M279.319 333.354l2.02-15.413-13.217-3.898m8.043 13.713l.921-6.484-5.917-1.843m26.044 37.276l-.744-16.051-13.677-1.488m10.346 11.905l-.248-6.484-6.13-.744" class="K C E"/><g class="G"><path d="M260.752 303.732c4.004 6.697 7.795 13.465 12.012 20.02 5.386 8.433 10.878 16.795 16.972 24.732 5.173 6.732 11.02 12.862 16.512 19.276m-5.492-7.512l5.74.744" class="C E"/><path d="M306.248 356.988l-5.492-1.24.496-14.492 4.996 1.24z" class="F"/><g class="C E"><path d="M302.244 323.256l-.992 13.004 4.996 1.24m-46.559-129.685l-7.476 9.283 8.965 7.583m-1.206-11.976l-2.728 3.65 3.26 2.764m1.488 13.322l-5.74 10.382 10.098 5.953m-3.224-11.587l-2.055 4.039 3.685 2.161m3.756 13.394l-4.854 10.843 10.559 5.102m-4.182-11.267l-1.701 4.181 3.862 1.843m4.501 13.747l-2.906 11.516 11.303 3.189M279 285.555l-.957 4.429 4.146 1.134m6.484 13.146l-1.559 11.799 11.587 1.843"/><path d="M291.472 308.303l-.425 4.5 4.217.673"/></g><path d="M280.984 198.496c3.189 8.752 5.811 17.717 9.531 26.256 2.339 5.386 4.606 10.913 7.972 15.732 2.232 3.189 5.35 5.669 8.008 8.504l-.248-13.996-4.5.992 2.516-6.236-5.776-.248 3.508-4.252-5.244-.496 3.26-4.5-5.776-.248 4.004-4.996-6.484-.496 3.756-4.996-5.776-.531 3.508-4.748-4.996-.744 3.26-5.492-7.016-.248z" class="F"/><g fill="#fff"><path d="M292.004 164.232c2.339-2.516 6.201-3.154 9.496-4.181 1.772-.531 3.65-1.098 5.492-.992 2.091.106 4.287.531 6.024 1.736.921.673 1.913 1.63 1.984 2.764.071.85-.602 1.701-1.24 2.232-.602.496-1.488.567-2.268.744-1.24.354-2.622.142-3.756.744-1.028.567-1.984 1.453-2.409 2.551-.531 1.24-.354 2.764-.106 4.11.283 1.524 1.098 3.118 1.772 4.287l-.248 14.28c-2.835.319-5.811 1.24-8.752.992-1.736-.142-3.685-.354-4.996-1.488-2.374-2.126-3.012-5.669-3.756-8.752-.709-3.189-.957-6.555-.496-9.744.461-3.26 1.028-6.874 3.26-9.283z"/><path d="M260.752 207.496c4.5-1.843 8.079-3.366 12.012-5.244 3.366-1.63 6.697-3.437 9.992-5.244 3.118-1.701 6.732-3.579 9.248-5.244m-29.764-42.52l16.264 7.76c4.287 2.161 8.504 4.5 12.756 6.732" class="C"/><path d="M286.512 161.504s-2.303 7.228-2.764 10.984c-.461 3.827-.602 7.724 0 11.516.567 3.366 3.26 9.744 3.26 9.744l-12.756 7.264 5.492-9-5.988-6.024 6.484-7.228-5.988-8.256 5.244-4.252-3.26-9.992z"/></g><path d="M264.012 151.264l7.476 12.224-6.484 6.272 6.236 8.504-6.484 7.972 5.74 5.776-6.98 13.5m-1.028-47.764l2.516 4.004-3.756 3.012m-.744 9.992l3.012 3.756-3.26 4.252m-.496 6.484l3.224 4.5-3.224 4.996" class="C E"/><path d="M266.74 213.732l11.268-5.492s3.402 11.445 5.492 17.008c1.772 4.748 3.472 9.602 5.988 13.996 2.941 5.067 10.524 13.996 10.524 13.996v52.264s-9.886-15.697-13.996-23.988c-4.252-8.575-8.043-17.433-11.02-26.504-2.48-7.583-4.252-15.413-5.74-23.28-1.134-5.917-2.516-18-2.516-18zm-2.055-157.216s.673 7.299 2.303 10.488c1.594 3.083 4.181 5.74 7.016 7.76 2.445 1.736 5.315 2.906 8.256 3.472 2.445.496 4.996.248 7.476 0 1.701-.142 4.996-.992 4.996-.992s-3.189-1.028-4.217-2.232c-2.232-2.551-2.551-6.272-3.508-9.496s-1.169-6.626-2.268-9.78c-1.098-3.189-2.091-6.626-4.252-9.248-1.169-1.417-2.764-2.551-4.5-3.224-1.028-.425-3.295-.531-3.295-.531z" class="B"/><g class="C E"><path d="M269.504 49.465c1.205 3.969 2.232 7.795 4.252 11.268 1.701 3.012 4.11 5.528 6.484 8.008 1.559 1.63 3.331 3.012 4.996 4.5"/><path d="M278.114 52.618c-1.772.957-5.705.106-7.654-.283-1.346 2.657-2.445 4.713-2.339 7.193m11.588-2.374c-1.772.957-5.102.673-7.051.283-1.346 2.657-2.445 5.244-2.339 7.724m11.657-1.842c-1.807.957-4.358.248-6.307-.142-1.346 2.657-1.063 5.067-.957 7.547m9.851-2.905c-1.772.992-2.906.071-4.854-.319-1.346 2.657-.638 3.685-.531 6.165M270 48.366c1.772.283 3.543.425 5.315-.354"/></g></g></g><path d="M149.917 141.591c-.85.319-1.949.886-2.055 1.807-.106.886.886 1.665 1.63 2.161.425.283 1.028.248 1.524.425.531.177 1.24.248 1.594.744s.106 1.24.248 1.843c.425 1.488.602 3.26 1.736 4.287.992.957 2.516 1.134 3.862 1.276 1.169.106 2.339-.283 3.472-.425.921-.106 1.807-.39 2.728-.319.461.071.957.106 1.311.39.319.283.425.744.496 1.134.213.85.071 1.736.106 2.622.035 1.134-.177 2.303.106 3.366.354 1.276.886 2.657 1.913 3.472 1.098.886 2.622 1.098 4.004 1.169 1.169.035 2.303-.425 3.472-.638.886-.177 1.736-.531 2.657-.496.39 0 .85 0 1.134.283.177.142.177.461.213.673.071.744-.142 1.453-.213 2.197-.071.992-.425 2.02-.248 3.012.177 1.205.531 2.551 1.382 3.437.957.957 2.445 1.382 3.791 1.63 1.169.177 2.374-.248 3.543-.283 1.453 0 3.224-.744 4.358.177.886.709.567 2.161.78 3.26.213 1.028.106 2.091.496 3.012.496 1.134 1.134 2.339 2.161 2.976.85.531 1.984.602 2.976.531.744-.035 1.453-.461 2.197-.673.602-.177 1.276-.78 1.878-.531.177.071.213.319.248.496.283.602.39 1.24.602 1.878.283.78.39 1.736.957 2.374.78.921 1.878 1.807 3.083 1.807 1.169-.035 2.268-.921 3.012-1.807.531-.673.567-1.594.815-2.374.213-.602.319-1.205.531-1.807.071-.106.071-.283.177-.319.142-.106.354-.035.531 0 .602.142 1.134.496 1.701.709.815.283 1.559.78 2.409.85 1.134.071 2.409.035 3.295-.638 1.028-.744 1.524-2.126 1.807-3.366.248-1.028-.071-2.055-.106-3.118-.035-.709-.213-1.453-.106-2.197.035-.177 0-.39.142-.496.283-.248.744-.142 1.098-.142.815.035 1.594.283 2.374.496 1.063.354 2.02 1.205 3.118 1.276.957.035 2.339 0 2.764-.85.461-.85-.283-2.02-.921-2.728-.957-.957-2.48-1.098-3.756-1.488-1.098-.319-2.197-.709-3.331-.709-1.24.035-2.622.106-3.614.85-1.028.78-1.559 2.126-1.843 3.366-.248.992.071 2.055.071 3.083.035.78.638 1.807.071 2.339-.461.425-1.24-.035-1.843-.177-.815-.213-1.524-.78-2.339-.921-1.063-.142-2.232-.248-3.224.213-.957.496-1.594 1.488-2.161 2.409-.39.673-.035 2.161-.815 2.161-.815 0-.425-1.594-.815-2.303-.567-.957-1.169-2.055-2.197-2.445-1.559-.638-3.366.425-5.067.39-.638 0-1.453.248-1.949-.177-.567-.531-.213-1.524-.425-2.268-.602-2.091-.602-4.713-2.303-6.059-1.949-1.559-4.89-.957-7.37-1.028-.921 0-1.807.354-2.693.248-.461-.071-.992-.142-1.276-.496-.177-.177-.213-.461-.248-.744-.071-.744.177-1.488.248-2.232.071-1.028.39-2.055.248-3.047-.213-1.205-.602-2.551-1.559-3.402-1.028-.921-2.551-1.205-3.933-1.311-1.169-.071-2.339.425-3.472.638-.921.142-1.807.496-2.728.496-.425 0-.921 0-1.24-.248s-.425-.709-.531-1.098c-.177-.85-.035-1.701-.071-2.551-.035-1.134.142-2.303-.142-3.402-.319-1.276-.815-2.657-1.843-3.508-1.028-.886-2.48-1.169-3.827-1.311-1.169-.142-2.339.213-3.508.354-.921.106-1.843.39-2.764.354-.461-.035-1.063 0-1.346-.354-.354-.354-.142-.992-.248-1.453-.319-1.453-.354-3.118-1.311-4.287-.78-.992-2.161-1.417-3.331-1.878-.638-.248-1.276-.354-1.949-.496a1.26 1.26 0 0 0-.354-.071h0zm.107 11.551c-.815.035-1.594.602-1.878 1.382a2.08 2.08 0 0 0 .709 2.232L207 202.642a2.08 2.08 0 0 0 2.374.035l22.748-15.945c.921-.602 1.205-1.949.567-2.835-.602-.886-1.984-1.098-2.835-.461l-21.579 15.13-56.976-44.965c-.354-.283-.815-.461-1.276-.461z" class="B"/><path d="M207.071 213.732v63.886l9.744-6.803.319-63.319z"/><path d="M148.5 167.882l21.012 16.866.283 54.425-21.295-14.492z" class="H"/><path d="M169.795 183.827l.602 56.232m5.316-52.016l.283 57.331m26.646-34.618l.283 68.35" class="C D E G J"/><path d="M240.484 255.437l-36.39 24.236" class="C D E G I"/><g class="J D G"><path d="M202.606 269.752l-26.327-26.858 26.504-25.654-26.787-27.496" class="C E"/><path d="M191.87 201.189l-16.051 16.406 26.787 27.921-15.165 14.173" class="C E"/><path d="M189.035 211.429l-4.925 5.28 4.925 5.811 5.102-5.28zm-.141 27.673l-4.287 4.713 4.854 4.925 4.323-4.606z" class="E"/><path d="M176.882 197.681l4.89 5.35-5.138 5.421zm25.193 28.028l-5.244 5.457 5.315 5.173zm-25.477-.036l4.819 5.244-4.925 4.535zm25.619 27.532l-4.606 4.748 4.854 4.748z"/></g><path d="M132.945 129.508l-21.224 10.63-15.201 7.76c-7.193 3.933-14.35 7.937-21.224 12.402-6.449 4.181-12.472 8.929-18.744 13.429l12.402 16.618c3.579 4.642 7.476 9.071 10.949 13.783 3.224 4.358 6.13 8.965 9.177 13.429 2.48-.709 4.89-1.736 7.441-2.126 4.996-.744 10.134-.673 15.201-.354 4.039.248 8.043.992 12.012 1.772 4.287.85 8.61 1.736 12.756 3.189 4.252 1.488 8.398 3.472 12.366 5.669 4.535 2.48 8.858 5.421 13.075 8.469 4.535 3.295 9.106 6.626 13.075 10.594 3.862 3.862 6.945 8.433 10.276 12.756 3.614 4.748 6.839 9.815 10.594 14.492 2.551 3.189 5.173 6.343 8.114 9.177 4.075 3.898 8.327 7.618 13.11 10.594 4.394 2.799 9.248 4.89 14.138 6.732 4.677 1.807 9.496 3.543 14.492 4.252 4.89.709 9.886 0 14.846 0-2.728-5.563-5.634-10.984-8.15-16.618-3.118-7.087-6.059-14.244-8.469-21.579-2.268-6.839-4.181-13.819-5.669-20.87-1.488-7.228-2.409-14.563-3.189-21.898-.567-5.528-.886-11.091-1.063-16.618-.177-6.13-.035-12.26 0-18.39l.354-17.327c.248-6.024.709-12.012 1.063-18.035" class="C D E G I"/><g class="B"><path d="M189.921 355.571l-37.878-30.756.283-62.717 3.862-2.657 6.803 6.803 10.346 13.89 8.575 12.118 3.862 4.146 4.713 3.862zM137.835 246.72l-24.839 18.035-2.374-4.748 21.295-16.866z"/><path d="M156.189 260.008l-36.106 23.669-2.055-4.713 33.732-22.217z"/></g><path d="M142.866 331.618l.319-63.035-23.988 15.697 3.862 17.752 2.657 17.15.602 15.98-.319 8.575z" class="H"/><path d="M152.327 256.748l-34.299 22.783-3.543-9.177-2.091-5.598 25.441-18.354s6.484 2.126 9.177 4.146c2.197 1.63 5.315 6.201 5.315 6.201zm59.669 115.512l-59.244-47.268L126 342l.248 13.996-.744 13.252-.496 10.488 27.248-18.496 35.008 28.772 4.5 2.232 2.48 2.268 4.004.496 2.268 3.26 2.976-.78 3.012 3.756h3.012l2.48 2.268z"/><path d="M221.988 408.508l.248-89.008-5.988-2.232-4.996-2.764.248 89.256 3.26.496 3.224 3.26 2.02-.78z"/><path d="M99.992 331.76l-20.232 9.992-6.024-16.512c-2.126-5.457-4.039-11.02-6.732-16.228-1.807-3.508-3.827-6.909-6.272-10.028-2.339-3.012-7.972-8.22-7.972-8.22l.248-78.52s9.886 11.976 13.996 18.496c3.579 5.705 6.307 11.941 9.248 18 3.827 7.937 7.902 15.768 10.984 24.024 2.091 5.528 3.543 11.268 4.996 16.972 1.559 5.953 2.906 11.976 4.004 18 .815 4.394 1.311 8.858 2.02 13.252l1.736 10.772z" class="D G H I"/><path d="M96.236 390.508l-27.248-14.74 2.764-10.276-.992-9.992-3.012-6.732 8.008-6.024 13.748-5.988 10.24-4.252.992 9.992v12.012l-.744 13.996-2.232 15.732z" class="B"/><path d="M133.512 243.248l-22.748 17.008-6.024-13.004-4.996-10.24s11.091-.709 16.512.248c5.988 1.063 17.256 5.988 17.256 5.988z" class="F"/><path d="M30.012 157.252l16.866 14.634-.248 279.744-16.618.106z"/><path d="M264.012 391.394l-.177-66.827 6.909-2.126 16.937 23.35c4.181 5.563 8.681 10.913 12.756 16.618.992 1.382 2.835 4.217 2.835 4.217l-16.795 11.87c-4.075 2.657-8.185 5.173-12.402 7.583-3.295 1.878-10.063 5.315-10.063 5.315z" class="F"/><path d="M247.748 399.508l.354-74.232 8.291.177c2.87-.142 8.504-.886 8.504-.886l-.177 66.827s-6.307 3.402-9.531 4.925l-7.441 3.189z"/><path d="M154.772 475.866c7.051-.106 14.138.106 21.189-.354 5.882-.354 11.728-1.028 17.504-1.913 3.827-.602 7.547-1.559 11.339-2.303l1.772-12.366 1.736-13.996c.496-3.472.78-6.98 1.594-10.417.496-2.055 1.311-4.004 1.949-6.024l2.657-.354c.886.886 1.453 2.303 2.657 2.657 1.594.496 3.472-.071 4.961-.886 2.126-1.134 3.65-3.224 4.925-5.28 1.24-1.984 2.232-4.217 2.48-6.555.142-1.488-.106-3.047-.709-4.429-.461-1.028-1.098-2.161-2.126-2.657-.992-.461-2.232 0-3.366 0-.567-.815-.957-1.807-1.736-2.445-1.205-.992-2.835-1.311-4.252-1.949-.78-.886-1.24-2.161-2.303-2.657-.921-.425-2.02 0-3.012 0-.886-.815-1.524-2.02-2.657-2.48-.921-.354-1.984 0-2.976 0-1.028-1.169-1.594-2.906-3.012-3.543-1.028-.425-2.232.142-3.366.177-.886-1.063-1.417-2.587-2.657-3.189-1.028-.461-2.232 0-3.366 0-1.098-.921-2.091-2.055-3.331-2.799-1.453-.886-3.012-1.559-4.606-1.949-1.665-.39-3.437-.673-5.138-.354-1.843.319-3.614 1.205-5.138 2.303-1.665 1.205-3.083 2.835-4.217 4.571-1.594 2.374-2.657 5.067-3.543 7.795-1.594 4.925-2.091 10.098-3.012 15.201-1.169 6.626-2.02 13.323-3.189 19.984l-3.685 19.772-3.366 16.441z" class="B"/><g class="D G I"><path d="M228.012 509.988l-20.02-40.004s-10.169 2.693-15.378 3.543c-8.15 1.311-16.37 2.197-24.626 2.48-9.992.319-20.02-.142-29.976-.992-11.764-1.063-35.008-5.031-35.008-5.031l-22.996 40.004z" class="H"/><path d="M213.165 508.535L198 478.984c-6.484 2.268-11.409 2.339-19.701 3.26l3.898 26.291h5.74l-5.102-22.748c4.748-.319 8.504-.283 12.614-1.913l11.126 24.661zm-39.862 0l-3.047-25.299c-10.063.921-18.142 1.488-28.205.461l-5.492 24.839h6.449l3.047-19.807c7.902.461 12.579-.035 19.205-.496l2.232 20.303zm-46.559 0l7.335-25.051c-7.37-.638-18.071-1.559-26.079-3.472l-13.713 28.524h6.343l10.382-23.528c4.465 1.205 12.012 1.736 16.476 2.374l-6.236 21.154z" class="F"/><g class="E"><g class="C"><path d="M154.984 475.016L160.016 450c1.807-9.957 2.906-20.091 4.996-30.012 1.382-6.732 1.594-13.996 4.996-19.984 2.303-4.11 5.421-8.787 9.992-9.992 4.429-1.169 10.205.177 13.252 3.579 2.551 2.87 3.083 7.795 1.736 11.409-1.417 3.933-5.28 8.327-9.461 8.185-4.358-.142-9.177-4.89-9.248-9.213-.035-3.898 4.181-8.256 8.079-8.504 2.409-.177 5.315 2.126 5.634 4.535.39 2.799-2.161 6.839-4.996 6.803-1.701 0-4.004-1.984-2.941-4.146m-21.224 73.171c2.941-8.965 3.685-18.071 5.244-27.177 1.594-9.035 2.02-18.248 4.146-27.177 1.701-7.087 3.614-14.634 6.803-20.764m-9.496 75.118c2.232-7.795 2.906-16.051 4.146-24.094 1.205-7.866 1.63-15.874 3.154-23.669 1.098-5.669 1.913-11.339 4.323-16.689m-5.671 64.062c1.984-7.441 2.587-15.343 3.685-23.031 1.063-7.512 1.453-15.201 2.799-22.642.992-5.386 1.701-10.843 3.862-15.945m-4.535 60.98c1.807-7.087 2.339-14.563 3.331-21.898.957-7.122 1.311-14.386 2.516-21.472.886-5.138 1.524-10.311 3.472-15.13m-3.614 57.969c1.772-6.732 2.339-13.854 3.295-20.799.992-6.803 1.311-13.713 2.551-20.445.886-4.89 1.524-9.78 3.472-14.386m-2.94 54.744c1.736-6.307 2.126-12.579 3.047-18.85.921-6.343 1.276-12.756 2.48-19.028.85-4.535 1.453-9.106 3.366-13.394m-2.728 50.351c1.665-5.74 2.161-11.799 3.047-17.717.886-5.776 1.205-11.657 2.303-17.398.815-4.146 1.417-8.327 3.189-12.26"/><path d="M204.52 470.516c1.417-5.138 1.843-10.205 2.587-15.343.78-5.173 1.028-10.453 1.984-15.591.673-3.72 1.169-7.476 2.693-10.984m-27.213-15.803c1.63 1.134 3.083 3.083 5.031 3.154 3.224.106 6.413-2.055 8.504-4.465 2.232-2.587 3.579-6.272 3.331-9.673-.142-2.445-1.346-5.067-3.295-6.555-.957-.709-2.02-.531-3.579-.673"/><path d="M191.055 416.02c1.346 1.488 2.374 2.657 3.969 2.764 3.224.177 6.413-2.055 8.504-4.5 2.232-2.551 3.579-6.236 3.331-9.638-.142-2.445-1.205-5.28-3.295-6.555-.992-.602-1.878-.709-3.472.071m-4.147 20.834c1.63 1.098 3.083 3.083 5.031 3.154 3.224.106 6.413-2.055 8.504-4.5 2.232-2.551 3.579-6.236 3.331-9.638-.142-2.445-1.205-5.244-3.295-6.555-.886-.567-1.63-.602-3.189-.071m-3.65 20.976c1.24 1.772 2.48 2.657 4.146 2.764 3.189.142 6.413-2.055 8.504-4.5 2.197-2.551 3.543-6.236 3.331-9.638-.177-2.445-1.311-5.138-3.295-6.555-.921-.638-1.63-.85-3.366-.461m-3.615 21.756c.602 1.488 2.232 2.516 3.756 2.622 3.189.213 6.413-2.055 8.469-4.465 2.232-2.587 3.579-6.272 3.366-9.673-.177-2.445-1.311-5.102-3.331-6.52-.744-.567-1.169-.248-2.728-.39m-3.579 21.013c.602 1.772 1.772 2.374 3.083 2.48 3.189.319 6.413-2.02 8.504-4.465 2.232-2.587 3.437-6.236 3.331-9.638-.035-1.807-.638-3.827-1.984-4.996-1.063-.957-2.551-.992-4.11-1.098m-119.942 58.926l2.516-30.437c.567-5.528 1.063-11.091 2.02-16.583 1.311-7.264 1.63-14.988 4.996-21.543 2.055-3.969 5.35-7.299 8.858-9.992 3.224-2.48 6.945-4.5 10.913-5.457 4.11-1.028 8.539-1.098 12.72-.248 4.146.886 7.831 3.224 11.551 5.244 4.677 2.516 8.929 5.74 13.394 8.61"/></g><path d="M157.039 456.13c-3.933 1.134-7.76 2.764-11.799 3.402-2.622.39-5.421.921-7.972.213-1.276-.354-3.579-1.382-3.402-2.161.106-.39.744-.319 1.134-.319 1.488-.035 2.835.921 4.323 1.134 2.161.283 4.394.213 6.591 0 3.756-.39 7.406-1.524 11.126-2.268z"/><path d="M135 447.839c-.461.496-1.736.921-1.346 1.453.461.744 3.295 2.551 5.209 3.295 1.807.709 3.791.992 5.776 1.028 2.055.071 4.146-.248 6.165-.78 1.382-.39 2.48-.992 4.039-1.665" class="C"/><path d="M159.201 446.563c-3.331.85-6.591 2.126-9.992 2.516-2.409.283-4.89.354-7.264-.106-1.949-.39-3.862-1.134-5.492-2.197-1.063-.744-1.878-1.772-2.693-2.799 1.63-.709 3.154-1.736 4.89-2.161 2.728-.709 5.598-.992 8.398-.673 2.374.248 4.642 1.169 6.803 2.161 1.913.85 3.543 2.197 5.35 3.26z"/><path d="M150.803 448.051c-.106-1.169.319-2.48-.248-3.508-.673-1.24-2.055-2.055-3.402-2.516-1.028-.319-2.268-.354-3.295 0-.992.39-1.843 1.169-2.374 2.055-.744 1.24-.602 2.799-.921 4.217" class="C"/></g><g class="F"><path d="M147.012 447.236c.319-.354.177-1.028-.071-1.417-.283-.461-.815-.815-1.311-.815-.531-.035-1.063.319-1.311.744-.319.461-.496 1.24-.106 1.63.673.638 2.197.496 2.799-.142z"/><path d="M151.122 436.146c-2.374.461-5.705.992-8.398 2.02-2.374.921-4.642 2.693-6.697 3.65" class="C"/></g><path d="M122.846 453.508c.602-1.488 1.524-2.87 1.843-4.429.567-3.189.142-6.52-.248-9.78-.461-3.969-1.913-7.831-2.587-11.799-.425-2.268-1.453-4.642-.921-6.909.248-1.134 1.098-2.055 1.913-2.835 1.028-.957 2.445-1.453 3.65-2.161m9.638 13.145c1.559-1.701 3.827-2.941 4.677-5.102.39-1.028.461-2.268 0-3.295-.567-1.169-1.701-2.197-2.976-2.48-1.028-.248-2.126.319-3.047.78-1.205.638-1.878 2.055-3.083 2.622-.85.425-1.913.921-2.835.567-.283-.106-.638-.496-.567-.78.319-1.028 1.984-.78 2.941-1.134l3.862-1.382" class="E C"/><path d="M143.681 407.551c-1.594.815-3.862.638-5.776.602-1.984-.035-3.898-.957-5.846-.886-2.232.106-4.287 1.594-6.555 1.594-1.63.035-3.508-.709-4.783-1.063.071-.567.248-1.311 0-1.736 1.63.602 3.969 1.488 5.988 1.24 1.913-.248 3.295-2.445 5.244-2.48 2.232-.071 3.969 2.48 6.236 2.587 2.161.071 4.429-1.63 6.13-2.02a4.02 4.02 0 0 0-.638 2.161z" class="F"/><path d="M139.748 400.606c-1.594-.673-3.083-1.701-4.783-2.02-1.24-.248-2.587-.213-3.862.035-.85.142-1.63.567-2.445.886l-2.197 1.028m1.771-4.925c1.169.496 2.268.921 3.437.921.992 0 1.913-.39 2.835-.815" class="C E"/><path d="M121.713 456.449c-1.559 1.843-4.996 2.303-7.689 2.516-1.984.142-3.933-.39-5.846-.957-1.346-.39-2.657-1.134-3.933-1.736 2.161.425 4.394 1.205 6.626 1.276 1.949.035 3.898-.354 5.811-.78 1.346-.319 2.587-.957 3.791-1.594.496-.283 1.63.815 1.24 1.276z" class="F"/><g class="E"><path d="M122.28 449.646c-1.559.78-2.976 1.843-4.642 2.268-2.339.673-4.89.992-7.264.567-1.594-.283-2.941-1.346-4.429-1.984" class="C"/><path d="M123.307 446.35c-1.701.673-3.791 1.205-5.705 1.453-2.232.283-4.535.354-6.768.071-1.311-.177-2.693-.425-3.862-1.098-.709-.425-1.169-1.205-1.772-1.807l.354-2.728c1.169-.425 2.339-1.028 3.579-1.24 1.665-.319 3.437-.319 5.138-.213 1.843.106 3.72.213 5.457.886 1.311.531 2.48 1.417 3.579 2.339.354.319.638.673.957 1.028-.319.425-.461 1.098-.957 1.311z"/><path d="M118.913 447.094c-.071-1.169.319-2.48-.248-3.508-.673-1.24-2.055-2.091-3.402-2.516-1.028-.354-2.268-.39-3.295 0-.957.354-1.843 1.134-2.374 2.055-.744 1.205-.602 2.799-.921 4.181" class="C"/></g><path d="M115.441 446.244c.319-.354.177-.992-.071-1.417-.283-.425-.815-.78-1.311-.815-.531 0-1.063.319-1.311.744-.319.461-.496 1.276-.106 1.665.673.602 2.161.496 2.799-.177z" class="F"/><path d="M122.492 440.929c-1.276-1.382-2.303-3.012-3.791-4.181-1.205-.921-2.657-1.417-4.004-2.126" class="C E"/><g class="B"><path d="M106.441 431.398c-.673-2.906-1.382-4.854-2.622-7.016-1.276-2.126-2.728-4.252-4.783-5.634-1.63-1.063-3.614-1.913-5.563-1.736-1.772.142-3.65.992-4.748 2.409s-1.276 3.472-1.169 5.28c.106 1.63.567 3.402 1.665 4.642.957 1.134 2.409 1.913 3.862 2.055 1.028.106 2.197-.071 2.941-.78.567-.531.78-1.453.78-2.232-.035-.85.071-1.736-.992-2.339.78.319 1.311 1.311 1.878 2.055.744 1.063 1.382 2.268 1.913 3.508.638 1.382 1.063 2.87 1.488 4.358l1.346 6.13 2.055 9.638 1.949-20.339zm2.728-19.985c-.638-2.906-2.587-8.575-4.854-12.366-1.276-2.126-2.799-4.181-4.783-5.634-1.594-1.169-3.472-2.48-5.457-2.339-1.878.142-3.756 1.453-4.854 3.012-1.028 1.453-1.276 3.472-1.169 5.244.106 1.665.567 3.437 1.665 4.677a6.29 6.29 0 0 0 3.898 2.055c.992.106 2.161-.106 2.906-.78.567-.531.815-1.453.78-2.232-.071-.815-.035-1.559-1.063-2.161.78.319 1.382 1.134 1.949 1.843.815 1.063 1.382 2.303 1.949 3.508.602 1.417.992 2.941 1.453 4.394l1.559 5.244c1.169 4.11 2.976 9.709 3.508 12.26.567-5.528 1.949-11.161 2.516-16.724z"/><path d="M111.402 403.583l-1.559-4.217c-.744-1.524-2.622-4.358-2.622-4.358l-4.89-2.055c-1.559-.567-4.748-1.453-4.748-1.453s3.685 2.87 5.138 4.677c1.276 1.559 2.161 3.402 3.047 5.244.815 1.772 1.382 3.685 2.02 5.563l1.559 5.067.992-4.996c.283-1.169 1.063-3.472 1.063-3.472z"/><path d="M107.22 395.008l6.803 3.898-2.622 4.748zm70.371-4.217l-24.909-20.693-28.063 18.461.673-8.965 27.035-18.602 35.114 28.984c-2.835-.957-6.591-.815-9.85.815z"/></g><g class="C E"><path d="M247.748 381.472l-9.354-10.594 9.177-9.709"/><path d="M247.394 375.059l-3.366-3.898 3.366-3.508"/></g><path d="M234.496 393.484l9.354-9.709-9-9.886-9.106 9.886zm.177-4.181l-5.35-4.996 5.35-5.882 5.173 5.173z" class="F"/><path d="M30.012 487.984l37.984-36H30.012z" class="B"/><path d="M30.012 480.012l22.996-22.004H30.012z" class="H"/><g class="C E"><path d="M248.315 355.89l-9.354-10.63 9.177-9.709"/><path d="M247.961 349.441l-3.366-3.862 3.366-3.543m-25.122 38.338l9.177-9.85-9.177-9.709m.177 13.89l3.366-3.898-3.366-3.508m.531-30.968l8.61 9.283-9.177 9.709"/><path d="M223.157 341.433l3.331 3.862-3.331 3.543"/></g><path d="M235.488 367.724l9.354-9.709-9-9.886-9.496 10.063zm.177-4.181l-5.35-4.996 5.35-5.882 5.173 5.173zm-.567-21.189l9.319-9.709-9-9.567-9.673 9.354zm.142-4.181l-5.35-4.996 5.35-5.882 5.209 5.138z" class="F"/><path d="M222.626 387.709l8.398 9.071-7.831 8.398m-.425-12.19l3.366 3.508-2.764 3.331m23.988-14.032l-9.957 10.417 5.74 6.059m3.863-10.062l-3.366 3.898 3.366 3.543" class="C E"/><g class="H C"><path d="M248.244 329.705l-3.862-4.606m-21.862 4.818l7.087-7.299"/><path d="M247.854 399.224l.673-74.126m-26.22 83.162l.213-88.902"/></g><path d="M238.819 403.831l-4.394-4.394-8.469 8.433 1.346 2.303z" class="F"/><path d="M53.008 451.984v-70.972l-6.024-2.02v72.992zm-6.024-279.992v202.004h6.024V170.008l-22.996-20.02v7.016z" class="B"/></g><use class="B" xlink:href="#I"/><use y="-13.996" class="B" xlink:href="#I"/><path d="M35.504 442.984c1.169 0 2.48-1.311 2.48-2.48s-1.311-2.516-2.48-2.516-2.516 1.346-2.516 2.516 1.346 2.48 2.516 2.48z" class="B"/><use class="B" xlink:href="#J"/><path d="M38.339 401.244c1.205 0 2.516-1.311 2.516-2.516 0-1.169-1.311-2.48-2.516-2.48-1.169 0-2.48 1.311-2.48 2.48 0 1.205 1.311 2.516 2.48 2.516z" class="B"/><use class="B" xlink:href="#K"/><path d="M35.362 394.228c1.169 0 2.48-1.311 2.48-2.48 0-1.205-1.311-2.516-2.48-2.516-1.205 0-2.516 1.311-2.516 2.516 0 1.169 1.311 2.48 2.516 2.48zm5.988 0c1.169 0 2.516-1.311 2.516-2.48 0-1.205-1.346-2.516-2.516-2.516s-2.516 1.311-2.516 2.516c0 1.169 1.346 2.48 2.516 2.48z" class="B"/><use class="B" xlink:href="#L"/><use y="-13.996" class="B" xlink:href="#L"/><use class="B" xlink:href="#M"/><use x="3.189" y="-41.776" class="B" xlink:href="#K"/><use class="B" xlink:href="#N"/><path d="M38.728 288.921c1.169 0 2.516-1.311 2.516-2.516 0-1.169-1.346-2.48-2.516-2.48s-2.48 1.311-2.48 2.48c0 1.205 1.311 2.516 2.48 2.516zm-2.976 7.016c1.169 0 2.48-1.346 2.48-2.516s-1.311-2.516-2.48-2.516c-1.205 0-2.516 1.346-2.516 2.516s1.311 2.516 2.516 2.516zm5.988 0c1.169 0 2.48-1.346 2.48-2.516s-1.311-2.516-2.48-2.516-2.516 1.346-2.516 2.516 1.346 2.516 2.516 2.516z" class="B"/><use x="-2.764" y="-188.468" class="B" xlink:href="#J"/><use y="-62.397" class="B" xlink:href="#N"/><use x="-2.764" y="-202.465" class="B" xlink:href="#I"/><path d="M41.74 247.535c1.169 0 2.48-1.311 2.48-2.516 0-1.169-1.311-2.48-2.48-2.48s-2.516 1.311-2.516 2.48c0 1.205 1.346 2.516 2.516 2.516z" class="B"/><use class="B" xlink:href="#O"/><use y="-13.996" class="B" xlink:href="#O"/><path d="M36.319 198.957c1.169 0 2.48-1.346 2.48-2.516s-1.311-2.48-2.48-2.48-2.516 1.311-2.516 2.48 1.346 2.516 2.516 2.516z" class="B"/><use x="6.768" y="-146.515" class="B" xlink:href="#M"/><path d="M45 413.008v4.996l-13.004 12.012v-5.031zM45 405v4.996l-13.004 12.012v-4.996zm0-41.988v4.996l-13.004 11.976v-4.996zm0-8.008V360l-13.004 12.012v-4.996zm0-41.988v4.996l-13.004 11.976v-4.996zm0-8.008v4.996l-13.004 12.012v-5.031zm0-40.004V270l-13.004 12.012v-4.996zm0-8.008v4.996l-13.004 12.012v-4.996zm0-39.012v5.031l-13.004 11.976v-4.996zm0-7.972v4.996l-13.004 11.976v-4.996zm-.142-38.268l.142 1.24-13.004 12.012V180l9.992-9.886zm-6.626-5.244l2.409 1.984-8.646 8.504v-4.996z" class="B"/><g class="I D"><g class="G"><path d="M112.5 369.035l9.354-9.744-9-9.886-9.673 9.709zm.177-4.217l-5.35-4.996 5.35-5.846 5.173 5.138zm-3.897 31.714l10.524-8.469-7.689-10.949-10.807 8.398zm.673-4.146l-4.642-5.634 6.059-5.138 4.465 5.776zm3.401-49.217l8.256-9.921-10.028-8.22-8.362 9.921zm-.283-3.898l-5.846-4.075 4.677-5.953 5.705 4.252zm-2.162-19.488l7.831-10.984-10.346-8.504-8.185 11.02zm-.461-4.181l-6.024-4.146 4.429-6.591 5.882 4.323zm-3.72-21.614l6.024-12.047-11.516-6.803-6.378 12.154zm-1.098-4.039l-6.591-3.189 3.366-7.193 6.484 3.366zm-6.165-21.366l4.89-12.579-12.118-5.669-5.209 12.685zm-1.488-3.933l-6.839-2.551 2.657-7.476 6.768 2.728zm-9.249-21.721l2.409-13.252-12.969-3.295-2.693 13.429zm-2.197-3.579l-7.228-1.205 1.24-7.831 7.157 1.417zm-11.267-20.126l1.276-13.429-13.217-2.161-1.524 13.642zm-2.48-3.402l-7.299-.567.531-7.937 7.264.815z" class="F"/><g class="C E"><path d="M98.752 381.224l10.205-8.185-8.079-9.992"/><path d="M99.531 376.016l3.756-3.295-2.941-3.614m-2.834 21.401l1.984-18.496c.744-8.575 1.843-17.15 1.736-25.76-.071-7.547-1.028-15.024-1.984-22.5-1.028-7.972-2.197-15.909-4.004-23.74a225.26 225.26 0 0 0-7.512-25.76c-2.693-7.583-5.917-15.024-9.496-22.252-3.827-7.795-8.079-15.413-12.72-22.748C61.972 223.654 54 212.988 54 212.988m70.972 150.874l-10.63 11.339 9.496 11.409m.709-16.228l-4.535 4.748 4.181 5.173m-22.713-24.874l8.539-8.22-7.902-8.681m-.318 12.047l3.154-3.26-2.906-3.154m23.882-10.204l-10.24 11.693 9.85 11.091m.178-16.265l-4.358 4.925 4.358 4.996m-2.552-41.74l-8.965 12.685 10.913 10.028m-1.487-16.193l-3.827 5.315 4.854 4.571m-6.236-41.74l-7.441 13.642 12.047 8.681m-3.401-15.91l-3.189 5.74 5.35 3.969M108 257.244l-5.315 14.634 13.181 6.768m-5.705-15.237l-2.303 6.165 5.882 3.118m-18.283-41.916l-3.543 15.165 13.925 5.138m-7.512-14.422l-1.524 6.378 6.201 2.374"/></g></g><g class="K C E"><path d="M80.681 206.646l-2.02 15.413 13.217 3.898"/><path d="M83.835 212.244l-.921 6.484 5.917 1.843m-26.044-37.276l.744 16.051 13.677 1.488"/><path d="M66.862 188.929l.248 6.484 6.13.744"/></g><g class="G"><path d="M99.248 236.268c-4.004-6.697-7.795-13.465-12.012-20.02-5.386-8.433-10.878-16.795-16.972-24.732-5.173-6.732-11.02-12.862-16.512-19.276m5.492 7.512l-5.74-.744" class="C E"/><path d="M53.752 183.012l5.492 1.24-.496 14.492-4.996-1.24z" class="F"/><path d="M57.756 216.744l.992-13.004-4.996-1.24m46.559 129.685l7.476-9.283-8.965-7.583m1.206 11.976l2.728-3.65-3.26-2.764m-1.488-13.322l5.74-10.382-10.098-5.953m3.224 11.587l2.055-4.039-3.685-2.161m-3.756-13.394l4.854-10.843-10.559-5.102m4.182 11.267l1.701-4.181-3.862-1.843m-4.501-13.747l2.906-11.516-11.303-3.189M81 254.445l.957-4.429-4.146-1.134m-6.484-13.146l1.559-11.799-11.587-1.843m7.229 9.603l.425-4.5-4.217-.673" class="C E"/><path d="M79.016 341.504c-3.189-8.752-5.811-17.717-9.531-26.256-2.339-5.386-4.606-10.913-7.972-15.732-2.232-3.189-5.35-5.669-8.008-8.504l.248 13.996 4.5-.992-2.516 6.236 5.776.248-3.508 4.252 5.244.496-3.26 4.5 5.776.248-4.004 4.996 6.484.496-3.756 4.996 5.776.531-3.508 4.748 4.996.744-3.26 5.492 7.016.248z" class="F"/><g fill="#fff"><path d="M67.996 375.768c-2.339 2.516-6.201 3.154-9.496 4.181-1.772.531-3.65 1.098-5.492.992-2.091-.106-4.287-.531-6.024-1.736-.921-.673-1.913-1.63-1.984-2.764-.071-.85.602-1.701 1.24-2.232.602-.496 1.488-.567 2.268-.744 1.24-.354 2.622-.142 3.756-.744 1.028-.567 1.984-1.453 2.409-2.551.531-1.24.354-2.764.106-4.11-.283-1.524-1.098-3.118-1.772-4.287l.248-14.28c2.835-.319 5.811-1.24 8.752-.992 1.736.142 3.685.354 4.996 1.488 2.374 2.126 3.012 5.669 3.756 8.752.709 3.189.957 6.555.496 9.744-.461 3.26-1.028 6.874-3.26 9.283z"/><path d="M99.248 332.504c-4.5 1.843-8.079 3.366-12.012 5.244-3.366 1.63-6.697 3.437-9.992 5.244-3.118 1.701-6.732 3.579-9.248 5.244m29.764 42.52l-16.264-7.76c-4.287-2.161-8.504-4.5-12.756-6.732" class="C"/><path d="M73.488 378.496s2.303-7.228 2.764-10.984c.461-3.827.602-7.724 0-11.516-.567-3.366-3.26-9.744-3.26-9.744l12.756-7.264-5.492 9 5.988 6.024-6.484 7.228 5.988 8.256-5.244 4.252 3.26 9.992z"/></g><path d="M95.988 388.736l-7.476-12.224 6.484-6.272-6.236-8.504 6.484-7.972-5.74-5.776 6.98-13.5m1.028 47.764l-2.516-4.004 3.756-3.012m.744-9.992l-3.012-3.756 3.26-4.252m.496-6.484l-3.224-4.5 3.224-4.996" class="C E"/><path d="M93.26 326.268l-11.268 5.492s-3.402-11.445-5.492-17.008c-1.772-4.748-3.472-9.602-5.988-13.996-2.941-5.067-10.524-13.996-10.524-13.996v-52.264s9.886 15.697 13.996 23.988c4.252 8.575 8.043 17.433 11.02 26.504 2.48 7.583 4.252 15.413 5.74 23.28 1.134 5.917 2.516 18 2.516 18zm2.055 157.216s-.673-7.299-2.303-10.488c-1.594-3.083-4.181-5.74-7.016-7.76-2.445-1.736-5.315-2.906-8.256-3.472-2.445-.496-4.996-.248-7.476 0-1.701.142-5.031.992-5.031.992s3.224 1.028 4.252 2.232c2.232 2.551 2.551 6.272 3.508 9.496s1.169 6.626 2.268 9.78c1.098 3.189 2.091 6.626 4.252 9.248 1.169 1.417 2.764 2.551 4.5 3.224 1.028.425 3.295.531 3.295.531z" class="B"/><g class="C E"><path d="M90.496 490.535c-1.205-3.969-2.232-7.795-4.252-11.268-1.701-3.012-4.11-5.528-6.484-8.008-1.559-1.63-3.331-3.012-4.996-4.5"/><path d="M81.886 487.382c1.772-.957 5.705-.106 7.654.283 1.346-2.657 2.445-4.713 2.339-7.193m-11.588 2.374c1.772-.957 5.102-.673 7.051-.283 1.346-2.657 2.445-5.244 2.339-7.724m-11.657 1.842c1.807-.957 4.358-.248 6.307.142 1.346-2.657 1.063-5.067.957-7.547m-9.851 2.905c1.772-.992 2.906-.071 4.854.319 1.346-2.657.638-3.685.531-6.165M90 491.634c-1.772-.283-3.543-.425-5.315.354"/></g></g></g><path d="M210.083 398.409c.85-.319 1.949-.886 2.055-1.807.106-.886-.886-1.665-1.63-2.161-.425-.283-1.028-.248-1.524-.425-.531-.177-1.24-.248-1.594-.744s-.106-1.24-.248-1.843c-.425-1.488-.602-3.26-1.736-4.287-.992-.957-2.516-1.134-3.862-1.276-1.169-.106-2.339.283-3.472.425-.921.106-1.807.39-2.728.319-.461-.071-.957-.106-1.311-.39-.319-.283-.425-.744-.496-1.134-.213-.85-.071-1.736-.106-2.622-.035-1.134.177-2.303-.106-3.366-.354-1.276-.886-2.657-1.913-3.472-1.098-.85-2.622-1.098-4.004-1.169-1.169-.035-2.303.425-3.472.638-.886.177-1.736.531-2.657.496-.39 0-.85 0-1.134-.283-.177-.142-.177-.461-.213-.673-.071-.744.142-1.453.213-2.197.071-.992.425-2.02.248-3.012-.177-1.205-.531-2.551-1.382-3.437-.957-.957-2.445-1.382-3.791-1.63-1.169-.177-2.374.248-3.543.283-1.453 0-3.224.744-4.358-.177-.886-.709-.567-2.161-.78-3.26-.213-1.028-.106-2.091-.496-3.012-.496-1.134-1.134-2.339-2.161-2.976-.85-.531-1.984-.602-2.976-.531-.744.035-1.453.461-2.197.673-.602.177-1.276.78-1.878.531-.177-.071-.213-.319-.248-.496-.283-.602-.39-1.24-.602-1.878-.283-.78-.39-1.736-.957-2.374-.78-.921-1.878-1.807-3.083-1.807-1.169.035-2.268.921-3.012 1.807-.531.673-.567 1.594-.815 2.374-.213.602-.319 1.205-.531 1.807-.071.106-.071.283-.177.319-.142.106-.354.035-.531 0-.602-.142-1.134-.496-1.701-.709-.815-.283-1.559-.78-2.409-.85-1.134-.071-2.409-.035-3.295.638-1.028.744-1.524 2.126-1.807 3.366-.248 1.028.071 2.055.106 3.118.035.709.213 1.453.106 2.197-.035.177 0 .39-.142.496-.283.248-.744.142-1.098.142-.815-.035-1.594-.283-2.374-.496-1.063-.354-2.02-1.205-3.118-1.276-.957-.035-2.339 0-2.764.85-.461.85.283 2.02.921 2.728.957.957 2.48 1.098 3.756 1.488 1.098.319 2.197.709 3.331.709 1.24-.035 2.622-.106 3.614-.85 1.028-.78 1.559-2.126 1.843-3.366.248-.992-.071-2.055-.071-3.083-.035-.78-.638-1.807-.071-2.339.461-.425 1.24.035 1.843.177.815.213 1.524.78 2.339.921 1.063.142 2.232.248 3.224-.213.957-.496 1.594-1.488 2.161-2.409.39-.673.035-2.161.815-2.161.815 0 .425 1.594.815 2.303.567.957 1.169 2.055 2.197 2.445 1.559.638 3.366-.425 5.067-.39.638 0 1.453-.248 1.949.177.567.531.213 1.524.425 2.268.602 2.091.602 4.713 2.303 6.059 1.949 1.559 4.89.957 7.37 1.028.921 0 1.807-.354 2.693-.248.461.071.992.142 1.276.496.177.177.213.461.248.744.071.744-.177 1.488-.248 2.232-.071 1.028-.39 2.055-.248 3.047.213 1.205.602 2.551 1.559 3.402 1.028.921 2.551 1.205 3.933 1.311 1.169.071 2.339-.425 3.472-.638.921-.142 1.807-.496 2.728-.496.425 0 .921 0 1.24.248s.425.709.531 1.098c.177.85.035 1.701.071 2.551.035 1.134-.142 2.303.142 3.402.319 1.276.815 2.657 1.843 3.508 1.028.886 2.48 1.169 3.827 1.311 1.169.142 2.339-.213 3.508-.354.921-.106 1.843-.39 2.764-.354.461.035 1.063 0 1.346.354.354.354.142.992.248 1.453.319 1.453.354 3.118 1.311 4.287.78.992 2.161 1.417 3.331 1.878.638.248 1.276.354 1.949.496a1.26 1.26 0 0 0 .354.071h0zm-.107-11.551c.815-.035 1.594-.602 1.878-1.382a2.08 2.08 0 0 0-.709-2.232L153 337.358a2.08 2.08 0 0 0-2.374-.035l-22.748 15.945c-.921.602-1.205 1.949-.567 2.835.602.886 1.984 1.098 2.835.461l21.579-15.13 56.976 44.965c.354.283.815.461 1.276.461z" class="B"/><path d="M152.929 326.268v-63.886l-9.744 6.803-.319 63.319z"/><path d="M211.5 372.118l-21.012-16.866-.283-54.425 21.295 14.492z" class="H"/><path d="M190.205 356.173l-.602-56.232m-5.316 52.016l-.283-57.331m-26.646 34.618l-.283-68.35" class="C D E G J"/><path d="M119.516 284.563l36.39-24.236" class="C D E G I"/><g class="J D G"><path d="M157.394 270.248l26.327 26.858-26.504 25.654 26.787 27.496" class="C E"/><path d="M168.13 338.811l16.051-16.406-26.787-27.921 15.165-14.173" class="C E"/><path d="M170.965 328.571l4.925-5.28-4.925-5.811-5.102 5.28zm.141-27.673l4.287-4.713-4.854-4.925-4.323 4.606z" class="E"/><path d="M183.118 342.319l-4.89-5.35 5.138-5.421zm-25.193-28.028l5.244-5.457-5.315-5.173zm25.477.036l-4.819-5.244 4.925-4.535zm-25.619-27.532l4.606-4.748-4.854-4.748z"/></g><g class="E I G"><path d="M227.055 410.492l21.224-10.63 15.201-7.76c7.193-3.933 14.35-7.937 21.224-12.402 6.449-4.181 12.472-8.929 18.744-13.429l-12.402-16.618c-3.579-4.642-7.476-9.071-10.949-13.783-3.224-4.358-6.13-8.965-9.177-13.429-2.48.709-4.89 1.736-7.441 2.126-4.996.744-10.134.673-15.201.354-4.039-.248-8.043-.992-12.012-1.772-4.287-.85-8.61-1.736-12.756-3.189-4.252-1.488-8.398-3.472-12.366-5.669-4.535-2.48-8.858-5.421-13.075-8.469-4.535-3.295-9.106-6.626-13.075-10.594-3.862-3.862-6.945-8.433-10.276-12.756-3.614-4.748-6.839-9.815-10.594-14.492-2.551-3.189-5.173-6.343-8.114-9.177-4.075-3.898-8.327-7.618-13.11-10.594-4.394-2.799-9.248-4.89-14.138-6.732-4.677-1.807-9.496-3.543-14.492-4.252-4.89-.709-9.886 0-14.846 0 2.728 5.563 5.634 10.984 8.15 16.618 3.118 7.087 6.059 14.244 8.469 21.579 2.268 6.839 4.181 13.819 5.669 20.87 1.488 7.228 2.409 14.563 3.189 21.898.567 5.528.886 11.091 1.063 16.618.177 6.13.035 12.26 0 18.39l-.354 17.327c-.248 6.024-.709 12.012-1.063 18.035" class="C D"/><path d="M30.012 149.988v360h270"/></g><path d="M187.937 269.469c-.673.071-1.417.673-2.835 1.701l-3.118 2.197-3.083 2.232c-3.862 2.303-2.799 2.587-.177 5.74l2.941 3.543 2.906 3.508c2.693 3.614 2.551 3.862 5.705.957l2.835-2.587 2.835-2.587c3.331-2.587 2.657-2.764.142-5.776l-2.622-3.154-2.657-3.154c-1.382-1.913-2.02-2.693-2.87-2.622zm-.531 5.528c.673 0 1.453.248 1.949.744.319.354.425.886.425 1.346 0 .213-.283.496-.106.673.142.142.39-.177.602-.177.496.035 1.028.142 1.382.496.496.461.744 1.24.744 1.913 0 .709-.248 1.453-.744 1.949-.354.319-.886.39-1.382.425-.213.035-.461-.283-.602-.106-.177.142.106.39.106.602 0 .496-.106 1.028-.425 1.382-.496.496-1.276.744-1.949.744s-1.453-.248-1.949-.744c-.319-.354-.425-.886-.461-1.382 0-.213.319-.461.177-.602-.177-.177-.461.142-.673.106-.496-.035-.992-.106-1.346-.425-.496-.496-.744-1.24-.744-1.949 0-.673.248-1.453.744-1.913.354-.354.85-.461 1.346-.496.213 0 .496.319.673.177.142-.177-.177-.461-.177-.673.035-.461.142-.992.461-1.346.496-.496 1.276-.744 1.949-.744zm14.031 10.239c-.638.142-1.311.886-2.516 2.126l-2.693 2.693-2.657 2.693c-3.472 2.941-2.339 3.047.744 5.705l3.508 3.012 3.437 2.976c3.26 3.118 3.154 3.402 5.811 0l2.339-3.047 2.374-2.976c2.87-3.118 2.197-3.189-.815-5.74l-3.118-2.693-3.118-2.657c-1.701-1.665-2.48-2.339-3.295-2.091zm.39 5.528c.709-.106 1.488 0 2.055.425.39.283.567.78.638 1.24.071.213-.177.531 0 .673s.354-.248.602-.248c.461-.071 1.028-.035 1.417.213.567.39.957 1.098 1.063 1.807.106.673 0 1.453-.425 2.02-.283.39-.815.567-1.276.673-.213.035-.496-.213-.638-.035-.106.177.213.39.248.602.035.461.035 1.028-.213 1.417-.39.567-1.098.957-1.807 1.063-.673.106-1.453 0-2.02-.425-.39-.283-.602-.78-.709-1.276-.035-.213.248-.496.071-.638s-.39.213-.638.248c-.461.035-.992.071-1.382-.213-.567-.39-.957-1.098-1.063-1.772-.106-.709 0-1.488.425-2.055.283-.39.78-.567 1.24-.673.213-.071.531.213.673.035.106-.177-.248-.39-.283-.602-.035-.496-.035-1.028.248-1.417.39-.567 1.098-.957 1.772-1.063zm15.484 6.803c-.567.354-.957 1.276-1.736 2.835l-1.701 3.402-1.665 3.402c-2.374 3.862-1.24 3.614 2.516 5.173l4.252 1.736 4.217 1.736c4.075 1.913 4.075 2.232 5.492-1.843l1.276-3.614 1.311-3.579c1.736-3.898 1.063-3.72-2.587-5.209l-3.791-1.524-3.827-1.559c-2.126-1.028-3.047-1.453-3.756-.957zm2.126 5.138c.602-.319 1.382-.461 2.055-.248.461.142.78.567 1.028.957.106.213-.035.567.177.638.213.106.283-.319.496-.425.425-.177.957-.354 1.417-.213.673.177 1.24.744 1.559 1.346.354.602.461 1.417.248 2.055-.142.461-.567.78-.992 1.028-.177.142-.567-.035-.602.213-.071.213.283.283.39.461.213.461.39.957.248 1.453-.177.638-.744 1.24-1.346 1.559s-1.417.461-2.055.248c-.461-.142-.815-.567-1.063-.992-.106-.177.035-.567-.142-.638-.213-.071-.319.319-.531.425-.425.213-.921.39-1.382.248-.673-.177-1.276-.744-1.594-1.346-.319-.638-.461-1.417-.248-2.091.142-.461.567-.78.992-1.028.177-.106.567.035.638-.177s-.354-.319-.461-.496c-.213-.425-.319-.957-.213-1.417.213-.673.744-1.24 1.382-1.559zm16.583 2.693c-.425.531-.567 1.524-.815 3.224l-.638 3.756-.602 3.756c-1.134 4.358-.142 3.791 3.933 4.181l4.571.425 4.571.425c4.429.638 4.5.921 4.677-3.366l.177-3.827.177-3.827c.531-4.217-.071-3.827-3.969-4.181l-4.11-.39-4.11-.354c-2.339-.354-3.331-.461-3.862.177zm3.508 4.287c.496-.461 1.24-.85 1.913-.815.496 0 .921.283 1.276.638.142.142.142.531.354.531.248 0 .177-.39.354-.531.354-.319.815-.638 1.276-.638.709-.035 1.417.319 1.913.815s.85 1.205.85 1.913c0 .461-.354.921-.673 1.276-.142.177-.531.142-.531.354s.39.177.531.354c.319.354.673.815.673 1.276 0 .709-.354 1.417-.85 1.913s-1.205.85-1.878.85c-.496-.035-.957-.319-1.311-.673-.177-.142-.106-.531-.354-.531-.213 0-.177.39-.354.531-.354.319-.78.638-1.276.673-.673 0-1.417-.354-1.878-.85-.496-.496-.85-1.205-.85-1.913 0-.461.283-.921.602-1.276.177-.177.602-.106.567-.354 0-.213-.425-.177-.567-.354-.319-.354-.602-.78-.602-1.276-.035-.673.354-1.417.815-1.913zm-65.835-36.992c.638-.071 1.417-.673 2.835-1.665l3.083-2.232 3.118-2.197c3.862-2.303 2.764-2.622.177-5.776l-2.941-3.508-2.906-3.543c-2.693-3.579-2.551-3.862-5.705-.957l-2.835 2.622-2.835 2.551c-3.366 2.587-2.693 2.764-.142 5.776l2.622 3.154 2.657 3.154c1.382 1.913 2.02 2.728 2.87 2.622zm.531-5.528c-.709 0-1.453-.248-1.949-.744-.319-.354-.425-.85-.425-1.346-.035-.213.248-.496.106-.638-.142-.177-.39.177-.602.142-.496-.035-1.028-.142-1.382-.461-.496-.496-.744-1.24-.744-1.949 0-.673.248-1.453.744-1.949.354-.319.886-.39 1.382-.425.213 0 .461.283.602.142.142-.177-.142-.425-.106-.638 0-.496.106-1.028.425-1.382.496-.496 1.24-.744 1.949-.744.673 0 1.453.248 1.913.744.354.354.461.886.496 1.382 0 .213-.319.461-.177.638.177.142.425-.142.673-.142.461.035.992.106 1.346.425.496.496.744 1.276.744 1.949 0 .709-.248 1.453-.744 1.949-.354.319-.886.425-1.346.461-.248.035-.496-.319-.673-.142-.142.142.177.425.177.638-.035.496-.142.992-.496 1.346-.461.496-1.24.744-1.913.744zm-13.748-10.523c.638-.177 1.311-.921 2.551-2.126l2.657-2.728 2.693-2.693c3.437-2.906 2.303-3.012-.78-5.705l-3.472-2.976-3.472-3.012c-3.224-3.083-3.118-3.366-5.776.035l-2.339 3.012-2.374 3.012c-2.87 3.118-2.197 3.154.78 5.705l3.118 2.693 3.154 2.657c1.701 1.665 2.445 2.339 3.26 2.126zm-.39-5.528c-.673.106-1.488-.035-2.02-.425-.39-.283-.567-.78-.673-1.276-.035-.213.213-.531.035-.638-.177-.142-.39.213-.602.248-.461.035-1.028.035-1.417-.248-.567-.39-.957-1.098-1.063-1.772-.142-.673 0-1.488.39-2.055.283-.39.815-.531 1.311-.638.213-.071.496.213.638 0 .106-.177-.213-.354-.248-.567-.071-.496-.071-1.063.213-1.453.39-.567 1.098-.957 1.772-1.063s1.488 0 2.055.425c.39.283.567.815.673 1.276.035.213-.213.496-.035.638s.39-.213.602-.213c.496-.071 1.028-.071 1.417.177.567.39.957 1.134 1.063 1.807s0 1.488-.425 2.02c-.283.39-.78.602-1.24.709-.213.035-.567-.248-.673-.071-.106.213.248.425.248.638.071.461.035.992-.213 1.417-.39.567-1.134.921-1.807 1.063zm-16.724-8.079c.567-.39.957-1.276 1.736-2.835l1.701-3.402 1.665-3.437c2.339-3.827 1.24-3.579-2.516-5.138l-4.252-1.736-4.252-1.772c-4.039-1.913-4.039-2.197-5.457 1.878l-1.276 3.614-1.311 3.579c-1.736 3.862-1.063 3.685 2.587 5.173l3.791 1.559 3.827 1.524c2.126 1.063 3.047 1.453 3.756.992zm-2.126-5.138c-.602.319-1.382.461-2.055.248-.461-.142-.78-.567-1.028-.992-.106-.177.035-.567-.177-.638s-.283.354-.496.425c-.425.213-.957.39-1.417.248-.673-.177-1.24-.744-1.594-1.346-.319-.638-.461-1.417-.248-2.091.177-.461.602-.78 1.028-1.028.177-.106.531.035.602-.177s-.319-.283-.39-.496c-.213-.425-.39-.957-.283-1.417.213-.673.78-1.24 1.382-1.559s1.382-.461 2.055-.248c.461.142.815.567 1.063.992.106.177-.071.531.142.602s.319-.319.531-.39c.425-.213.921-.39 1.382-.248.673.177 1.24.744 1.594 1.346.319.602.461 1.417.248 2.055-.177.461-.567.815-.992 1.063-.177.106-.567-.071-.638.177-.071.177.354.283.425.496.213.425.354.921.248 1.417-.213.638-.78 1.24-1.382 1.559zm-16.547-2.834c.425-.496.531-1.488.815-3.189l.602-3.756.602-3.756c1.134-4.394.142-3.827-3.933-4.217l-4.571-.425-4.535-.425c-4.429-.638-4.535-.921-4.713 3.402l-.142 3.827-.213 3.791c-.531 4.217.071 3.862 4.004 4.217l4.075.354 4.11.354c2.339.39 3.366.496 3.898-.177zm-3.543-4.287c-.496.496-1.205.85-1.913.85-.461 0-.886-.319-1.24-.638-.177-.142-.177-.567-.39-.567s-.142.425-.319.567c-.354.319-.815.638-1.311.638-.673 0-1.417-.354-1.913-.85-.461-.461-.85-1.205-.815-1.878 0-.496.319-.921.638-1.276.142-.177.531-.142.531-.354 0-.248-.39-.213-.531-.354-.319-.354-.638-.815-.673-1.311 0-.673.354-1.382.85-1.878s1.205-.85 1.913-.85c.461 0 .957.319 1.311.638.142.142.106.567.319.567s.213-.425.39-.567c.354-.319.744-.638 1.24-.638.709 0 1.417.354 1.913.85.461.461.85 1.205.815 1.878 0 .496-.283.921-.602 1.276-.142.177-.567.142-.567.354 0 .248.425.213.567.354.319.354.602.815.638 1.311 0 .673-.354 1.382-.85 1.878zm140.137 75.366l-1.559.319c-2.126.248-3.012.425-3.331 1.205-.213.602-.106 1.524.071 3.26l.354 3.791.354 3.827c.071 4.5.78 3.72 4.394 3.047l4.004-.78 3.898-.709-1.913-3.295c-.248.177-.531.319-.78.39-.425.106-.886-.071-1.276-.283-.177-.106-.213-.496-.39-.425-.213.035-.106.425-.213.638-.248.39-.531.78-.957.886-.567.213-1.276.071-1.807-.283s-1.028-.992-1.169-1.665c-.106-.461.035-.957.213-1.382.071-.177.496-.248.425-.461s-.425-.106-.602-.213c-.354-.248-.709-.638-.815-1.098-.177-.673-.035-1.453.283-2.055.319-.567.85-1.134 1.417-1.276.425-.142.886.071 1.24.283.177.106.248.496.461.461l.106-.106-2.409-4.075zM99.354 234.354l1.559-.319c2.126-.248 3.012-.425 3.331-1.205.248-.602.106-1.559-.035-3.26l-.39-3.827-.354-3.791c-.035-4.5-.78-3.72-4.358-3.047l-4.039.78-3.898.709 1.949 3.295c.213-.177.496-.319.744-.39.425-.106.886.071 1.276.283.177.106.213.461.425.425.177-.035.071-.425.177-.638.248-.39.531-.78.957-.921.567-.177 1.276-.035 1.807.319s1.028.992 1.205 1.63c.106.496-.035.957-.248 1.417-.071.177-.496.248-.425.461s.425.106.602.213c.354.248.709.638.815 1.098.177.638.035 1.453-.283 2.02-.283.602-.815 1.169-1.417 1.311-.425.106-.85-.071-1.24-.283-.177-.106-.248-.496-.461-.461-.035 0-.071.071-.106.106l2.409 4.075zm-4.358-133.37c2.02 4.004 7.016 10.028 12.012 10.028 9 0 13.004-8.008 13.004-18 0-10.028-4.004-19.028-13.004-19.028-4.996 0-8.008 5.031-11.02 8.008-.992.992-1.984 0-.992-.992 3.012-3.012 8.008-10.984 8.008-18 0-8.008-4.996-18-13.004-18s-13.004 9.992-13.004 18c0 7.016 4.996 14.988 8.008 18 .992.992 0 1.984-.992.992-3.012-2.976-6.024-8.008-11.02-8.008-9 0-13.004 9-13.004 19.028 0 9.992 4.004 18 13.004 18 4.996 0 9.992-6.024 12.012-10.028.992-.992.992 0 .992 1.028-.992 7.972-.992 9.992-1.984 15.98C82.984 124.016 80.008 135 80.008 135c4.996-1.984 14.988-1.984 19.984 0 0 0-2.976-10.984-4.004-17.008-.992-5.988-.992-8.008-1.984-15.98 0-1.028 0-2.02.992-1.028zm-62.504 17.008c.992 2.02 3.508 4.996 6.024 4.996 4.5 0 6.484-4.004 6.484-9s-1.984-9.496-6.484-9.496c-2.516 0-4.004 2.516-5.528 4.004-.496.496-.992 0-.496-.496 1.524-1.488 4.004-5.492 4.004-9 0-4.004-2.48-9-6.484-9s-6.52 4.996-6.52 9c0 3.508 2.516 7.512 4.004 9 .496.496 0 .992-.496.496-1.488-1.488-3.012-4.004-5.492-4.004-4.5 0-6.52 4.5-6.52 9.496s2.02 9 6.52 9c2.48 0 4.996-2.976 5.988-4.996.496-.496.496 0 .496.496-.496 4.004-.496 4.996-.992 8.008S25.016 135 25.016 135c2.48-.992 7.476-.992 9.992 0 0 0-1.524-5.492-2.02-8.504s-.496-4.004-.992-8.008c0-.496 0-.992.496-.496zm232.512 321.024c-2.02-4.004-7.016-10.028-12.012-10.028-9 0-13.004 8.008-13.004 18 0 10.028 4.004 19.028 13.004 19.028 4.996 0 8.008-5.031 11.02-8.008.992-.992 1.984 0 .992.992-3.012 3.012-8.008 10.984-8.008 18 0 8.008 4.996 18 13.004 18s13.004-9.992 13.004-18c0-7.016-4.996-14.988-8.008-18-.992-.992 0-1.984.992-.992 3.012 2.976 6.024 8.008 11.02 8.008 9 0 13.004-9 13.004-19.028 0-9.992-4.004-18-13.004-18-4.996 0-9.992 6.024-12.012 10.028-.992.992-.992 0-.992-1.028.992-7.972.992-9.992 1.984-15.98 1.028-6.024 4.004-17.008 4.004-17.008-4.996 1.984-14.988 1.984-19.984 0 0 0 2.976 10.984 4.004 17.008.992 5.988.992 8.008 1.984 15.98 0 1.028 0 2.02-.992 1.028zm62.504-17.008c-.992-2.02-3.508-4.996-6.024-4.996-4.5 0-6.484 4.004-6.484 9s1.984 9.496 6.484 9.496c2.516 0 4.004-2.516 5.528-4.004.496-.496.992 0 .496.496-1.524 1.488-4.004 5.492-4.004 9 0 4.004 2.48 9 6.484 9s6.52-4.996 6.52-9c0-3.508-2.516-7.512-4.004-9-.496-.496 0-.992.496-.496 1.488 1.488 3.012 4.004 5.492 4.004 4.5 0 6.52-4.5 6.52-9.496s-2.02-9-6.52-9c-2.48 0-4.996 2.976-5.988 4.996-.496.496-.496 0-.496-.496.496-4.004.496-4.996.992-8.008s1.984-8.504 1.984-8.504c-2.48.992-7.476.992-9.992 0 0 0 1.524 5.492 2.02 8.504s.496 4.004.992 8.008c0 .496 0 .992-.496.496z"/><defs><path id="B" d="M321.484 90c-1.169 0-2.48 1.311-2.48 2.516 0 1.169 1.311 2.48 2.48 2.48 1.205 0 2.516-1.311 2.516-2.48 0-1.205-1.311-2.516-2.516-2.516z"/><path id="C" d="M318.508 97.016c-1.169 0-2.516 1.311-2.516 2.48s1.346 2.516 2.516 2.516 2.48-1.346 2.48-2.516-1.311-2.48-2.48-2.48z"/><path id="D" d="M321.661 152.752c-1.205 0-2.516 1.346-2.516 2.516s1.311 2.48 2.516 2.48c1.169 0 2.48-1.311 2.48-2.48s-1.311-2.516-2.48-2.516z"/><path id="E" d="M321.449 187.547c-1.169 0-2.48 1.311-2.48 2.48 0 1.205 1.311 2.516 2.48 2.516s2.516-1.311 2.516-2.516c0-1.169-1.346-2.48-2.516-2.48z"/><path id="F" d="M324.461 194.528c-1.169 0-2.516 1.346-2.516 2.516s1.346 2.48 2.516 2.48 2.48-1.311 2.48-2.48-1.311-2.516-2.48-2.516z"/><path id="G" d="M321.272 237.083c-1.169 0-2.516 1.311-2.516 2.48 0 1.205 1.346 2.516 2.516 2.516s2.48-1.311 2.48-2.516c0-1.169-1.311-2.48-2.48-2.48z"/><path id="H" d="M320.705 334.063c-1.205 0-2.516 1.311-2.516 2.48 0 1.205 1.311 2.516 2.516 2.516 1.169 0 2.48-1.311 2.48-2.516 0-1.169-1.311-2.48-2.48-2.48z"/><path id="I" d="M38.516 450c1.169 0 2.48-1.311 2.48-2.516 0-1.169-1.311-2.48-2.48-2.48-1.205 0-2.516 1.311-2.516 2.48 0 1.205 1.311 2.516 2.516 2.516z"/><path id="J" d="M41.492 442.984c1.169 0 2.516-1.311 2.516-2.48s-1.346-2.516-2.516-2.516-2.48 1.346-2.48 2.516 1.311 2.48 2.48 2.48z"/><path id="K" d="M38.339 387.248c1.205 0 2.516-1.346 2.516-2.516s-1.311-2.48-2.516-2.48c-1.169 0-2.48 1.311-2.48 2.48s1.311 2.516 2.48 2.516z"/><path id="L" d="M38.551 352.453c1.169 0 2.48-1.311 2.48-2.48 0-1.205-1.311-2.516-2.48-2.516s-2.516 1.311-2.516 2.516c0 1.169 1.346 2.48 2.516 2.48z"/><path id="M" d="M35.539 345.472c1.169 0 2.516-1.346 2.516-2.516s-1.346-2.48-2.516-2.48-2.48 1.311-2.48 2.48 1.311 2.516 2.48 2.516z"/><path id="N" d="M38.728 302.917c1.169 0 2.516-1.311 2.516-2.48 0-1.205-1.346-2.516-2.516-2.516s-2.48 1.311-2.48 2.516c0 1.169 1.311 2.48 2.48 2.48z"/><path id="O" d="M39.295 205.937c1.205 0 2.516-1.311 2.516-2.48 0-1.205-1.311-2.516-2.516-2.516-1.169 0-2.48 1.311-2.48 2.516 0 1.169 1.311 2.48 2.48 2.48z"/></defs></svg>