<svg xmlns="http://www.w3.org/2000/svg" width="225" height="315" version="1.1" viewBox="0 0 225 315"><metadata/><g><g transform="translate(0 -213.66)"><rect width="223.5" height="313.5" x=".75" y="214.41" fill="#fff" stroke="#000" stroke-linecap="round" stroke-width="1.5" rx="12" ry="12"/><text x="13.75" y="240.406" fill="#000" font-family="sans-serif" font-size="18.667" letter-spacing="0" text-align="center" text-anchor="middle" word-spacing="0" style="line-height:.89999998" xml:space="preserve"><tspan x="13.75" y="240.406">J</tspan><tspan x="13.75" y="257.206">O</tspan><tspan x="13.75" y="274.006">K</tspan><tspan x="13.75" y="290.806">E</tspan><tspan x="13.75" y="307.606">R</tspan></text><text x="-211.25" y="-501.907" fill="#000" font-family="sans-serif" font-size="18.667" letter-spacing="0" text-align="center" text-anchor="middle" transform="scale(-1)" word-spacing="0" style="line-height:.89999998" xml:space="preserve"><tspan x="-211.25" y="-501.907">J</tspan><tspan x="-211.25" y="-485.107">O</tspan><tspan x="-211.25" y="-468.307">K</tspan><tspan x="-211.25" y="-451.507">E</tspan><tspan x="-211.25" y="-434.707">R</tspan></text></g><g stroke-width="1.25"><g transform="translate(0 -213.66)"><circle cx="43.75" cy="312.41" r="6.25"/><circle cx="181.25" cy="312.41" r="6.25"/><circle cx="112.25" cy="284.91" r="6.25"/></g><path d="m106.75 453.66c-1.5986-3.9185-3.2754-9.2628-10.336-10.03-10.356-0.75944-19.759-1.5172-18.474-12.874 18.692-0.15056 22.472-18.41 17.58-18.231-9.1895 0.13265-4.5368 8.0902-18.922 9.4105-0.0881-2.7575 0.26-5.8889-0.73592-7.2658-3.5034-3.8392-12.384-0.0604-14.038-5.3249 0.51837-5.8765 9.398-17.906 11.126-19.244-2.0135-4.6695-1.9911-21.214 2.4932-23.374h76.22c7.0338 21.765-6.8866 33.064-7.4685 43.241 0.24179 5.1749 6.8942 11.389 9.5874 13.78z" transform="translate(0 -213.66)"/><path d="m112.25 292.87c-3.9225 12.381-9.9288 30.548-13.594 43.008-9.2438-8.5375-22.211-23.869-46.601-22.305 21.289 7.7862 22.93 25.589 22.93 44.452h74.531c0-18.865 1.6415-36.668 22.93-44.452-24.394-1.565-37.362 13.768-46.605 22.305-3.665-12.46-9.6712-30.628-13.594-43.008z" transform="translate(0 -213.66)"/></g></g></svg>