<svg xmlns="http://www.w3.org/2000/svg" xmlns:svg="http://www.w3.org/2000/svg" width="240" height="336" class="card" preserveAspectRatio="none"><defs><pattern id="B2" width="6" height="6" patternTransform="matrix(1,0,0,1,-1769,24)" patternUnits="userSpaceOnUse"><path id="svg_1" fill="red" d="m3,0l3,3l-3,3l-3,-3l3,-3z"/></pattern></defs><g class="layer"><title>Layer 1</title><g id="svg_14"><rect id="svg_2" width="239" height="335" x="-329.5" y="-23.5" fill="#fff" stroke="#000" rx="12" ry="12"/><rect id="svg_3" width="216" height="312" x="-318" y="-12" fill="url(#B2)" rx="12" ry="12"/><rect id="svg_5" width="239" height="335" x="-319.5" y="-24.5" fill="#fff" stroke="#000" rx="12" ry="12"/><rect id="svg_4" width="216" height="312" x="-308" y="-13" fill="url(#B2)" rx="12" ry="12"/><rect id="svg_7" width="239" height="335" x="-308.5" y="-24.5" fill="#fff" stroke="#000" rx="12" ry="12"/><rect id="svg_6" width="216" height="312" x="-297" y="-13" fill="url(#B2)" rx="12" ry="12"/><rect id="svg_9" width="239" height="335" x="-298.5" y="-24.5" fill="#fff" stroke="#000" rx="12" ry="12"/><rect id="svg_8" width="216" height="312" x="-287" y="-13" fill="url(#B2)" rx="12" ry="12"/><rect id="svg_11" width="239" height="335" x="-288.5" y="-24.5" fill="#fff" stroke="#000" rx="12" ry="12"/><rect id="svg_10" width="216" height="312" x="-277" y="-13" fill="url(#B2)" rx="12" ry="12"/><rect id="svg_13" width="239" height="335" x="-277.5" y="-22.5" fill="#fff" stroke="#000" rx="12" ry="12"/><rect id="svg_12" width="216" height="312" x="-266" y="-11" fill="url(#B2)" rx="12" ry="12"/></g></g></svg>