<svg width="240" height="336" xmlns="http://www.w3.org/2000/svg" xmlns:svg="http://www.w3.org/2000/svg" class="card" preserveAspectRatio="none">
 <defs>
  <pattern height="6" id="B2" patternTransform="matrix(1,0,0,1,-1769,24)" patternUnits="userSpaceOnUse" width="6">
   <path d="m3,0l3,3l-3,3l-3,-3l3,-3z" fill="red" id="svg_1"/>
  </pattern>
 </defs>
 <g class="layer">
  <title>Layer 1</title>
  <g id="svg_14">
   <rect fill="white" height="335" id="svg_2" rx="12" ry="12" stroke="black" width="239" x="-329.5" y="-23.5"/>
   <rect fill="url(#B2)" height="312" id="svg_3" rx="12" ry="12" width="216" x="-318" y="-12"/>
   <rect fill="white" height="335" id="svg_5" rx="12" ry="12" stroke="black" width="239" x="-319.5" y="-24.5"/>
   <rect fill="url(#B2)" height="312" id="svg_4" rx="12" ry="12" width="216" x="-308" y="-13"/>
   <rect fill="white" height="335" id="svg_7" rx="12" ry="12" stroke="black" width="239" x="-308.5" y="-24.5"/>
   <rect fill="url(#B2)" height="312" id="svg_6" rx="12" ry="12" width="216" x="-297" y="-13"/>
   <rect fill="white" height="335" id="svg_9" rx="12" ry="12" stroke="black" width="239" x="-298.5" y="-24.5"/>
   <rect fill="url(#B2)" height="312" id="svg_8" rx="12" ry="12" width="216" x="-287" y="-13"/>
   <rect fill="white" height="335" id="svg_11" rx="12" ry="12" stroke="black" width="239" x="-288.5" y="-24.5"/>
   <rect fill="url(#B2)" height="312" id="svg_10" rx="12" ry="12" width="216" x="-277" y="-13"/>
   <rect fill="white" height="335" id="svg_13" rx="12" ry="12" stroke="black" width="239" x="-277.5" y="-22.5"/>
   <rect fill="url(#B2)" height="312" id="svg_12" rx="12" ry="12" width="216" x="-266" y="-11"/>
  </g>
 </g>
</svg>